<svg xmlns="http://www.w3.org/2000/svg" width="46.992" height="31.999" viewBox="0 0 46.992 31.999">
  <path id="Forma_1" data-name="Forma 1" d="M740.005,439.553c0,8.17,4.023,16.44,11.712,16.44h19.588a16,16,0,0,0,0-32H751.718C743.67,423.995,740.005,432.059,740.005,439.553Zm2.954,0c0-6.245,2.708-12.547,8.759-12.547h7.37c4.116,10.976,1.017,22.621-.048,25.976h-7.322C746.029,452.982,742.959,446.063,742.959,439.553Zm41.084.441a12.879,12.879,0,0,1-12.738,12.988h-9.161a49.549,49.549,0,0,0,2.005-13.736,38.3,38.3,0,0,0-1.92-12.24h9.076A12.88,12.88,0,0,1,784.043,439.994Zm-26.954,1.317H746.382a1.506,1.506,0,0,1,0-3.012H757.09a1.506,1.506,0,0,1,0,3.012Z" transform="translate(-740.005 -423.995)" fill="#fff" opacity="0.2"/>
</svg>
