<svg xmlns="http://www.w3.org/2000/svg" width="101" height="116" viewBox="0 0 101 116">
	<g>
	<g>
	<path fill="#fe8682" d="M.735 29.002L50.811.004l50.076 28.998v57.995L50.81 115.995.735 86.997z"/>
	</g>
	<g>
	<path fill="#fc635e" d="M5.743 32.002L50.811 6.003 95.88 32.002v51.995l-45.068 25.999L5.743 83.997z"/>
	</g>
	<g>
	<path fill="#fff" d="M42.17 51.163l-.06 12.663c.002 1.06-1.34 2.923-1.34 2.923-.992 2.957 1.5 4.01-.243 5.817 2.317 4.76-2.34 5.434-2.34 5.434-1.596 0-1.346-1.591-1.346-1.591l-.016-9.916c.136-2.514-1.433-2.572-1.433-2.572-3.789.005-3.95-4.053-3.956-4.542a3.293 3.293 0 0 1-1.439-2.72c0-1.127.568-2.12 1.431-2.712v-.11c-.007-3.985 4.109-4.172 4.109-4.172l5.206-.01c1.683-.003 1.432 1.504 1.428 1.508zm24.833 5.017c.004 1.725-.973 3.214-2.388 3.976l.023 11.55c.078 1.428-1.025.059-1.025.059s-4.779-8.837-18.754-8.81c0 0-1.32.001-1.32-1.259l-.022-10.93s-.236-1.26 1.239-1.263c0 0 12.504.735 18.549-8.692 0 0 1.273-1.684 1.277-.17l.019 11.573c1.418.76 2.402 2.237 2.402 3.966zM63.04 43.33c-3.976 6.18-12.197 7.334-12.197 7.334 10.652-.108 12.197-7.334 12.197-7.334zm1.93 9.851c1.583 2.32 1.16 4.29 1.16 4.29.965-3.053-1.16-4.29-1.16-4.29z"/>
	</g>
	</g>
</svg>