<svg xmlns="http://www.w3.org/2000/svg" width="102" height="116" viewBox="0 0 102 116">
	<g>
	<g>
	<path fill="#fc635e" d="M.754 29.002L50.975.004l50.222 28.998v57.995l-50.222 28.998L.755 86.997z"/>
	</g>
	<g>
	<path fill="#fff" d="M5.776 32.002l45.2-25.999 45.199 25.999v51.995l-45.2 25.999L5.776 83.997z"/>
	</g>
	<g>
	<path fill="#fc635e" d="M57.6 75.965c-.528.071-5.507.006-5.875 0-.368.006-5.348.071-5.876 0-.549-.075 0-.513.694-1.024.695-.511.767-1.28.767-1.28l.262-1.665h8.305l.26 1.666s.074.768.77 1.28c.693.512 1.24.95.694 1.023zM42.37 61.63c2.218-.017 2.494-.552 3.217-2.78 1.334-3.517 7.341.92 3.618 2.46-3.722 1.542-9.055.338-6.836.32zm22.664-19.077L51.652 57.117c-1.124 1.395-.864 1.333-1.94.465-1.077-.867-1.083-.6.04-1.995l11.384-16.178c1.124-1.395 2.907-1.822 3.984-.954 1.077.867 1.038 2.701-.086 4.097zm-1.096-3.908s-1.635-.249-2.466 1.11c.555.443.721.637.721.637s.195-.831 1.745-1.747zm7.834 6.881v23.262c0 .886-.718 1.605-1.604 1.605H33.28a1.604 1.604 0 0 1-1.603-1.605V45.525c0-.885.718-1.604 1.603-1.604h23.022l-1.695 2.406H34.084V65.58h35.282V46.327h-6.415l2.211-2.406h5.006c.886 0 1.604.719 1.604 1.604z"/>
	</g>
	</g>
</svg>