<svg xmlns="http://www.w3.org/2000/svg" width="101" height="116" viewBox="0 0 101 116">
	<g>
	<g>
	<path fill="#fe8682" d="M.398 29.002L50.582.004l50.185 28.998v57.995l-50.185 28.998L.398 86.997z"/>
	</g>
	<g>
	<path fill="#fc635e" d="M5.417 32.002L50.582 6.003l45.166 25.999v51.995l-45.166 25.999L5.417 83.997z"/>
	</g>
	<g>
	<path fill="#fff" d="M69 42.894v29.211A3.906 3.906 0 0 1 65.11 76H35.895A3.908 3.908 0 0 1 32 72.105V42.894a3.905 3.905 0 0 1 3.895-3.895H65.11c2.138 0 3.89 1.75 3.89 3.895zM36.225 63.745h28.55V44.27h-28.55zm30.101 5.475H46.395a3.331 3.331 0 0 0-3.239-2.567 3.332 3.332 0 0 0-3.238 2.567h-5.242v1.542h5.246a3.326 3.326 0 0 0 3.234 2.56 3.327 3.327 0 0 0 3.235-2.56h19.935zm-12.42-22.127h3.982v13.36h-3.981zM42.922 52.23h3.983v8.223H42.92zm5.493-2.183h3.984v10.406h-3.984z"/>
	</g>
	</g>
</svg>