<?xml version="1.0" standalone="no"?>
<!DOCTYPE svg PUBLIC "-//W3C//DTD SVG 1.1//EN" "http://www.w3.org/Graphics/SVG/1.1/DTD/svg11.dtd" >
<svg>
<metadata>
Created by FontForge 20090914 at Mon Sep  7 16:36:25 2020
 By www-data
Copyright (c) 2005-2009 Parachute&#194;&#168;, www.parachute.gr.  All rights reserved.
</metadata>
<defs>
<font id="PFEncoreSansPro-Medium" horiz-adv-x="1818" >
  <font-face 
    font-family="PF Encore Sans Pro Medium"
    font-weight="700"
    font-stretch="normal"
    units-per-em="1000"
    panose-1="2 0 5 3 0 0 0 2 0 4"
    ascent="750"
    descent="-250"
    x-height="484.999"
    cap-height="677"
    bbox="-395 -288.999 1760 947.002"
    underline-thickness="60"
    underline-position="-175"
    unicode-range="U+0020-U+FB05"
  />
<missing-glyph horiz-adv-x="447" 
d="M1 0v700h445v-700h-445zM96 61h255l-127 232zM224 407l127 232h-255zM62 577v-455l126 228zM260 350l125 -228v455z" />
    <glyph glyph-name="fj" unicode="fj" horiz-adv-x="566" 
d="M368 -204h-64v94h21c20 0 33.5 4.66699 40.5 14s10.5 24.333 10.5 45v454h-164v-403h-117v403h-78v65l77 17v49c0 66.667 18.5 114.834 55.5 144.501s86.833 44.5 149.5 44.5c42.667 0 88 -4.33301 136 -13v-89c-58 6 -94.333 9 -109 9
c-40 0 -69.167 -7.83301 -87.5 -23.5s-27.5 -41.834 -27.5 -78.501v-43h283v-549c0 -44 -9.5 -78.333 -28.5 -103s-51.5 -37 -97.5 -37z" />
    <glyph glyph-name="ffj" unicode="ffj" horiz-adv-x="854" 
d="M380 403l-168 -0.00195312v-403h-117v403h-78v66l78 15v59c0 58.667 14.167 100.834 42.5 126.501s70.833 38.5 127.5 38.5c26.667 0 55 -3.33301 85 -10c0 -9.33301 -0.166992 -23.5 -0.5 -42.5s-0.5 -33.167 -0.5 -42.5c-24.667 2.66699 -46 4 -64 4
c-28 0 -47.167 -5.33301 -57.5 -16s-15.5 -31.667 -15.5 -63v-53h168v50c0 66 18.167 114.167 54.5 144.5s85.166 45.5 146.499 45.5c41.333 0 88 -4.66699 140 -14v-89c-43.333 6 -79.666 9 -108.999 9c-40.667 0 -70 -7.66699 -88 -23s-27 -41.666 -27 -78.999v-44h282
v-549c0 -44.667 -9.33301 -79.167 -28 -103.5s-51 -36.5 -97 -36.5h-64v94h20c20.667 0 34.5 4.66699 41.5 14s10.5 24.333 10.5 45v454h-165v-403h-117v403z" />
    <glyph glyph-name="fb" unicode="fb" horiz-adv-x="905" 
d="M646 -7c-31.333 0 -60.667 5.99805 -88 17.998s-47.666 30 -60.999 54h-4c0 -28 -5 -49.667 -15 -65h-93v623c-16.667 2.66699 -36.334 4 -59.001 4c-41.333 0 -70.833 -6.66699 -88.5 -20s-26.5 -38.333 -26.5 -75v-47h132v-82h-131v-403h-117v403h-78v65l77 17v51
c0 124 69.333 186 208 186c26 0 64.667 -3.66699 116 -11l84 -1v-198c0 -43.333 -3.66699 -76.666 -11 -99.999h6c37.333 54.667 90 82 158 82c133.333 0 200 -84 200 -252c0 -73.333 -16.667 -133.166 -50 -179.499s-86.333 -69.5 -159 -69.5zM620.999 402.998
c-41.333 0 -71.667 -14.5 -91 -43.5s-29 -62.833 -29 -101.5v-48c0 -38 10.333 -69.167 31 -93.5s49 -36.5 85 -36.5c79.333 0 119 54 119 162c0 107.333 -38.333 161 -115 161z" />
    <glyph glyph-name="ffb" unicode="ffb" horiz-adv-x="1186" 
d="M902 403c-41.333 0 -71.668 -14.5 -91.001 -43.5s-29 -62.833 -29 -101.5v-48c0 -38 10.333 -69.167 31 -93.5s49.334 -36.5 86.001 -36.5c78.667 0 118 54 118 162c0 107.333 -38.333 161 -115 161zM782.998 710l-0.00292969 -198.004
c0 -43.333 -3.66699 -76.666 -11 -99.999h6c37.333 54.667 90.333 82 159 82s119.167 -22.167 151.5 -66.5s48.5 -106.166 48.5 -185.499c0 -47.333 -6.33301 -88.833 -19 -124.5s-35.167 -65.334 -67.5 -89.001s-73.5 -35.5 -123.5 -35.5c-31.333 0 -60.666 6 -87.999 18
s-47.333 30 -60 54h-5c0 -28 -5 -49.667 -15 -65h-93v623c-16.667 2.66699 -36 4 -58 4c-39.333 0 -67.666 -6.66699 -84.999 -20s-26 -38.333 -26 -75v-47h127v-82h-126v-403h-117v403h-169v-403h-117v403h-78v66l78 15v56c0 58.667 14.167 100.834 42.5 126.501
s70.833 38.5 127.5 38.5c26.667 0 55 -3.33301 85 -10c0 -9.33301 -0.166992 -23.666 -0.5 -42.999s-0.5 -33.666 -0.5 -42.999c-31.333 3.33301 -52.666 5 -63.999 5c-28 0 -47.167 -5.33301 -57.5 -16s-15.5 -31.667 -15.5 -63v-50h168v51c0 124 69.333 186 208 186
c26 0 64.667 -3.66699 116 -11z" />
    <glyph glyph-name="fh" unicode="fh" horiz-adv-x="892" 
d="M500 516c0 -46.667 -4.00195 -83 -12.002 -109h5c16 28.667 38.833 50.167 68.5 64.5s60.834 21.5 93.501 21.5c36.667 0 67.5 -5.33301 92.5 -16s43.5 -26.167 55.5 -46.5s20.167 -41.333 24.5 -63s6.5 -47.167 6.5 -76.5v-291h-119v284
c0 39.333 -7.16699 69.5 -21.5 90.5s-39.5 31.5 -75.5 31.5c-23.333 0 -43.166 -5.33301 -59.499 -16s-28.333 -24.667 -36 -42s-13 -34 -16 -50s-4.5 -32.333 -4.5 -49v-249h-117v623c-18 2.66699 -37.667 4 -59 4c-41.333 0 -70.833 -6.66699 -88.5 -20
s-26.5 -38.333 -26.5 -75v-47h129v-82h-129v-403h-117v403h-77v65l77 17v51c0 124 69 186 207 186c26.667 0 65.667 -3.66699 117 -11h82v-195z" />
    <glyph glyph-name="ffh" unicode="ffh" horiz-adv-x="1173" 
d="M588 722c32 0 69.333 -3.66797 112 -11.001h82v-195c0 -46.667 -4 -83 -12 -109h4c16.667 28.667 39.834 50.167 69.501 64.5s60.5 21.5 92.5 21.5c37.333 0 68.333 -5.33301 93 -16s43 -26.167 55 -46.5s20.167 -41.333 24.5 -63s6.5 -47.167 6.5 -76.5v-291h-118v284
c0 40 -7.16699 70.333 -21.5 91s-39.833 31 -76.5 31c-38.667 0 -67.5 -14.333 -86.5 -43s-28.5 -61 -28.5 -97v-266h-118v623c-15.333 2.66699 -34 4 -56 4c-39.333 0 -68 -6.83301 -86 -20.5s-27 -38.5 -27 -74.5v-47h125v-81h-124v-404h-117v404h-169v-404h-117v404h-77
v66l77 14v56c0 58.667 14.167 100.834 42.5 126.501s71.166 38.5 128.499 38.5c29.333 0 57.333 -3 84 -9l-1 -87c-30 3.33301 -51.333 5 -64 5c-28 0 -47.167 -5.33301 -57.5 -16s-15.5 -31.667 -15.5 -63v-50h168v51c0 124 69.333 186 208 186z" />
    <glyph glyph-name="fk" unicode="fk" horiz-adv-x="841" 
d="M502 312l63 0.00195312l143 173h128l-183 -218l96 -134l97 -133h-138l-151 219h-55v-219h-116c0 69.333 -0.166992 173.166 -0.5 311.499s-0.5 242.166 -0.5 311.499c-16.667 2.66699 -36.334 4 -59.001 4c-41.333 0 -70.833 -6.66699 -88.5 -20s-26.5 -38.333 -26.5 -75
v-47h129v-82h-128v-403h-117v403h-78v65l77 17v51c0 124 69.333 186 208 186c28.667 0 67.334 -3.66699 116.001 -11h84v-399z" />
    <glyph glyph-name="ffk" unicode="ffk" horiz-adv-x="1122" 
d="M381 403l-168.999 -0.00195312v-403h-117v403h-78v66l78 15v56c0 58.667 14.167 100.834 42.5 126.501s70.833 38.5 127.5 38.5c26.667 0 55 -3.33301 85 -10c0 -9.33301 -0.166992 -23.5 -0.5 -42.5s-0.5 -33.167 -0.5 -42.5c-24.667 2.66699 -46 4 -64 4
c-28 0 -47.167 -5.33301 -57.5 -16s-15.5 -31.667 -15.5 -63v-50h168v51c0 124 69 186 207 186c23.333 0 60.666 -3.66699 111.999 -11h84v-400h63l143 174h129l-184 -218l92.5 -128.5l100.5 -138.5h-138l-151 219h-55v-219h-116c0 68.667 -0.166992 172.334 -0.5 311.001
s-0.5 242.667 -0.5 312c-24 2.66699 -43 4 -57 4c-37.333 0 -65.333 -7 -84 -21s-28 -38.667 -28 -74v-47h124v-82h-123v-403h-117v403z" />
    <glyph glyph-name="r_y" unicode="ry" horiz-adv-x="786" 
d="M531 86l6.99707 -0.000976562l52 175l69 224h115l-166 -491c-12 -35.333 -22.167 -62.5 -30.5 -81.5s-20.166 -39.167 -35.499 -60.5s-34 -36.666 -56 -45.999s-48.333 -14 -79 -14h-66v91h51c28.667 0 49 6.16699 61 18.5s24.667 35.833 38 70.5l10 28
c-19.333 0 -34 -0.333008 -44 -1c-1.33301 6 -19.666 65.667 -54.999 179l-66 211c-105.333 -2.66699 -158 -53 -158 -151v-238h-118v486h94c12.667 -25.333 19 -56.333 19 -93h5c36 68.667 104.333 103 205 103c17.333 0 30.333 -0.333008 39 -1l65 -238
c26.667 -100.667 41.334 -157.667 44.001 -171z" />
    <glyph glyph-name="ff" unicode="ff" horiz-adv-x="661" 
d="M508 485h139.998v-81h-140v-404h-117v404h-177v-404h-117v404h-77v66l77 14v56c0 58 13.5 100.167 40.5 126.5s70.167 39.5 129.5 39.5c32 0 61 -3.33301 87 -10v-87c-32 4 -54.667 6 -68 6c-27.333 0 -46.166 -5.5 -56.499 -16.5s-15.5 -32.167 -15.5 -63.5v-50h177v73
c0 58 13.5 100.167 40.5 126.5s70.167 39.5 129.5 39.5c32.667 0 63.334 -3.66699 92.001 -11l-1 -86c-30.667 4 -54.667 6 -72 6c-26.667 0 -45.167 -5.5 -55.5 -16.5s-15.833 -32.167 -16.5 -63.5v-68z" />
    <glyph glyph-name="fi" unicode="fi" horiz-adv-x="566" 
d="M94 485l0.000976562 49c0 126.667 69.333 190 208 190c39.333 0 83.666 -4.66699 132.999 -14v-89c-58 6 -94.333 9 -109 9c-40.667 0 -70 -7.5 -88 -22.5s-27 -41.5 -27 -79.5v-43h283v-485h-118v403h-164v-403h-117v403h-78v65z" />
    <glyph glyph-name="fl" unicode="fl" horiz-adv-x="573" 
d="M349 485l0.00195312 -81h-137v-404h-117v404h-77v65l76 16v51c0 124 69.333 186 208 186c33.333 0 74.666 -4 123.999 -12h75v-710h-115v624c-18.667 2 -38.334 3 -59.001 3c-42 0 -71.833 -6.66699 -89.5 -20s-26.5 -38.333 -26.5 -75v-47h138z" />
    <glyph glyph-name="ffi" unicode="ffi" horiz-adv-x="854" 
d="M380 485v49.9971c0 126 69.667 189 209 189c42 0 86 -4.33301 132 -13v-89c-5.33301 0.666992 -13.833 1.83398 -25.5 3.50098s-23.667 3 -36 4s-24.5 1.5 -36.5 1.5c-46 0 -78.5 -7.16699 -97.5 -21.5s-28.5 -41.166 -28.5 -80.499v-44h282v-485h-117v403h-165v-403
h-117v403h-168v-403h-117v403h-78v66l78 15v59c0 58.667 14.167 100.834 42.5 126.501s70.833 38.5 127.5 38.5c26.667 0 55 -3.33301 85 -10c0 -9.33301 -0.166992 -23.5 -0.5 -42.5s-0.5 -33.167 -0.5 -42.5c-24.667 2.66699 -46 4 -64 4
c-28 0 -47.167 -5.33301 -57.5 -16s-15.5 -31.667 -15.5 -63v-53h168z" />
    <glyph glyph-name="ffl" unicode="ffl" horiz-adv-x="859" 
d="M381 403l-169 -0.000976562v-403h-117v403h-78v66l78 15v56c0 58.667 14.167 100.834 42.5 126.501s70.833 38.5 127.5 38.5c26.667 0 55 -3.33301 85 -10c0 -9.33301 -0.166992 -23.5 -0.5 -42.5s-0.5 -33.167 -0.5 -42.5c-24.667 2.66699 -46 4 -64 4
c-28 0 -47.167 -5.33301 -57.5 -16s-15.5 -31.667 -15.5 -63v-50h168v51c0 122.667 70 184 210 184c36 0 80 -3.66699 132 -11h59v-709h-114v623c-24 2.66699 -43.333 4 -58 4c-37.333 0 -65.333 -7 -84 -21s-28 -38.667 -28 -74v-47h133v-82h-132v-403h-117v403z" />
    <glyph glyph-name="ft" unicode="ft" horiz-adv-x="690" 
d="M505 618v-132.001h140v-83h-140v-238c0 -31.333 6 -52.833 18 -64.5s33.333 -17.5 64 -17.5c30 0 55.333 1.66699 76 5v-86c-30 -6 -64 -9 -102 -9c-60.667 0 -104.5 12.667 -131.5 38s-40.5 69.666 -40.5 132.999v239h-175v-403h-117v403h-78v66l78 15v71
c0 58 13.5 100.167 40.5 126.5s70.167 39.5 129.5 39.5c36 0 67.667 -3.66699 95 -11c0 -9.33301 -0.166992 -23.666 -0.5 -42.999s-0.5 -33.666 -0.5 -42.999c-26 3.33301 -51.333 5 -76 5c-26.667 0 -45.167 -5.33301 -55.5 -16s-15.5 -31.667 -15.5 -63v-65h181l27 133
h83z" />
    <glyph glyph-name=".notdef" horiz-adv-x="447" 
d="M1 0v700h445v-700h-445zM96 61h255l-127 232zM224 407l127 232h-255zM62 577v-455l126 228zM260 350l125 -228v455z" />
    <glyph glyph-name="space" unicode=" " horiz-adv-x="304" 
 />
    <glyph glyph-name="exclam" unicode="!" horiz-adv-x="322" 
d="M209 183h-93l-13 494h122zM94 58c0 19.333 6.66699 35.666 20 48.999s29.666 20 48.999 20s35.666 -6.66699 48.999 -20s20 -29.666 20 -48.999s-6.66699 -35.666 -20 -48.999s-29.666 -20 -48.999 -20s-35.666 6.66699 -48.999 20s-20 29.666 -20 48.999z" />
    <glyph glyph-name="quotedbl" unicode="&#x22;" horiz-adv-x="387" 
d="M304 435h-76l-11 236h101zM163 435h-76l-13 236h100z" />
    <glyph glyph-name="numbersign" unicode="#" horiz-adv-x="630" 
d="M586 388h-111l-22 -123h111l-12 -68h-112l-32 -197h-88l36 197h-121l-35 -197h-87l35 197h-110l10 68h111l22 123h-110l12 67h111l32 185h85l-32 -185h123l31 185h85l-31 -185h109zM268 388l-22 -123h120l23 123h-121z" />
    <glyph glyph-name="dollar" unicode="$" horiz-adv-x="630" 
d="M380 722v-79.001c52.667 -8 95.667 -26.5 129 -55.5s50 -67.167 50 -114.5c0 -6.66699 -0.666992 -14 -2 -22h-102c-2 47.333 -27 79.333 -75 96v-171c66 -16.667 114.167 -39.667 144.5 -69s45.5 -68.666 45.5 -117.999s-16.5 -90.5 -49.5 -123.5
s-79.833 -52.5 -140.5 -58.5v-79h-48v794h48zM252 -72.001v78c-58 8.66699 -104.667 29.167 -140 61.5s-53 74.166 -53 125.499c0 9.33301 0.333008 16 1 20h105c1.33301 -57.333 30.333 -94.666 87 -111.999v198c-58.667 12 -103 30.5 -133 55.5s-45 62.833 -45 113.5
c0 40 14.167 77.5 42.5 112.5s73.5 56.5 135.5 64.5v77h45v-794h-45zM461 184.999c0 43.333 -27.001 74 -81.001 92v-179c24.667 5.33301 44.334 15.833 59.001 31.5s22 34.167 22 55.5zM180.999 469.999c0 -18.667 5.66699 -33.332 17 -43.999s29.333 -19.334 54 -26.001
v148c-47.333 -10.667 -71 -36.667 -71 -78z" />
    <glyph glyph-name="percent" unicode="%" horiz-adv-x="898" 
d="M275 -28h-84l426 734h86zM202 683c66.667 0 114.5 -19.3291 143.5 -57.9961s43.5 -88.334 43.5 -149.001c0 -56.667 -14.667 -103.834 -44 -141.501s-77 -56.5 -143 -56.5c-67.333 0 -115.333 17.167 -144 51.5s-43 83.166 -43 146.499s15.5 113.666 46.5 150.999
s77.833 56 140.5 56zM201 609.004c-60 0 -90 -44.333 -90 -133c0 -83.333 30 -125 90 -125c59.333 0 89 41.667 89 125c0 88.667 -29.667 133 -89 133zM695 400.004c66.667 0 114.5 -19.165 143.5 -57.498s43.5 -87.833 43.5 -148.5
c0 -56.667 -14.667 -103.834 -44 -141.501s-77 -56.5 -143 -56.5c-68 0 -116.167 17.167 -144.5 51.5s-42.5 83.166 -42.5 146.499s15.333 113.5 46 150.5s77.667 55.5 141 55.5zM694 326.006c-60 0 -90 -44 -90 -132c0 -83.333 30 -125 90 -125c59.333 0 89 41.667 89 125
c0 88 -29.667 132 -89 132z" />
    <glyph glyph-name="ampersand" unicode="&#x26;" horiz-adv-x="771" 
d="M657 -40c-40.667 22 -80.3291 46.6631 -118.996 73.9961c-64 -35.333 -138.333 -53 -223 -53c-72.667 0 -132.334 15.833 -179.001 47.5s-70 78.834 -70 141.501c0 37.333 11.667 75 35 113s57.666 71.667 102.999 101c-43.333 49.333 -65 97.333 -65 144
c0 41.333 15.667 77.833 47 109.5s72.666 47.5 123.999 47.5s92 -13.667 122 -41s45 -61.666 45 -102.999c0 -62 -42.333 -122.333 -127 -181c56.667 -76 121 -145.333 193 -208c44.667 45.333 67 96.333 67 153c0 28.667 -6.16699 52.834 -18.5 72.501
s-34.833 36.5 -67.5 50.5c1.33301 3.33301 5.5 14.833 12.5 34.5s11.167 30.834 12.5 33.501c49.333 -7.33301 88.666 -27.5 117.999 -60.5s44 -74.5 44 -124.5c0 -36 -8 -73.333 -24 -112s-39.333 -73.667 -70 -105c30 -22.667 61 -43.667 93 -63l-27 -35.5
c-12 -15.667 -20.667 -27.5 -26 -35.5zM265.005 310.996c-26 -16 -47 -36.001 -63 -60.001s-24 -48 -24 -72c0 -33.333 13.333 -59.833 40 -79.5s61.667 -29.5 105 -29.5c50.667 0 96.667 8.66699 138 26c-60.667 54.667 -126 126.334 -196 215.001zM309.005 595.995
c-19.333 0 -33.833 -7.33203 -43.5 -21.999s-14.5 -29.334 -14.5 -44.001c0 -24 14 -57 42 -99c45.333 34 68 70.333 68 109c0 18 -4.66699 31.833 -14 41.5s-22 14.5 -38 14.5z" />
    <glyph glyph-name="quotesingle" unicode="'" horiz-adv-x="283" 
d="M180 435h-76l-13 236h100z" />
    <glyph glyph-name="parenleft" unicode="(" horiz-adv-x="323" 
d="M158 303c0 -135.333 47.668 -260.333 143.001 -375l-60 -52c-58 58.667 -105.167 125.167 -141.5 199.5s-54.5 148.5 -54.5 222.5c0 76 18 151.167 54 225.5s83 141.833 141 202.5l65 -51c-44.667 -53.333 -80.334 -112.833 -107.001 -178.5s-40 -130.167 -40 -193.5z
" />
    <glyph glyph-name="parenright" unicode=")" horiz-adv-x="323" 
d="M170 303c0 63.333 -13.333 127.834 -40 193.501s-62.334 125.167 -107.001 178.5l65 51c57.333 -60.667 104 -128.334 140 -203.001s54 -149.667 54 -225c0 -74 -18.167 -148 -54.5 -222s-83.166 -140.667 -140.499 -200l-61 52c96 114 144 239 144 375z" />
    <glyph glyph-name="asterisk" unicode="*" horiz-adv-x="471" 
d="M305 472l80 -95l-84 -59l-64 100c-2 -4 -12.333 -21.167 -31 -51.5s-28.667 -46.5 -30 -48.5l-87 58l79 98l-120 35l31 86l112 -46l-4 116h102l-7 -116l55.5 23l55.5 23l36 -86z" />
    <glyph glyph-name="plus" unicode="+" horiz-adv-x="630" 
d="M366 229v-152h-102v152h-160v86h160v160h102v-160h159v-86h-159z" />
    <glyph glyph-name="comma" unicode="," horiz-adv-x="274" 
d="M60 66c0 21.333 7.5 39.332 22.5 53.999s33.167 22 54.5 22c22 0 40.167 -7 54.5 -21s21.5 -31.667 21.5 -53c0 -15.333 -3.66699 -29.666 -11 -42.999l-106 -214l-42 16l56 168c-14.667 4.66699 -26.667 13.5 -36 26.5s-14 27.833 -14 44.5z" />
    <glyph glyph-name="hyphen" unicode="-" horiz-adv-x="496" 
d="M93 210v94h309v-94h-309z" />
    <glyph glyph-name="period" unicode="." horiz-adv-x="270" 
d="M59 65c0 21.333 7.33301 39.333 22 54s32.667 22 54 22s39.333 -7.33301 54 -22s22 -32.667 22 -54s-7.33301 -39.333 -22 -54s-32.667 -22 -54 -22s-39.333 7.33301 -54 22s-22 32.667 -22 54z" />
    <glyph glyph-name="slash" unicode="/" horiz-adv-x="556" 
d="M108 -44h-104l444 761h104z" />
    <glyph glyph-name="zero" unicode="0" horiz-adv-x="630" 
d="M317 658c52 0 96.666 -9.00195 133.999 -27.002s66.333 -43.333 87 -76s35.5 -68.167 44.5 -106.5s13.5 -81.166 13.5 -128.499c0 -43.333 -4.66699 -83.666 -14 -120.999s-24.333 -72 -45 -104s-49.834 -57.167 -87.501 -75.5s-82.167 -27.5 -133.5 -27.5
c-52.667 0 -97.667 7.83301 -135 23.5s-66.666 38.334 -87.999 68.001s-36.833 63.667 -46.5 102s-14.5 82.833 -14.5 133.5c0 105.333 23.333 188.166 70 248.499s118.334 90.5 215.001 90.5zM314.999 564.998c-60 0 -102.501 -21.168 -127.501 -63.501
s-37.5 -103.166 -37.5 -182.499c0 -156.667 55 -235 165 -235c50.667 0 90.334 19.5 119.001 58.5s43 98.167 43 177.5c0 163.333 -54 245 -162 245z" />
    <glyph glyph-name="one" unicode="1" horiz-adv-x="630" 
d="M545 93v-93h-460v93h169v446l-142 -21v76l163 55h97v-556h173z" />
    <glyph glyph-name="two" unicode="2" horiz-adv-x="630" 
d="M315 659c82 0 142.333 -16.167 181 -48.5s58 -74.5 58 -126.5c0 -36 -11.667 -69.667 -35 -101s-52.333 -58.5 -87 -81.5l-104 -66c-34.667 -21 -65.5 -43.833 -92.5 -68.5s-42.833 -49.667 -47.5 -75h377v-92h-501v50c0 63.333 17.833 114.833 53.5 154.5
s94.5 82.834 176.5 129.501c22.667 13.333 39.667 23.666 51 30.999s25.333 17.5 42 30.5s28.667 26.333 36 40s11 28.167 11 43.5c0 24 -10.333 44.333 -31 61s-48.667 25 -84 25c-30 0 -58.5 -9.66699 -85.5 -29s-41.5 -50 -43.5 -92h-108
c-1.33301 14.667 -2 24.667 -2 30c0 56 23.333 100.833 70 134.5s101.667 50.5 165 50.5z" />
    <glyph glyph-name="three" unicode="3" horiz-adv-x="630" 
d="M302 -8c-69.333 0 -126.167 13.834 -170.5 41.501s-66.5 68.167 -66.5 121.5c0 10 1 21 3 33h107c4 -40 17.5 -67.333 40.5 -82s52.5 -22 88.5 -22c43.333 0 78.166 10.833 104.499 32.5s39.5 54.167 39.5 97.5c0 76 -59.667 114 -179 114
c-17.333 0 -30.333 -0.333008 -39 -1l-39 66l185 157l-4 7h-276v92h451v-80l-193 -160l3 -4c64.667 -4 115.834 -22.167 153.501 -54.5s56.5 -77.833 56.5 -136.5c0 -68.667 -24.167 -122.834 -72.5 -162.501s-112.5 -59.5 -192.5 -59.5z" />
    <glyph glyph-name="four" unicode="4" horiz-adv-x="630" 
d="M377 650h108v-406h104v-91h-104v-153h-116v153h-329v80zM176 249l1 -5h192v237h-6z" />
    <glyph glyph-name="five" unicode="5" horiz-adv-x="630" 
d="M303 -8c-68.667 0 -125 13.834 -169 41.501s-66 68.167 -66 121.5c0 14 1 25 3 33h106c6.66699 -69.333 48.667 -104 126 -104c44 0 79 11.167 105 33.5s39 55.166 39 98.499c0 85.333 -50.667 128 -152 128c-50 0 -94 -9.66699 -132 -29l-65 41l47 293h390v-92h-294
l-22 -132c26 6 51.667 9 77 9c82 0 147.5 -17.5 196.5 -52.5s73.5 -90.833 73.5 -167.5c0 -68 -24.167 -122 -72.5 -162s-111.833 -60 -190.5 -60z" />
    <glyph glyph-name="six" unicode="6" horiz-adv-x="630" 
d="M330 659c64.667 0 116.497 -13.5 155.497 -40.5s58.5 -62.167 58.5 -105.5c0 -6 -0.666992 -13 -2 -21h-107c-10 50.667 -46.333 76 -109 76c-51.333 0 -89.166 -20 -113.499 -60s-37.166 -92.333 -38.499 -157l4 -1c16.667 24.667 39.5 43.167 68.5 55.5
s58.5 18.5 88.5 18.5c72 0 128.333 -18.333 169 -55s61 -89.334 61 -158.001c0 -64 -22 -116.333 -66 -157s-104.667 -61 -182 -61c-170.667 3.33301 -256 106.333 -256 309c0 35.333 2.16699 68.333 6.5 99s12.5 62.334 24.5 95.001s27.667 60.667 47 84
s45.333 42.333 78 57s70.334 22 113.001 22zM321.997 85c44 0 76.167 12.332 96.5 36.999s30.5 55 30.5 91c0 38 -10.833 67.5 -32.5 88.5s-53.167 31.5 -94.5 31.5c-37.333 0 -67.333 -11 -90 -33s-34 -51.667 -34 -89c0 -35.333 10.333 -65.166 31 -89.499
s51.667 -36.5 93 -36.5z" />
    <glyph glyph-name="seven" unicode="7" horiz-adv-x="630" 
d="M74 556v93h476v-76l-279 -573h-128l273 556h-342z" />
    <glyph glyph-name="eight" unicode="8" horiz-adv-x="630" 
d="M455 353l-1.00098 -5c76.667 -30 115 -85 115 -165c0 -52.667 -23 -97.5 -69 -134.5s-108 -55.5 -186 -55.5c-77.333 0 -139 17 -185 51s-69 80.333 -69 139c0 31.333 9 62.833 27 94.5s48.333 55.834 91 72.501v4c-34 12.667 -58.167 31.667 -72.5 57s-21.5 50 -21.5 74
c0 44 20 84.167 60 120.5s96.667 54.5 170 54.5c43.333 0 80.833 -5.33301 112.5 -16s55.834 -25 72.501 -43s28.667 -36.667 36 -56s11 -39.333 11 -60c0 -22 -7.33301 -45.833 -22 -71.5s-37.667 -45.834 -69 -60.501zM451.999 182c0 32.667 -11.502 60.167 -34.502 82.5
s-56.5 36.833 -100.5 43.5c-43.333 -8 -77.166 -23.167 -101.499 -45.5s-36.5 -49.166 -36.5 -80.499c0 -32.667 13.833 -57.334 41.5 -74.001s58.834 -25 93.501 -25c38 0 70.5 8.5 97.5 25.5s40.5 41.5 40.5 73.5zM313.997 567c-31.333 0 -57.5 -7.33203 -78.5 -21.999
s-31.5 -35.334 -31.5 -62.001c0 -45.333 38 -78.333 114 -99c31.333 6.66699 57.333 19.5 78 38.5s31 39.167 31 60.5c0 28 -10 49 -30 63s-47.667 21 -83 21z" />
    <glyph glyph-name="nine" unicode="9" horiz-adv-x="630" 
d="M296 -7c-65.333 0 -118.666 13.667 -159.999 41s-62 62.666 -62 105.999c0 9.33301 0.333008 16.333 1 21h107c4.66699 -23.333 17.334 -42 38.001 -56s47 -21 79 -21c51.333 0 90.5 18.167 117.5 54.5s40.833 89.833 41.5 160.5l-5 1
c-16.667 -23.333 -38.834 -41.166 -66.501 -53.499s-56.834 -18.5 -87.501 -18.5c-71.333 0 -127.5 18.333 -168.5 55s-61.5 88.667 -61.5 156c0 64.667 21.667 117.5 65 158.5s103.666 61.5 180.999 61.5c82.667 0 146.334 -27 191.001 -81s67 -133 67 -237
c0 -232 -92.333 -348 -277 -348zM312 567c-44 0 -76.167 -12.332 -96.5 -36.999s-30.5 -55 -30.5 -91c0 -38 10.833 -67.5 32.5 -88.5s53.167 -31.5 94.5 -31.5c37.333 0 67.333 11 90 33s34 51.667 34 89c0 35.333 -10.333 65.166 -31 89.499s-51.667 36.5 -93 36.5z" />
    <glyph glyph-name="colon" unicode=":" horiz-adv-x="270" 
d="M59 65c0 21.333 7.33301 39.333 22 54s32.667 22 54 22s39.333 -7.33301 54 -22s22 -32.667 22 -54s-7.33301 -39.333 -22 -54s-32.667 -22 -54 -22s-39.333 7.33301 -54 22s-22 32.667 -22 54zM59 349c0 21.333 7.33301 39.333 22 54s32.667 22 54 22
s39.333 -7.33301 54 -22s22 -32.667 22 -54s-7.33301 -39.333 -22 -54s-32.667 -22 -54 -22s-39.333 7.33301 -54 22s-22 32.667 -22 54z" />
    <glyph glyph-name="semicolon" unicode=";" horiz-adv-x="270" 
d="M59 349c0 21.333 7.33301 39.333 22 54s32.667 22 54 22s39.333 -7.33301 54 -22s22 -32.667 22 -54s-7.33301 -39.333 -22 -54s-32.667 -22 -54 -22s-39.333 7.33301 -54 22s-22 32.667 -22 54zM59 66c0 21.333 7.33301 39.333 22 54s32.667 22 54 22
c22 0 40.167 -7 54.5 -21s21.5 -31.667 21.5 -53c0 -16 -3.33301 -30.333 -10 -43l-107 -214l-41 16l56 168c-14.667 4.66699 -26.667 13.5 -36 26.5s-14 27.833 -14 44.5z" />
    <glyph glyph-name="less" unicode="&#x3c;" horiz-adv-x="630" 
d="M102 236v72l200 93l225 106v-101l-301 -133l301 -134v-100z" />
    <glyph glyph-name="equal" unicode="=" horiz-adv-x="630" 
d="M525 152h-422v84h422v-84zM525 318h-422v85h422v-85z" />
    <glyph glyph-name="greater" unicode="&#x3e;" horiz-adv-x="630" 
d="M527 308v-72l-425 -197v100l302 134l-302 133v101l224.5 -105.5z" />
    <glyph glyph-name="question" unicode="?" horiz-adv-x="514" 
d="M246 702c70 0 123.999 -14.1689 161.999 -42.502s57 -70.166 57 -125.499c0 -52 -32.333 -108 -97 -168c-21.333 -20 -37.166 -35.667 -47.499 -47s-20.5 -27.333 -30.5 -48s-15 -42.334 -15 -65.001v-31h-106v22c0 80 31.667 148.333 95 205c54 48 81 90.667 81 128
c0 24 -8.66699 43.333 -26 58s-41.333 22 -72 22c-60.667 0 -95 -32 -103 -96h-106c-1.33301 10.667 -2 18.667 -2 24c0 36.667 10.667 67.834 32 93.501s47.333 43.834 78 54.501s64 16 100 16zM151.999 57.998c0 19.333 6.66699 35.666 20 48.999s29.666 20 48.999 20
s35.666 -6.66699 48.999 -20s20 -29.666 20 -48.999s-6.66699 -35.5 -20 -48.5s-29.666 -19.5 -48.999 -19.5s-35.666 6.5 -48.999 19.5s-20 29.167 -20 48.5z" />
    <glyph glyph-name="at" unicode="@" horiz-adv-x="930" 
d="M428 195c32 0 57.5 9 76.5 27s28.5 38 28.5 60v22c-18.667 3.33301 -41.334 5 -68.001 5c-66.667 0 -100 -21.333 -100 -64c0 -14.667 5.83301 -26.667 17.5 -36s26.834 -14 45.501 -14zM546 184h-5.00293c-15.333 -22.667 -35.666 -39 -60.999 -49s-50.333 -15 -75 -15
c-43.333 0 -77.833 10.167 -103.5 30.5s-38.5 50.833 -38.5 91.5c0 88.667 65.333 133 196 133c18.667 0 43.334 -1.33301 74.001 -4v19c0 46.667 -26.333 70 -79 70c-40 0 -63 -15 -69 -45h-90c-0.666992 3.33301 -1 8 -1 14c0 36.667 16.5 63.667 49.5 81
s70.5 26 112.5 26c116 0 174 -47 174 -141v-156c0 -24.667 13.667 -37 41 -37c65.333 0 98 52 98 156c0 58 -14.167 108.5 -42.5 151.5s-64.166 74.5 -107.499 94.5s-90.333 30 -141 30c-90.667 0 -166 -29 -226 -87s-90 -132.333 -90 -223c0 -91.333 30.167 -166 90.5 -224
s137.5 -87 231.5 -87c40.667 0 77.167 2.66699 109.5 8s70.833 17 115.5 35l26 -75c-84.667 -30.667 -166.667 -46 -246 -46c-122 0 -222 35.333 -300 106s-117 165 -117 283c0 108.667 38.167 200.167 114.5 274.5s172.833 111.5 289.5 111.5
c112 0 203.5 -30.833 274.5 -92.5s106.5 -145.5 106.5 -251.5c0 -81.333 -17.333 -142.833 -52 -184.5s-83.667 -62.5 -147 -62.5c-13.333 0 -26.833 1.5 -40.5 4.5s-28 9.66699 -43 20s-24.5 23.833 -28.5 40.5z" />
    <glyph glyph-name="A" unicode="A" horiz-adv-x="657" 
d="M517 0l-58 163h-268l-58 -163h-125l257 678h126l254 -678h-128zM329 551h-6c-6 -23.333 -22.333 -75 -49 -155l-49 -139h201l-47 133c-28 86 -44.667 139.667 -50 161z" />
    <glyph glyph-name="B" unicode="B" horiz-adv-x="641" 
d="M464 364l0.00195312 -5.99902c39.333 -8.66699 70.166 -27.834 92.499 -57.501s33.5 -62.834 33.5 -99.501c0 -63.333 -19.5 -112.666 -58.5 -147.999s-94.167 -53 -165.5 -53h-299v676h297c62 0 110.667 -14.5 146 -43.5s53 -70.833 53 -125.5
c0 -28.667 -8.83301 -56.667 -26.5 -84s-41.834 -47 -72.501 -59zM349.002 578.001h-163.001v-173h159c28.667 0 51.834 8.33301 69.501 25s26.5 37.667 26.5 63c0 26 -8 46.667 -24 62s-38.667 23 -68 23zM346.001 308.001h-159v-209h160c78.667 0 118 35 118 105
c0 32.667 -11.167 58.167 -33.5 76.5s-50.833 27.5 -85.5 27.5z" />
    <glyph glyph-name="C" unicode="C" horiz-adv-x="654" 
d="M178 335c0 -79.333 13.998 -139.834 41.998 -181.501s74 -62.5 138 -62.5c46.667 0 82.5 12 107.5 36s37.833 55.667 38.5 95h116c1.33301 -8 2 -15.667 2 -23c0 -65.333 -25.167 -116.166 -75.5 -152.499s-111.833 -54.5 -184.5 -54.5
c-107.333 0 -185.5 28.833 -234.5 86.5s-73.5 143.167 -73.5 256.5c0 109.333 26.167 194.5 78.5 255.5s127.5 91.5 225.5 91.5c70.667 0 130.834 -17.667 180.501 -53s74.5 -84.666 74.5 -147.999c0 -6.66699 -0.666992 -13.334 -2 -20.001h-116
c-2 38 -15.167 67.667 -39.5 89s-58.166 32 -101.499 32c-117.333 0 -176 -82.333 -176 -247z" />
    <glyph glyph-name="D" unicode="D" horiz-adv-x="664" 
d="M184 99h79.001c28 0 54.167 3.33301 78.5 10s48.333 18 72 34s42.5 40.5 56.5 73.5s21 72.833 21 119.5c0 49.333 -7.33301 91 -22 125s-34.334 58.833 -59.001 74.5s-48.667 26.5 -72 32.5s-48.333 9 -75 9h-79v-478zM64.001 0v676.001h220
c34 0 66.167 -3.33301 96.5 -10s59.833 -18.5 88.5 -35.5s53.5 -38.167 74.5 -63.5s37.833 -57.833 50.5 -97.5s19 -84.834 19 -135.501c0 -103.333 -30 -184.833 -90 -244.5s-139.667 -89.5 -239 -89.5h-220z" />
    <glyph glyph-name="E" unicode="E" horiz-adv-x="584" 
d="M64 0v676h469v-99h-349v-177h318v-100h-318v-200h358v-100h-478z" />
    <glyph glyph-name="F" unicode="F" horiz-adv-x="576" 
d="M70 0v676h480v-100h-360v-184h320v-100h-320v-292h-120z" />
    <glyph glyph-name="G" unicode="G" horiz-adv-x="690" 
d="M177 335c0 -82 14.502 -143.5 43.502 -184.5s75.833 -61.5 140.5 -61.5c58 0 99.833 13.833 125.5 41.5s38.5 63.5 38.5 107.5v36h-128v91h246v-111c0 -84 -24.667 -149 -74 -195s-119 -69 -209 -69c-204 0 -306 115 -306 345c0 109.333 26.167 195 78.5 257
s128.166 93 227.499 93c73.333 0 134.666 -16.833 183.999 -50.5s74 -82.5 74 -146.5c0 -5.33301 -0.666992 -12 -2 -20h-115c-2 35.333 -15.167 63.333 -39.5 84s-58.5 31 -102.5 31c-121.333 0 -182 -82.667 -182 -248z" />
    <glyph glyph-name="H" unicode="H" horiz-adv-x="697" 
d="M512 0v300h-328v-300h-120v676h120v-276h328v276h120v-676h-120z" />
    <glyph glyph-name="I" unicode="I" horiz-adv-x="280" 
d="M80 0v676h121v-676h-121z" />
    <glyph glyph-name="J" unicode="J" horiz-adv-x="575" 
d="M250 -8c-70.667 0 -127 14.833 -169 44.5s-63 72.834 -63 129.501c0 12 1 24.667 3 38h114c1.33301 -73.333 40.333 -111 117 -113c49.333 0 83 12.667 101 38s27 61.666 27 108.999v438h119v-448c0 -157.333 -83 -236 -249 -236z" />
    <glyph glyph-name="K" unicode="K" horiz-adv-x="612" 
d="M184 676v-268h73l213 268h139l-257 -316l266 -360h-148l-217 306h-69v-306h-120v676h120z" />
    <glyph glyph-name="L" unicode="L" horiz-adv-x="547" 
d="M66 0v676h121v-576h349v-100h-470z" />
    <glyph glyph-name="M" unicode="M" horiz-adv-x="840" 
d="M416 218h7c24 65.333 59.667 148.333 107 249l99 208h141v-675h-119v481h-5c-19.333 -49.333 -38 -93.333 -56 -132l-121 -253h-100l-111 229c-30 62 -52.333 113.667 -67 155h-5v-480h-119c0 74.667 0.166992 187 0.5 337s0.5 262.667 0.5 338h140
c10 -19.333 26.333 -53 49 -101l61 -128c32 -68 64.667 -144 98 -228z" />
    <glyph glyph-name="N" unicode="N" horiz-adv-x="697" 
d="M508 196l7.00098 1v479h119v-676h-109l-220 310c-54.667 77.333 -93.334 136 -116.001 176l-5 -2v-484h-121v676h113l197 -276c45.333 -63.333 90.333 -131.333 135 -204z" />
    <glyph glyph-name="O" unicode="O" horiz-adv-x="727" 
d="M367 683c57.333 0 106.666 -9.66699 147.999 -29s73 -46.166 95 -80.499s38 -71.166 48 -110.499s15 -83 15 -131c0 -35.333 -3 -68.666 -9 -99.999s-16.333 -61.833 -31 -91.5s-33.334 -55.334 -56.001 -77.001s-52 -39 -88 -52s-77 -19.5 -123 -19.5
c-58 0 -107.667 8.33301 -149 25s-73.666 40.667 -96.999 72s-40.166 66.666 -50.499 105.999s-15.5 84.666 -15.5 135.999c0 107.333 25.5 192.833 76.5 256.5s129.833 95.5 236.5 95.5zM365 584c-67.333 0 -115.333 -22 -144 -66s-43 -106 -43 -186
c0 -162 62.333 -243 187 -243c57.333 0 102.166 20.5 134.499 61.5s48.5 101.5 48.5 181.5c0 78 -14.667 139.5 -44 184.5s-75.666 67.5 -138.999 67.5z" />
    <glyph glyph-name="P" unicode="P" horiz-adv-x="612" 
d="M349 243h-165v-243h-120v676h291c77.333 0 136.333 -20.167 177 -60.5s61 -93.166 61 -158.499c0 -24.667 -4.16699 -48.834 -12.5 -72.501s-21.333 -46.5 -39 -68.5s-43 -39.667 -76 -53s-71.833 -20 -116.5 -20zM346 577l-161.999 0.000976562v-235h160
c35.333 0 65.666 9.33301 90.999 28s38 47.667 38 87c0 37.333 -11.833 66.666 -35.5 87.999s-54.167 32 -91.5 32z" />
    <glyph glyph-name="Q" unicode="Q" horiz-adv-x="719" 
d="M365 683c57.333 0 106.667 -9.49902 148 -28.499s73 -45.5 95 -79.5s37.833 -70.833 47.5 -110.5s14.5 -83.834 14.5 -132.501c0 -162 -55 -266.667 -165 -314c38.667 -15.333 92 -32.333 160 -51l-36 -92c-108 32 -197.333 71 -268 117
c-112 0.666992 -191.667 30.5 -239 89.5s-71 142.167 -71 249.5c0 108.667 25.667 194.5 77 257.5s130.333 94.5 237 94.5zM363.001 584.001c-125.333 0 -188 -83.998 -188 -251.998c0 -162 62.667 -243 188 -243c56.667 0 101.167 20.667 133.5 62
s48.5 101.666 48.5 180.999c0 77.333 -14.667 138.666 -44 183.999s-75.333 68 -138 68z" />
    <glyph glyph-name="R" unicode="R" horiz-adv-x="620" 
d="M576 467c0 -46 -15.3311 -88.667 -45.998 -128s-77.334 -63.333 -140.001 -72l197 -267h-141l-189 263h-72v-263h-120v676h274c77.333 0 136.166 -18.833 176.499 -56.5s60.5 -88.5 60.5 -152.5zM329.002 577h-145v-216h145c36 0 66.333 8.33301 91 25s37 44 37 82
c0 34 -12.167 60.667 -36.5 80s-54.833 29 -91.5 29z" />
    <glyph glyph-name="S" unicode="S" horiz-adv-x="650" 
d="M330 683c42 0 81.3311 -6 117.998 -18s67.834 -32.333 93.501 -61s38.5 -63 38.5 -103c0 -9.33301 -0.666992 -19.333 -2 -30h-116c-1.33301 32.667 -14 59.167 -38 79.5s-57 30.5 -99 30.5c-44 0 -77.167 -8.33301 -99.5 -25s-33.5 -38 -33.5 -64
c0 -12.667 2.66699 -23.5 8 -32.5s11.5 -16.167 18.5 -21.5s18.5 -10.333 34.5 -15s30.333 -8.16699 43 -10.5s31.667 -5.5 57 -9.5c87.333 -13.333 150.5 -36 189.5 -68s58.5 -79 58.5 -141c0 -58 -23.333 -106.333 -70 -145s-115 -58 -205 -58
c-79.333 0 -145.5 16.667 -198.5 50s-79.5 82.666 -79.5 147.999c0 10.667 1 21 3 31h114c1.33301 -40 15.833 -71.667 43.5 -95s67.834 -35 120.501 -35c50.667 0 87.834 9.5 111.501 28.5s35.5 42.5 35.5 70.5c0 32.667 -12 57.5 -36 74.5s-64.333 29.167 -121 36.5
c-30 3.33301 -55.833 7.33301 -77.5 12s-44 11.334 -67 20.001s-41.5 19.167 -55.5 31.5s-25.667 28.5 -35 48.5s-14 43.333 -14 70c0 25.333 4.33301 49.333 13 72s22.5 44 41.5 64s46.167 35.833 81.5 47.5s76.666 17.5 123.999 17.5z" />
    <glyph glyph-name="T" unicode="T" horiz-adv-x="595" 
d="M359 577v-577h-120v577h-224v99h565v-99h-221z" />
    <glyph glyph-name="U" unicode="U" horiz-adv-x="696" 
d="M631 676v-404.999c0 -186 -92.667 -279 -278 -279c-104.667 0 -179 23.5 -223 70.5s-66 116.833 -66 209.5v404h121v-408c0 -66 14.5 -112.333 43.5 -139s70.833 -40 125.5 -40c48 0 86.333 14.667 115 44s43 74.666 43 135.999v407h119z" />
    <glyph glyph-name="V" unicode="V" horiz-adv-x="640" 
d="M316 116h6c14.667 64.667 41.667 153.334 81 266.001l99 294h124l-241 -676h-135l-237 676h125l99 -297c42.667 -124.667 69 -212.334 79 -263.001z" />
    <glyph glyph-name="W" unicode="W" horiz-adv-x="949" 
d="M683 141l4.99902 0.00195312c18.667 92.667 38 181 58 265l63 270h129l-186 -676h-132l-86 296c-3.33301 10.667 -8.83301 29.5 -16.5 56.5l-17 60c-3.66699 13 -8.16699 30.5 -13.5 52.5s-9.66602 43 -12.999 63h-4c-10 -54.667 -28.667 -130.667 -56 -228l-85 -300
h-131l-187 676h128l60 -250l19.5 -81c10.333 -42.667 18.666 -79.334 24.999 -110.001s12.5 -62.334 18.5 -95.001h5c8.66699 38 33.334 133.333 74.001 286l69 250h127l75 -265c38 -138 61.667 -228 71 -270z" />
    <glyph glyph-name="X" unicode="X" horiz-adv-x="618" 
d="M588 676l-211 -325l112.5 -169.5l119.5 -181.5h-140l-161 270c-14 -21.333 -41 -66.333 -81 -135s-67 -113.667 -81 -135h-139l232 351l-107 164l-105 161h136l145 -249l70 120.5l75 128.5h135z" />
    <glyph glyph-name="Y" unicode="Y" horiz-adv-x="606" 
d="M297 361l8 0.000976562c19.333 49.333 46 105.666 80 168.999l78 145h129l-116.5 -208.5l-116.5 -207.5v-259h-121v258l-231 417h132l80 -151c33.333 -62.667 59.333 -117 78 -163z" />
    <glyph glyph-name="Z" unicode="Z" horiz-adv-x="611" 
d="M36 0v91l383 484h-362v101h508v-91l-382 -487h391v-98h-538z" />
    <glyph glyph-name="bracketleft" unicode="[" horiz-adv-x="313" 
d="M66 -112l-1 822h195v-83h-88v-656h88v-83h-194z" />
    <glyph glyph-name="backslash" unicode="\" horiz-adv-x="567" 
d="M553 -44h-104l-445 761h104z" />
    <glyph glyph-name="bracketright" unicode="]" horiz-adv-x="313" 
d="M245 710v-822h-195v83h89v656h-89v83h195z" />
    <glyph glyph-name="asciicircum" unicode="^" horiz-adv-x="630" 
d="M274 668h81.999c0.666992 -2 70.334 -145.667 209.001 -431h-107l-145 309l-142 -309h-107l105 215.5z" />
    <glyph glyph-name="underscore" unicode="_" horiz-adv-x="514" 
d="M7 -116v82h500v-82h-500z" />
    <glyph glyph-name="grave" unicode="`" horiz-adv-x="561" 
d="M396 592l-55 -49l-163 147l83 74z" />
    <glyph glyph-name="a" unicode="a" horiz-adv-x="533" 
d="M475 324v-324h-93c-9.33301 14.667 -14.333 37 -15 67h-5c-16.667 -26.667 -39.5 -46 -68.5 -58s-58.5 -18 -88.5 -18c-52 0 -93.167 12.333 -123.5 37s-45.5 61.334 -45.5 110.001c0 108 78 162 234 162c23.333 0 53 -2 89 -6v24c0 59.333 -31.333 89 -94 89
c-48.667 0 -77.667 -18.667 -87 -56h-104c-0.666992 4 -1 9.33301 -1 16c0 30.667 10.667 56 32 76s45.833 33.667 73.5 41s57.167 11 88.5 11c76.667 0 130.5 -15.333 161.5 -46s46.5 -72.334 46.5 -125.001zM360 218c-25.333 4.66699 -52.667 7 -82 7
c-83.333 0 -125 -27.333 -125 -82c0 -19.333 7.33301 -35 22 -47s34 -18 58 -18c40 0 71.167 11 93.5 33s33.5 47.333 33.5 76v31z" />
    <glyph glyph-name="b" unicode="b" horiz-adv-x="577" 
d="M318 -7c-31.333 0 -60.666 6.00098 -87.999 18.001s-47.333 30 -60 54h-5c0 -28 -5 -49.667 -15 -65h-93v710h118v-198c0 -40 -3.66699 -73.333 -11 -100h5c35.333 53.333 87.666 80 156.999 80c134.667 0 202 -83.333 202 -250c0 -47.333 -6.33301 -88.833 -19 -124.5
s-35.167 -65.334 -67.5 -89.001s-73.5 -35.5 -123.5 -35.5zM293 403.001c-41.333 0 -71.668 -14.5 -91.001 -43.5s-29 -62.833 -29 -101.5v-48c0 -38 10.333 -69.167 31 -93.5s49.334 -36.5 86.001 -36.5c78.667 0 118 54 118 162c0 107.333 -38.333 161 -115 161z" />
    <glyph glyph-name="c" unicode="c" horiz-adv-x="520" 
d="M279 493c56.667 0 103.836 -12.8311 141.503 -38.498s56.5 -62.167 56.5 -109.5c0 -6.66699 -0.666992 -13.334 -2 -20.001h-107c-2 26.667 -12 45.667 -30 57s-37.333 17 -58 17c-76 0 -114 -52.667 -114 -158c0 -50.667 8.83301 -89.334 26.5 -116.001
s47.167 -40 88.5 -40c25.333 0 47.166 6.66699 65.499 20s28.5 35 30.5 65h106c1.33301 -9.33301 2 -16 2 -20c0 -50 -18.833 -88.833 -56.5 -116.5s-84.834 -41.5 -141.501 -41.5c-159.333 0 -239 81.333 -239 244c0 81.333 19.667 144.5 59 189.5
s96.666 67.5 171.999 67.5z" />
    <glyph glyph-name="d" unicode="d" horiz-adv-x="575" 
d="M251 -7c-135.333 0 -203 81.667 -203 245c0 78 18.5 140.167 55.5 186.5s90.833 69.5 161.5 69.5c55.333 0 99.333 -15.667 132 -47h4v263h116v-710h-93c-10 14.667 -15 37 -15 67h-4c-32 -49.333 -83.333 -74 -154 -74zM285 81c35.333 0 63.667 12.167 85 36.5
s32 55.5 32 93.5v69c0 32 -9 60.5 -27 85.5s-47.667 37.5 -89 37.5c-39.333 0 -69 -14.5 -89 -43.5s-30 -68.5 -30 -118.5c0 -106.667 39.333 -160 118 -160z" />
    <glyph glyph-name="e" unicode="e" horiz-adv-x="544" 
d="M276 403c-32 0 -57.333 -9.49902 -76 -28.499s-29.334 -45.5 -32.001 -79.5h211c-0.666992 33.333 -9.66699 59.666 -27 78.999s-42.666 29 -75.999 29zM278 493.001c72 0 126.166 -20.332 162.499 -60.999s54.5 -92.334 54.5 -155.001c0 -16 -1.66699 -34 -5 -54h-326
c0 -94.667 39.667 -142 119 -142c60.667 0 94.334 24.667 101.001 74h106c0.666992 -4 1 -9.66699 1 -17c0 -49.333 -20.167 -86 -60.5 -110s-89.833 -36 -148.5 -36c-156 0 -234 81.333 -234 244c0 76 19.333 137.833 58 185.5s96 71.5 172 71.5z" />
    <glyph glyph-name="f" unicode="f" horiz-adv-x="384" 
d="M225 485l143 -0.000976562v-81h-143v-404h-117v404h-78v66l78 14v68c0 58 13.5 100.167 40.5 126.5s70.167 39.5 129.5 39.5c32 0 62.667 -3.66699 92 -11l-1 -86c-32 4 -56.333 6 -73 6c-26.667 0 -45.167 -5.66699 -55.5 -17s-15.5 -32.666 -15.5 -63.999v-61z" />
    <glyph glyph-name="g" unicode="g" horiz-adv-x="588" 
d="M162 -72c0 -18.667 10.5 -33.999 31.5 -45.999s51.833 -18 92.5 -18s73.667 5.5 99 16.5s38 27.5 38 49.5c0 14.667 -7.5 27.167 -22.5 37.5s-43.833 18.166 -86.5 23.499l-99 12c-35.333 -20.667 -53 -45.667 -53 -75zM291 495.001c34 0 65.999 -4.00098 95.999 -12.001
h172v-53c-18 -7.33301 -41 -11.666 -69 -12.999l-2 -7c22.667 -25.333 34 -58.333 34 -99c0 -53.333 -20.167 -96.833 -60.5 -130.5s-96.166 -50.5 -167.499 -50.5c-48.667 0 -88 5.66699 -118 17c-8 -8 -12 -15.667 -12 -23c0 -8 4.33301 -15.167 13 -21.5
s20.334 -10.5 35.001 -12.5l168 -24c108.667 -14.667 163 -59.334 163 -134.001c0 -52 -24.333 -90.333 -73 -115s-112.334 -37 -191.001 -37c-156.667 0 -235 47 -235 141c0 44 23 80.667 69 110c-18.667 8.66699 -33 20.5 -43 35.5s-15 30.167 -15 45.5
c0 31.333 16 58.333 48 81c-29.333 29.333 -44 68 -44 116c0 52.667 19.333 96.834 58 132.501s96.667 53.5 174 53.5zM290.999 409c-42 0 -72.333 -9.16699 -91 -27.5s-28 -41.833 -28 -70.5s9.66699 -52 29 -70s49.333 -27 90 -27c37.333 0 65.833 9.16699 85.5 27.5
s29.5 41.5 29.5 69.5s-9.16699 51.333 -27.5 70s-47.5 28 -87.5 28z" />
    <glyph glyph-name="h" unicode="h" horiz-adv-x="564" 
d="M161 407l4.99805 -0.000976562c16 28.667 38.833 50.334 68.5 65.001s60.834 22 93.501 22c30 0 56 -3.83301 78 -11.5s39.333 -17.5 52 -29.5s22.834 -27.167 30.501 -45.5s12.667 -36.5 15 -54.5s3.5 -38.333 3.5 -61v-292h-119v284c0 40 -7 70.5 -21 91.5
s-39.667 31.5 -77 31.5c-38.667 0 -67.5 -14.5 -86.5 -43.5s-28.5 -61.5 -28.5 -97.5v-266h-117v712h115v-196c0 -46 -4 -82.333 -12 -109z" />
    <glyph glyph-name="i" unicode="i" horiz-adv-x="279" 
d="M79 0v486h117v-486h-117zM71 618c0 19.333 6.66699 35.666 20 48.999s29.333 20 48 20c19.333 0 35.833 -6.66699 49.5 -20s20.5 -29.666 20.5 -48.999c0 -18.667 -6.83301 -34.667 -20.5 -48s-30.167 -20 -49.5 -20c-18.667 0 -34.667 6.66699 -48 20s-20 29.333 -20 48
z" />
    <glyph glyph-name="j" unicode="j" horiz-adv-x="271" 
d="M71 -204h-64v94h20c20 0 33.5 4.66699 40.5 14s10.5 24.333 10.5 45v537h118v-550c0 -44.667 -9.33301 -79.167 -28 -103.5s-51 -36.5 -97 -36.5zM69 618c0 19.333 6.66699 35.666 20 48.999s29.333 20 48 20c19.333 0 35.833 -6.66699 49.5 -20
s20.5 -29.666 20.5 -48.999c0 -18.667 -6.83301 -34.667 -20.5 -48s-30.167 -20 -49.5 -20c-18.667 0 -34.667 6.66699 -48 20s-20 29.333 -20 48z" />
    <glyph glyph-name="k" unicode="k" horiz-adv-x="521" 
d="M378 485h129l-181 -218l192 -267h-137l-151 221h-56v-221h-116v711h116v-398h65l79.5 98.5z" />
    <glyph glyph-name="l" unicode="l" horiz-adv-x="266" 
d="M68 114l-0.000976562 597.002h115v-588c0 -16.667 3 -27.334 9 -32.001s20 -7.33398 42 -8.00098v-84c-24 -4.66699 -45.333 -7 -64 -7c-41.333 0 -68.666 9.33301 -81.999 28s-20 50 -20 94z" />
    <glyph glyph-name="m" unicode="m" horiz-adv-x="861" 
d="M595 407c-36 0 -62.832 -13.333 -80.499 -40s-26.5 -57.667 -26.5 -93v-274h-116v284c0 40 -6.5 70.333 -19.5 91s-36.833 31 -71.5 31c-36 0 -62.667 -13.667 -80 -41s-26 -59 -26 -95v-270h-117v486h96c11.333 -16.667 17 -40.334 17 -71.001h4
c16 27.333 37.333 47.333 64 60s53 19 79 19c74 0 123.333 -26.667 148 -80c41.333 53.333 96 80 164 80s114 -17.167 138 -51.5s36 -82.166 36 -143.499v-299h-119v285c0 40 -6.33301 70.333 -19 91s-36.334 31 -71.001 31z" />
    <glyph glyph-name="n" unicode="n" horiz-adv-x="564" 
d="M328 493c36.667 0 67.333 -5.33398 92 -16.001s43 -26.167 55 -46.5s20.167 -41.333 24.5 -63s6.5 -47.167 6.5 -76.5v-291h-118v283c0 39.333 -7.33301 69.666 -22 90.999s-40 32 -76 32c-38 0 -66.667 -14.167 -86 -42.5s-29 -60.166 -29 -95.499v-268h-118v486h94
c13.333 -18 20 -41.667 20 -71h4c18 26.667 41.5 46.334 70.5 59.001s56.5 19 82.5 19z" />
    <glyph glyph-name="o" unicode="o" horiz-adv-x="577" 
d="M290 494c35.333 0 66.8281 -4.83398 94.4951 -14.501s50.334 -22.334 68.001 -38.001s32.334 -34.5 44.001 -56.5s19.834 -44.667 24.501 -68s7 -48.333 7 -75c0 -32 -4 -62.167 -12 -90.5s-20.667 -54.666 -38 -78.999s-42.166 -43.666 -74.499 -57.999
s-70.166 -21.5 -113.499 -21.5c-160.667 0 -241 82.667 -241 248c0 75.333 20.167 136.333 60.5 183s100.5 70 180.5 70zM289.995 400.999c-82.667 0 -124 -53.334 -124 -160.001c0 -105.333 41.333 -158 124 -158c38 0 67.333 13.333 88 40s31 66.334 31 119.001
c0 106 -39.667 159 -119 159z" />
    <glyph glyph-name="p" unicode="p" horiz-adv-x="575" 
d="M326 493c133.333 0 200 -81.668 200 -245.001c0 -78 -18 -140.167 -54 -186.5s-87.667 -69.5 -155 -69.5c-64.667 0 -111 16.333 -139 49h-4v-245h-116v690h94c11.333 -17.333 17 -41.666 17 -72.999h5c16 27.333 37.833 47.5 65.5 60.5s56.5 19.5 86.5 19.5z
M291 401.999c-36 0 -64.5 -12.168 -85.5 -36.501s-31.5 -55.5 -31.5 -93.5v-69c0 -32 8.66699 -60.5 26 -85.5s47 -37.5 89 -37.5c39.333 0 68.833 14.333 88.5 43s29.5 68.334 29.5 119.001c0 54.667 -9.5 95 -28.5 121s-48.167 39 -87.5 39z" />
    <glyph glyph-name="q" unicode="q" horiz-adv-x="576" 
d="M48 243c0 72 17.168 131.667 51.501 179s86.166 71 155.499 71c71.333 0 122 -24.667 152 -74h4c2 28 7.66699 50.333 17 67h89v-691h-116v174c0 42 3.66699 76.667 11 104h-4c-38 -53.333 -91 -80 -159 -80c-134 0 -201 83.333 -201 250zM281.001 80
c41.333 0 71.667 14.667 91 44s29 63 29 101v48c0 38 -10.333 69.333 -31 94s-49 37 -85 37c-78.667 0 -118 -55 -118 -165c0 -106 38 -159 114 -159z" />
    <glyph glyph-name="r" unicode="r" horiz-adv-x="355" 
d="M349 496l6.99902 -104.001c-63.333 -1.33301 -108.833 -13.166 -136.5 -35.499s-41.5 -57.5 -41.5 -105.5v-251h-117v486h94c12.667 -25.333 19 -56 19 -92h4c14.667 36 38.334 62 71.001 78s66 24 100 24z" />
    <glyph glyph-name="s" unicode="s" horiz-adv-x="499" 
d="M249 494c30.667 0 59.835 -3.66406 87.502 -10.9971s52.167 -20.833 73.5 -40.5s32 -44.167 32 -73.5c0 -4 -0.666992 -10.667 -2 -20h-109c-6 38 -34 57 -84 57c-26.667 0 -46.834 -5.33301 -60.501 -16s-20.5 -24 -20.5 -40c0 -18.667 7 -31.167 21 -37.5
s40 -12.5 78 -18.5c69.333 -10.667 118.666 -27 147.999 -49s44 -56.333 44 -103c0 -42 -17.667 -77.333 -53 -106s-87.333 -43 -156 -43c-34 0 -66 3.83301 -96 11.5s-56.667 22.667 -80 45s-35 50.5 -35 84.5c0 4 0.666992 11.333 2 22h109c4 -51.333 39.333 -77 106 -77
c28.667 0 50.5 6 65.5 18s22.5 26 22.5 42c0 20 -7.5 34.667 -22.5 44s-41.5 16.666 -79.5 21.999c-25.333 3.33301 -45.833 6.66602 -61.5 9.99902s-32.5 8.33301 -50.5 15s-32.167 14.667 -42.5 24s-18.833 21.666 -25.5 36.999s-10 33.333 -10 54
c0 40.667 15.833 75.667 47.5 105s82.167 44 151.5 44z" />
    <glyph glyph-name="t" unicode="t" horiz-adv-x="396" 
d="M214 618v-131.999h140v-83h-140v-238c0 -33.333 6.5 -55.333 19.5 -66s37.167 -16 72.5 -16c19.333 0 41.333 1.66699 66 5v-86c-30.667 -6 -64.667 -9 -102 -9c-61.333 0 -105.333 12.667 -132 38s-40 69.666 -40 132.999v239h-78v69c34 4.66699 61.667 9 83 13l27 133
h84z" />
    <glyph glyph-name="u" unicode="u" horiz-adv-x="553" 
d="M384 70l-4 0.000976562c-18.667 -27.333 -42.167 -47.166 -70.5 -59.499s-54.833 -18.5 -79.5 -18.5c-35.333 0 -65 5 -89 15s-41.667 24.5 -53 43.5s-19.166 38.333 -23.499 58s-6.5 42.834 -6.5 69.501v308h118v-285c0 -40.667 6.16699 -70.834 18.5 -90.501
s37.166 -29.5 74.499 -29.5c36 0 63.167 13.667 81.5 41s27.5 58.666 27.5 93.999v270h117v-486h-93c-12 17.333 -18 40.666 -18 69.999z" />
    <glyph glyph-name="v" unicode="v" horiz-adv-x="523" 
d="M259 107h8c15.333 62 38 135.333 68 220l56 158h119l-188 -487h-123l-187 487h121l57 -161c28 -76.667 51 -149 69 -217z" />
    <glyph glyph-name="w" unicode="w" horiz-adv-x="759" 
d="M529 121l8 -0.000976562c6 38 21 102.333 45 193l44 171h122l-152 -486h-122l-56 187c-9.33301 31.333 -21.333 82.666 -36 153.999h-8c-14 -75.333 -25.333 -127.666 -34 -156.999l-55 -184h-122l-153 486h122l40 -147c29.333 -106.667 47 -179 53 -217h8
c12.667 66 25.667 121.333 39 166l58 198h102c42 -135.333 74.333 -256.666 97 -363.999z" />
    <glyph glyph-name="x" unicode="x" horiz-adv-x="503" 
d="M361 0l-109 180l-111 -180h-133l173 253l-161 233h134l95 -158l97 158h134l-162 -233l176 -253h-133z" />
    <glyph glyph-name="y" unicode="y" horiz-adv-x="491" 
d="M236 86l7.99805 0.000976562c6 23.333 23.333 81.666 52 174.999l69 224h114l-184 -544c-17.333 -49.333 -39.333 -86.5 -66 -111.5s-65.667 -37.5 -117 -37.5h-66v91h51c23.333 0 41.5 4.16699 54.5 12.5s24.167 22.833 33.5 43.5l21 61
c-19.333 0 -33.666 -0.333008 -42.999 -1c-15.333 56.667 -31.333 111.5 -48 164.5l-57.5 176l-48.5 145.5h120l63 -228c26.667 -100.667 41.334 -157.667 44.001 -171z" />
    <glyph glyph-name="z" unicode="z" horiz-adv-x="474" 
d="M26 0v67l274 330h-255v88h396v-70l-273 -329h279v-86h-421z" />
    <glyph glyph-name="braceleft" unicode="{" horiz-adv-x="354" 
d="M159 285l-1 -6c43.333 -21.333 65 -65.333 65 -132v-143c0 -26 13.667 -39 41 -39h35v-79h-65c-34 0 -61.167 10.5 -81.5 31.5s-30.5 48.5 -30.5 82.5v144c0 31.333 -4.83301 54.833 -14.5 70.5s-27.5 27.167 -53.5 34.5v65c24.667 6.66699 42 18 52 34s15 39.333 15 70
v167c0 80.667 34.333 121 103 121h75v-76h-35c-12.667 0 -22.5 -4 -29.5 -12s-10.5 -19 -10.5 -33v-165c0 -72 -21.667 -117 -65 -135z" />
    <glyph glyph-name="bar" unicode="|" horiz-adv-x="312" 
d="M103 -112v829h105v-829h-105z" />
    <glyph glyph-name="braceright" unicode="}" horiz-adv-x="354" 
d="M192 279l0.000976562 6c-44 18 -66 63 -66 135v165c0 30 -13 45 -39 45h-35v76h74c68.667 0 103 -40.333 103 -121v-167c0 -30.667 5.16699 -54 15.5 -70s27.833 -27.333 52.5 -34v-65c-26.667 -7.33301 -44.834 -18.833 -54.501 -34.5s-14.5 -39.167 -14.5 -70.5v-144
c0 -34 -10.167 -61.5 -30.5 -82.5s-47.5 -31.5 -81.5 -31.5h-64v79h35c26.667 0 40 13 40 39v143c0 66.667 21.667 110.667 65 132z" />
    <glyph glyph-name="asciitilde" unicode="~" horiz-adv-x="630" 
d="M424 203c-29.333 0 -66.998 8.5 -112.998 25.5s-76.333 25.5 -91 25.5c-25.333 0 -55.333 -17.667 -90 -53l-54 41c14 32.667 33.167 58.667 57.5 78s50.166 29 77.499 29c24 0 61.167 -8.5 111.5 -25.5s84.166 -25.5 101.499 -25.5c24.667 0 49.667 16.333 75 49l62 -37
c-12.667 -32 -31.5 -57.833 -56.5 -77.5s-51.833 -29.5 -80.5 -29.5z" />
    <glyph glyph-name="exclamdown" unicode="&#xa1;" horiz-adv-x="322" 
d="M117 298h93l16 -494h-123zM94 423c0 19.333 6.66699 35.5 20 48.5s29.666 19.5 48.999 19.5c20 0 36.667 -6.5 50 -19.5s20 -29.167 20 -48.5c0 -20 -6.66699 -36.667 -20 -50s-30 -20 -50 -20c-19.333 0 -35.666 6.66699 -48.999 20s-20 30 -20 50z" />
    <glyph glyph-name="cent" unicode="&#xa2;" horiz-adv-x="630" 
d="M297 -70v150.999c-132 12 -198 91.333 -198 238c0 74 16.833 132.667 50.5 176s82.834 68.333 147.501 75v148h49v-148c50 -3.33301 91.667 -17 125 -41s50 -59.333 50 -106v-16h-106c-2.66699 40.667 -25.667 64.334 -69 71.001v-306c48.667 4.66699 74.667 32 78 82
h104c0.666992 -2 1 -7.66699 1 -17c0 -46.667 -17.333 -84 -52 -112s-78.334 -43.333 -131.001 -46v-149h-49zM212 323.999c0 -90.667 28.333 -141 85 -151v304c-56.667 -13.333 -85 -64.333 -85 -153z" />
    <glyph glyph-name="sterling" unicode="&#xa3;" horiz-adv-x="630" 
d="M337 564c-37.333 0 -65.8359 -9.1709 -85.5029 -27.5039s-29.5 -43.5 -29.5 -75.5c0 -32.667 5 -59.334 15 -80.001h189v-78h-166c4 -25.333 6 -51 6 -77c0 -50 -11.333 -94.333 -34 -133h324v-93h-490v93h48c26.667 54.667 40 100 40 136c0 19.333 -4 44 -12 74h-74v78
h54c-8.66699 34.667 -13 65.334 -13 92.001c0 54.667 20.5 99.334 61.5 134.001s94.167 52 159.5 52c26.667 0 52.334 -2.66699 77.001 -8s48.334 -13.666 71.001 -24.999s40.834 -27.166 54.501 -47.499s20.5 -44.166 20.5 -71.499c0 -9.33301 -0.333008 -16.333 -1 -21
h-105c-8 52 -44.667 78 -110 78z" />
    <glyph glyph-name="currency" unicode="&#xa4;" horiz-adv-x="630" 
d="M103 299c0 38.667 10.665 76 31.998 112c-4 4.66699 -10 11 -18 19l-22 22.5l-18 19.5l67 64l56 -58c38 21.333 76 32 114 32c40.667 0 78.334 -11.333 113.001 -34l57 58l36 -35.5l30 -29.5l-58 -60c20.667 -32 31 -68.667 31 -110c0 -38.667 -10.333 -76 -31 -112
c26 -26 45.667 -45 59 -57c-15.333 -16.667 -37.666 -38.667 -66.999 -66l-57 56c-36 -21.333 -73.667 -32 -113 -32c-40 0 -78 10.667 -114 32l-55 -57l-66 66l17.5 17.5l21 21l17.5 17.5c-21.333 31.333 -32 69.333 -32 114zM189.998 298c0 -33.333 12 -61.999 36 -85.999
s53 -36 87 -36c33.333 0 61.833 12 85.5 36s35.5 52.667 35.5 86s-11.833 62.166 -35.5 86.499s-52.167 36.5 -85.5 36.5c-34 0 -63 -12 -87 -36s-36 -53 -36 -87z" />
    <glyph glyph-name="yen" unicode="&#xa5;" horiz-adv-x="630" 
d="M546 271h-457.999v54h127l-176 324h125l76 -145c39.333 -78 64.666 -132.333 75.999 -163h9c15.333 42.667 41 99 77 169l75 139h124l-182 -324h127v-54zM88.001 230h458v-53h-171v-177h-117v177h-170v53z" />
    <glyph glyph-name="brokenbar" unicode="&#xa6;" horiz-adv-x="366" 
d="M123 283h111v-393h-111v393zM234 329h-111v374h111v-374z" />
    <glyph glyph-name="section" unicode="&#xa7;" horiz-adv-x="562" 
d="M181 297c0 -22.667 9.83203 -40.5 29.499 -53.5s49.167 -24.833 88.5 -35.5c32.667 1.33301 57.334 9 74.001 23s25 30.333 25 49c0 44 -43 75.333 -129 94c-27.333 -2 -48.833 -10.5 -64.5 -25.5s-23.5 -32.167 -23.5 -51.5zM279.999 -110
c-56 0 -103.998 11.5029 -143.998 34.5029s-60 57.833 -60 104.5c0 6 0.333008 9.66699 1 11h108c4.66699 -22.667 16.5 -39 35.5 -49s39.5 -15 61.5 -15c34.667 0 60.5 6.5 77.5 19.5s25.5 28.5 25.5 46.5c0 16 -8.16699 30 -24.5 42s-42.833 24 -79.5 36
c-34 10.667 -60.833 19.834 -80.5 27.501s-40.334 18.167 -62.001 31.5s-37.5 29.166 -47.5 47.499s-15 40.166 -15 65.499s6.5 49.166 19.5 71.499s32.167 39.833 57.5 52.5c-44 23.333 -66 59 -66 107c0 42 16.167 78.833 48.5 110.5s84.833 47.5 157.5 47.5
c54 0 99.667 -11.5 137 -34.5s56 -57.833 56 -104.5c0 -6 -0.333008 -9.66699 -1 -11h-103c-7.33301 42.667 -38 64 -92 64c-32 0 -55.833 -6.5 -71.5 -19.5s-23.5 -29.167 -23.5 -48.5c0 -15.333 8.83301 -28.5 26.5 -39.5s43.5 -21.833 77.5 -32.5
c32.667 -9.33301 59.167 -18 79.5 -26s41 -18.5 62 -31.5s36.5 -28.833 46.5 -47.5s15 -40.334 15 -65.001c0 -56.667 -27 -97.667 -81 -123c52 -30 78 -69 78 -117c0 -40.667 -17.333 -76.667 -52 -108s-90.334 -47 -167.001 -47z" />
    <glyph glyph-name="dieresis" unicode="&#xa8;" horiz-adv-x="561" 
d="M122 627c0 16.667 5.83301 30.667 17.5 42s25.5 17 41.5 17c16.667 0 30.834 -5.66699 42.501 -17s17.5 -25.333 17.5 -42s-5.83301 -30.667 -17.5 -42s-25.834 -17 -42.501 -17c-16 0 -29.833 5.66699 -41.5 17s-17.5 25.333 -17.5 42zM312 627
c0 16.667 5.66699 30.667 17 42s25.333 17 42 17s30.834 -5.66699 42.501 -17s17.5 -25.333 17.5 -42s-5.83301 -30.667 -17.5 -42s-25.834 -17 -42.501 -17s-30.667 5.66699 -42 17s-17 25.333 -17 42z" />
    <glyph glyph-name="copyright" unicode="&#xa9;" horiz-adv-x="825" 
d="M415 -13c-108.667 0 -195.332 34.333 -259.999 103s-97 157 -97 265c0 104.667 34.667 191.5 104 260.5s153.666 103.5 252.999 103.5s183.5 -34.5 252.5 -103.5s103.5 -155.833 103.5 -260.5c0 -105.333 -34.667 -193 -104 -263s-153.333 -105 -252 -105zM415.002 650
c-80 0 -147.667 -28.667 -203 -86s-83 -127 -83 -209c0 -84.667 26.833 -155.667 80.5 -213s122.167 -86 205.5 -86c80.667 0 148 28.833 202 86.5s81 128.5 81 212.5c0 82.667 -27.167 152.5 -81.5 209.5s-121.5 85.5 -201.5 85.5zM301.002 344
c0 -52 8.16699 -91.5 24.5 -118.5s44.833 -40.5 85.5 -40.5c31.333 0 55.666 8.16699 72.999 24.5s26 37.5 26 63.5h81c0 -2 0.166992 -4.83301 0.5 -8.5s0.5 -6.16699 0.5 -7.5c0 -43.333 -17.333 -77.5 -52 -102.5s-75 -37.5 -121 -37.5c-136 0 -204 75.667 -204 227
c0 72 17.333 129 52 171s84.334 63 149.001 63c47.333 0 87.5 -11.833 120.5 -35.5s49.5 -56.167 49.5 -97.5c0 -8 -0.333008 -14 -1 -18h-81c-1.33301 26 -9.83301 46.333 -25.5 61s-38.167 22 -67.5 22c-73.333 0 -110 -55.333 -110 -166z" />
    <glyph glyph-name="ordfeminine" unicode="&#xaa;" horiz-adv-x="382" 
d="M169 340c25.333 0 45.001 6.83301 59.001 20.5s21 29.5 21 47.5v18c-16 2.66699 -33.667 4 -53 4c-52 0 -78 -17.333 -78 -52c0 -11.333 4.66699 -20.5 14 -27.5s21.666 -10.5 36.999 -10.5zM257.001 330l-5 0.000976562c-25.333 -36.667 -60.333 -55 -105 -55
c-36.667 0 -65.834 8.33301 -87.501 25s-32.5 41 -32.5 73c0 72 54.333 108 163 108c22.667 0 42.334 -1 59.001 -3v14c0 34.667 -20 52 -60 52c-32 0 -50.667 -12 -56 -36h-79c-0.666992 2.66699 -1 6.66699 -1 12c0 32 14.167 55.167 42.5 69.5s60.5 21.5 96.5 21.5
c32 0 58.333 -3.66699 79 -11s35.667 -18.333 45 -33s15.666 -29.334 18.999 -44.001s5 -32.667 5 -54v-188h-73c-5.33301 10 -8.66602 26.333 -9.99902 49z" />
    <glyph glyph-name="guillemotleft" unicode="&#xab;" horiz-adv-x="529" 
d="M173 231l132 -180l-59 -47l-186 213v29l186 208l57 -43zM361 231l132 -180l-59 -47l-185 213v29l185 208l58 -43z" />
    <glyph glyph-name="logicalnot" unicode="&#xac;" horiz-adv-x="630" 
d="M525 315v-238h-103v152h-318v86h421z" />
    <glyph glyph-name="sfthyphen" unicode="&#xad;" horiz-adv-x="496" 
d="M93 210v94h309v-94h-309z" />
    <glyph glyph-name="registered" unicode="&#xae;" horiz-adv-x="580" 
d="M330 443l58 -116h-59l-52 110h-33v-110h-52v276h94c28 0 50.667 -7.16699 68 -21.5s26 -35.833 26 -64.5c0 -34 -16.667 -58.667 -50 -74zM287 553h-43v-69h43c26 0 39 11.333 39 34c0 23.333 -13 35 -39 35zM523 457c0 -66.667 -23.5 -123.5 -70.5 -170.5
s-104.167 -70.5 -171.5 -70.5c-72.667 0 -131.167 23 -175.5 69s-66.5 103.333 -66.5 172c0 66.667 23.833 123.667 71.5 171s104.5 71 170.5 71c69.333 0 127 -23.333 173 -70s69 -104 69 -172zM469 457c0 52 -18.5 96.833 -55.5 134.5s-81.167 56.5 -132.5 56.5
c-53.333 0 -97.833 -18.667 -133.5 -56s-53.5 -82.333 -53.5 -135s17.5 -97.5 52.5 -134.5s79.833 -55.5 134.5 -55.5c52 0 96.333 18.667 133 56s55 82 55 134z" />
    <glyph glyph-name="macron" unicode="&#xaf;" horiz-adv-x="559" 
d="M128 598v83h319v-83h-319z" />
    <glyph glyph-name="degree" unicode="&#xb0;" horiz-adv-x="393" 
d="M196 374c-44.667 0 -81.667 14.5 -111 43.5s-44 64.167 -44 105.5s15 76 45 104s66.667 42 110 42c41.333 0 77 -14 107 -42s45 -62.667 45 -104c0 -40.667 -15 -75.667 -45 -105s-65.667 -44 -107 -44zM194 599c-21.333 0 -40 -7.5 -56 -22.5s-24 -32.833 -24 -53.5
c0 -22 7.66699 -40.833 23 -56.5s34.333 -23.5 57 -23.5c21.333 0 39.833 7.83301 55.5 23.5s23.5 34.5 23.5 56.5c0 20.667 -7.83301 38.5 -23.5 53.5s-34.167 22.5 -55.5 22.5z" />
    <glyph glyph-name="plusminus" unicode="&#xb1;" horiz-adv-x="630" 
d="M103 84h422v-84h-422v84zM366 257v-143h-102v143h-159v86h159v144h102v-144h159v-86h-159z" />
    <glyph glyph-name="twosuperior" unicode="&#xb2;" horiz-adv-x="382" 
d="M194 699c-20 0 -37.167 -5.50098 -51.5 -16.501s-22.166 -28.833 -23.499 -53.5h-75c-1.33301 5.33301 -2 13.333 -2 24c0 36.667 14.667 65.667 44 87s65.333 32 108 32c53.333 0 92.666 -10.667 117.999 -32s38 -48 38 -80c0 -47.333 -41 -93.333 -123 -138
c-45.333 -24.667 -72.666 -42 -81.999 -52c-7.33301 -8 -12.333 -16 -15 -24h224v-74h-327v35c0.666992 38.667 12.167 69.834 34.5 93.501s59.166 49.5 110.499 77.5c18 10 31.167 17.667 39.5 23s17.333 13.333 27 24s14.5 21 14.5 31c0 12.667 -5.16699 23 -15.5 31
s-24.833 12 -43.5 12z" />
    <glyph glyph-name="threesuperior" unicode="&#xb3;" horiz-adv-x="376" 
d="M200 691l-2 5.00098h-162v71h296v-61l-100 -80l2 -6c36.667 -4.66699 65.167 -16.667 85.5 -36s30.5 -45.333 30.5 -78c0 -42 -16.5 -75.333 -49.5 -100s-75.833 -37 -128.5 -37c-45.333 0 -82.666 8.66699 -111.999 26s-44 42.666 -44 75.999
c0 9.33301 0.666992 17.666 2 24.999h78c4 -36.667 28.667 -55 74 -55c23.333 0 43.333 5.66699 60 17s25 27.333 25 48c0 39.333 -28.667 59 -86 59c-10 0 -25 -1.33301 -45 -4c-2.66699 4.66699 -5.33398 9.83398 -8.00098 15.501l-9 19c-3.33301 7 -6 12.167 -8 15.5z
" />
    <glyph glyph-name="acute" unicode="&#xb4;" horiz-adv-x="561" 
d="M263 544l-54 49l142 168l79 -74z" />
    <glyph glyph-name="mu" unicode="&#xb5;" horiz-adv-x="553" 
d="M59 -205c-0.666992 62.667 -1.00098 293 -1.00098 691h118v-294c0 -34.667 6.5 -62 19.5 -82s37.167 -30 72.5 -30c36 0 63.333 13.833 82 41.5s28 59.167 28 94.5v270h118v-486h-99c-10 14.667 -15 39.667 -15 75h-4c-28.667 -45.333 -66 -70 -112 -74
c-35.333 -5.33301 -65.666 -2 -90.999 10v-216h-116z" />
    <glyph glyph-name="mu" unicode="&#x3bc;" horiz-adv-x="553" 
d="M59 -205c-0.666992 62.667 -1.00098 293 -1.00098 691h118v-294c0 -34.667 6.5 -62 19.5 -82s37.167 -30 72.5 -30c36 0 63.333 13.833 82 41.5s28 59.167 28 94.5v270h118v-486h-99c-10 14.667 -15 39.667 -15 75h-4c-28.667 -45.333 -66 -70 -112 -74
c-35.333 -5.33301 -65.666 -2 -90.999 10v-216h-116z" />
    <glyph glyph-name="paragraph" unicode="&#xb6;" horiz-adv-x="562" 
d="M488 686v-670.999c0 -49.333 -13 -90.333 -39 -123s-69.667 -49 -131 -49c-12.667 0 -26 1 -40 3l1 72c50 2.66699 83.833 11.667 101.5 27s26.5 41.666 26.5 78.999v662h81zM352 297.001h-100c-56.667 0 -103.5 18.5 -140.5 55.5s-55.5 83.167 -55.5 138.5
c0 54 18.833 100 56.5 138s84.167 57 139.5 57h100v-389z" />
    <glyph glyph-name="periodcentered" unicode="&#xb7;" horiz-adv-x="272" 
d="M58 272c0 22 7.5 40.667 22.5 56s33.5 23 55.5 23c22.667 0 41.5 -7.66699 56.5 -23s22.5 -34 22.5 -56s-7.5 -40.667 -22.5 -56s-33.833 -23 -56.5 -23c-22 0 -40.5 7.66699 -55.5 23s-22.5 34 -22.5 56z" />
    <glyph glyph-name="cedilla" unicode="&#xb8;" horiz-adv-x="534" 
d="M263 -228c-36.667 0 -73.667 6.33301 -111 19l15 50c30 -8.66699 56 -13 78 -13c20 0 36 3.66699 48 11s18 17.333 18 30c0 25.333 -16.333 38 -49 38c-18 0 -32.333 -3.33301 -43 -10l-28 23l57 107h64l-38 -67c46 -0.666992 78.5 -10.5 97.5 -29.5
s28.5 -39.5 28.5 -61.5c0 -28 -11.5 -51 -34.5 -69s-57.167 -27.333 -102.5 -28z" />
    <glyph glyph-name="onesuperior" unicode="&#xb9;" horiz-adv-x="365" 
d="M337 443v-71h-309v71h105v237l-89 -11v64l109 35h76v-325h108z" />
    <glyph glyph-name="ordmasculine" unicode="&#xba;" horiz-adv-x="391" 
d="M197 612c57.333 0 99.001 -15.668 125.001 -47.001s39 -71.333 39 -120c0 -48 -13 -87.833 -39 -119.5s-67.667 -47.5 -125 -47.5c-112 0 -168 55.333 -168 166c0 50.667 14.167 91.334 42.5 122.001s70.166 46 125.499 46zM196.001 539.999c-49.333 0 -74 -32 -74 -96
c0 -63.333 24.667 -95 74 -95c47.333 0 71 32 71 96c0 63.333 -23.667 95 -71 95z" />
    <glyph glyph-name="guillemotright" unicode="&#xbb;" horiz-adv-x="529" 
d="M250 51l132 180l-131 180l58 43l185 -208v-29l-185 -213zM61 51l132 180l-131 180l58 43l186 -208v-29l-186 -213z" />
    <glyph glyph-name="onequarter" unicode="&#xbc;" horiz-adv-x="898" 
d="M697 395h82v-236h65v-71h-65v-88h-96v88h-205v60zM306 -28h-84l426 734h86zM357 353v-71h-309v71h105v237l-89 -11v64l109 35h76v-325h108zM585 159h98.001v113l-57 -65c-24.667 -28.667 -38.334 -44.667 -41.001 -48z" />
    <glyph glyph-name="onehalf" unicode="&#xbd;" horiz-adv-x="898" 
d="M697 327c-47.333 0 -72.332 -23.334 -74.999 -70.001h-75c-2 8 -3 16 -3 24c0 36.667 14.833 65.667 44.5 87s65.5 32 107.5 32c53.333 0 92.666 -10.667 117.999 -32s38 -48 38 -80c0 -47.333 -40.667 -93.333 -122 -138c-46 -24 -74 -41.667 -84 -53
c-6.66699 -7.33301 -11 -15 -13 -23h223v-74h-326v35c0 38.667 11.167 69.834 33.5 93.501s59.5 49.5 111.5 77.5c18 10 31.167 17.667 39.5 23s17.333 13.333 27 24s14.5 21 14.5 31c0 12.667 -5.16699 23 -15.5 31s-24.833 12 -43.5 12zM271.001 -28.001h-84l426 734h86z
M340.001 352.999v-71h-309v71h105v237l-89 -11v64l109 35h76v-325h108z" />
    <glyph glyph-name="threequarters" unicode="&#xbe;" horiz-adv-x="898" 
d="M299 -28h-84l426 734h86zM233 601l-2 5.00098h-162v71h296v-61l-100 -80l2 -6c36.667 -4.66699 65.167 -16.667 85.5 -36s30.5 -45.333 30.5 -78c0 -42 -16.5 -75.333 -49.5 -100s-75.833 -37 -128.5 -37c-45.333 0 -82.666 8.66699 -111.999 26s-44 42.666 -44 75.999
c0 9.33301 0.666992 17.666 2 24.999h78c4 -36.667 28.667 -55 74 -55c23.333 0 43.333 5.66699 60 17s25 27.333 25 48c0 39.333 -28.667 59 -86 59c-10 0 -25 -1.33301 -45 -4c-2.66699 4.66699 -5.33398 9.83398 -8.00098 15.501l-9 19c-3.33301 7 -6 12.167 -8 15.5z
M701 395.001h82v-236h65v-71h-65v-88h-96v88h-205v60zM589 159.001h98.001v113l-57 -65c-24.667 -28.667 -38.334 -44.667 -41.001 -48z" />
    <glyph glyph-name="questiondown" unicode="&#xbf;" horiz-adv-x="491" 
d="M262 -218c-70 0.666992 -124.001 15 -162.001 43s-57 69.667 -57 125c0 51.333 32.333 107 97 167c20.667 19.333 36.334 34.833 47.001 46.5s21 28 31 49s15 42.833 15 65.5v31h106v-22c0 -82 -31.667 -150.667 -95 -206c-54 -48 -81 -90 -81 -126
c0 -24.667 8.5 -44.167 25.5 -58.5s41.167 -21.5 72.5 -21.5c60.667 0 95 32 103 96h106c1.33301 -10.667 2 -18.667 2 -24c0 -36.667 -10.833 -68 -32.5 -94s-47.667 -44.333 -78 -55s-63.5 -16 -99.5 -16zM355.999 426c0 -19.333 -6.66699 -35.666 -20 -48.999
s-29.666 -20 -48.999 -20s-35.666 6.66699 -48.999 20s-20 29.666 -20 48.999s6.66699 35.666 20 48.999s29.666 20 48.999 20s35.666 -6.66699 48.999 -20s20 -29.666 20 -48.999z" />
    <glyph glyph-name="Agrave" unicode="&#xc0;" horiz-adv-x="657" 
d="M517 0l-58 163h-268l-58 -163h-125l257 678h126l254 -678h-128zM329 551h-6c-6 -23.333 -22.333 -75 -49 -155l-49 -139h201l-47 133c-28 86 -44.667 139.667 -50 161zM376 778l-43 -60l-198 97l66 92z" />
    <glyph glyph-name="Aacute" unicode="&#xc1;" horiz-adv-x="657" 
d="M517 0l-58 163h-268l-58 -163h-125l257 678h126l254 -678h-128zM329 551h-6c-6 -23.333 -22.333 -75 -49 -155l-49 -139h201l-47 133c-28 86 -44.667 139.667 -50 161zM318 722l-40 61l174 128l65 -92z" />
    <glyph glyph-name="Acircumflex" unicode="&#xc2;" horiz-adv-x="657" 
d="M517 0l-58 163h-268l-58 -163h-125l257 678h126l254 -678h-128zM329 551h-6c-6 -23.333 -22.333 -75 -49 -155l-49 -139h201l-47 133c-28 86 -44.667 139.667 -50 161zM454 722l-129 103l-133 -103l-46 45l141 144h81l135 -144z" />
    <glyph glyph-name="Atilde" unicode="&#xc3;" horiz-adv-x="657" 
d="M517 0l-58 163h-268l-58 -163h-125l257 678h126l254 -678h-128zM329 551h-6c-6 -23.333 -22.333 -75 -49 -155l-49 -139h201l-47 133c-28 86 -44.667 139.667 -50 161zM399 770c-17.333 0 -41.834 6.00098 -73.501 18.001s-54.5 18 -68.5 18c-24 0 -48 -12.667 -72 -38
l-49 38c10.667 27.333 26.167 48.666 46.5 63.999s42.833 23 67.5 23c14.667 0 37 -5.83301 67 -17.5s53.667 -17.5 71 -17.5c24.667 0 48.334 12 71.001 36l50 -35c-8 -26.667 -22.5 -48.167 -43.5 -64.5s-43.167 -24.5 -66.5 -24.5z" />
    <glyph glyph-name="Adieresis" unicode="&#xc4;" horiz-adv-x="657" 
d="M517 0l-58 163h-268l-58 -163h-125l257 678h126l254 -678h-128zM329 551h-6c-6 -23.333 -22.333 -75 -49 -155l-49 -139h201l-47 133c-28 86 -44.667 139.667 -50 161zM170 807c0 16.667 5.66699 30.667 17 42s25.333 17 42 17s30.834 -5.66699 42.501 -17
s17.5 -25.333 17.5 -42s-5.83301 -30.667 -17.5 -42s-25.834 -17 -42.501 -17s-30.667 5.66699 -42 17s-17 25.333 -17 42zM360 807c0 16.667 5.66699 30.667 17 42s25.333 17 42 17s30.834 -5.66699 42.501 -17s17.5 -25.333 17.5 -42s-5.83301 -30.667 -17.5 -42
s-25.834 -17 -42.501 -17s-30.667 5.66699 -42 17s-17 25.333 -17 42z" />
    <glyph glyph-name="Aring" unicode="&#xc5;" horiz-adv-x="657" 
d="M517 0l-58 163h-268l-58 -163h-125l257 678h126l254 -678h-128zM329 551h-6c-6 -23.333 -22.333 -75 -49 -155l-49 -139h201l-47 133c-28 86 -44.667 139.667 -50 161zM325 708c-32 0 -58.667 10.668 -80 32.001s-32 47.666 -32 78.999s10.667 58 32 80s48 33 80 33
s59.167 -11 81.5 -33s33.5 -48.667 33.5 -80c0 -32 -11.167 -58.5 -33.5 -79.5s-49.5 -31.5 -81.5 -31.5zM325 870.001c-12.667 0 -23.667 -5.16797 -33 -15.501s-14 -22.166 -14 -35.499s4.33301 -25 13 -35s20 -15 34 -15c15.333 0 27.333 5 36 15s13 21.667 13 35
c0 14 -4.5 26 -13.5 36s-20.833 15 -35.5 15z" />
    <glyph glyph-name="AE" unicode="&#xc6;" horiz-adv-x="983" 
d="M486 0v194h-239l-120 -194h-122l426 676h523v-92h-350v-188h319v-91h-319v-214h358v-91h-476zM486 571l-4.99902 1c-22.667 -40 -57.334 -98 -104.001 -174l-69 -113h178v286z" />
    <glyph glyph-name="Ccedilla" unicode="&#xc7;" horiz-adv-x="654" 
d="M343 -231c-36.667 0 -73.6689 6.33203 -111.002 18.999l15 50c30 -8.66699 56 -13 78 -13c20 0 36 3.66699 48 11s18 17.333 18 30c0 25.333 -16.333 38 -49 38c-18 0 -32.333 -3.33301 -43 -10l-28 23l41 77c-90 8.66699 -155.5 41.5 -196.5 98.5
s-61.5 137.833 -61.5 242.5c0 109.333 26.167 194.5 78.5 255.5s127.5 91.5 225.5 91.5c70.667 0 130.834 -17.667 180.501 -53s74.5 -84.666 74.5 -147.999c0 -6.66699 -0.666992 -13.334 -2 -20.001h-116c-2 38 -15.167 67.667 -39.5 89s-58.166 32 -101.499 32
c-117.333 0 -176 -82.333 -176 -247c0 -79.333 14 -139.833 42 -181.5s74 -62.5 138 -62.5c46.667 0 82.5 12 107.5 36s37.833 55.667 38.5 95h116c1.33301 -8 2 -15.667 2 -23c0 -63.333 -23.833 -113.166 -71.5 -149.499s-106.5 -55.5 -176.5 -57.5l-20 -35
c46 -0.666992 78.5 -10.5 97.5 -29.5s28.5 -39.5 28.5 -61.5c0 -28 -11.5 -51 -34.5 -69s-57.167 -27.333 -102.5 -28z" />
    <glyph glyph-name="Egrave" unicode="&#xc8;" horiz-adv-x="584" 
d="M64 0v676h469v-99h-349v-177h318v-100h-318v-200h358v-100h-478zM378 778l-43 -60l-198 97l66 92z" />
    <glyph glyph-name="Eacute" unicode="&#xc9;" horiz-adv-x="582" 
d="M67 0v676h469v-99h-349v-177h318v-100h-318v-200h358v-100h-478zM274 722l-40 61l174 128l65 -92z" />
    <glyph glyph-name="Ecircumflex" unicode="&#xca;" horiz-adv-x="584" 
d="M64 0v676h469v-99h-349v-177h318v-100h-318v-200h358v-100h-478zM423 722l-129 103l-133 -103l-46 45l141 144h81l135 -144z" />
    <glyph glyph-name="Edieresis" unicode="&#xcb;" horiz-adv-x="584" 
d="M64 0v676h469v-99h-349v-177h318v-100h-318v-200h358v-100h-478zM149 807c0 16.667 5.66699 30.667 17 42s25.333 17 42 17s30.834 -5.66699 42.501 -17s17.5 -25.333 17.5 -42s-5.83301 -30.667 -17.5 -42s-25.834 -17 -42.501 -17s-30.667 5.66699 -42 17
s-17 25.333 -17 42zM339 807c0 16.667 5.66699 30.667 17 42s25.333 17 42 17s30.834 -5.66699 42.501 -17s17.5 -25.333 17.5 -42s-5.83301 -30.667 -17.5 -42s-25.834 -17 -42.501 -17s-30.667 5.66699 -42 17s-17 25.333 -17 42z" />
    <glyph glyph-name="Igrave" unicode="&#xcc;" horiz-adv-x="280" 
d="M80 0v676h121v-676h-121zM197 778l-43 -60l-198 97l66 92z" />
    <glyph glyph-name="Iacute" unicode="&#xcd;" horiz-adv-x="280" 
d="M80 0v676h121v-676h-121zM123 722l-40 61l174 128l65 -92z" />
    <glyph glyph-name="Icircumflex" unicode="&#xce;" horiz-adv-x="280" 
d="M80 0v676h121v-676h-121zM270 722l-129 103l-133 -103l-46 45l141 144h81l135 -144z" />
    <glyph glyph-name="Idieresis" unicode="&#xcf;" horiz-adv-x="280" 
d="M80 0v676h121v-676h-121zM-16 807c0 16.667 5.66699 30.667 17 42s25.333 17 42 17s30.834 -5.66699 42.501 -17s17.5 -25.333 17.5 -42s-5.83301 -30.667 -17.5 -42s-25.834 -17 -42.501 -17s-30.667 5.66699 -42 17s-17 25.333 -17 42zM174 807
c0 16.667 5.66699 30.667 17 42s25.333 17 42 17s30.834 -5.66699 42.501 -17s17.5 -25.333 17.5 -42s-5.83301 -30.667 -17.5 -42s-25.834 -17 -42.501 -17s-30.667 5.66699 -42 17s-17 25.333 -17 42z" />
    <glyph glyph-name="Eth" unicode="&#xd0;" horiz-adv-x="664" 
d="M64 381v295.001h220c34 0 66.167 -3.33301 96.5 -10s59.833 -18.5 88.5 -35.5s53.5 -38.167 74.5 -63.5s37.833 -57.833 50.5 -97.5s19 -84.834 19 -135.501c0 -103.333 -30 -184.833 -90 -244.5s-139.667 -89.5 -239 -89.5h-220v308h-57v73h57zM184 99.001h79.001
c28 0 54.167 3.33301 78.5 10s48.333 18 72 34s42.5 40.5 56.5 73.5s21 72.833 21 119.5c0 49.333 -7.33301 91 -22 125s-34.334 58.833 -59.001 74.5s-48.667 26.5 -72 32.5s-48.333 9 -75 9h-79v-196h147v-73h-147v-209z" />
    <glyph glyph-name="Ntilde" unicode="&#xd1;" horiz-adv-x="697" 
d="M508 196l7.00098 1v479h119v-676h-109l-220 310c-54.667 77.333 -93.334 136 -116.001 176l-5 -2v-484h-121v676h113l197 -276c45.333 -63.333 90.333 -131.333 135 -204zM418.001 752c-17.333 0 -41.834 6.00098 -73.501 18.001s-54.5 18 -68.5 18
c-24 0 -48 -12.667 -72 -38l-49 38c10.667 27.333 26.167 48.666 46.5 63.999s42.833 23 67.5 23c15.333 0 38 -5.83301 68 -17.5s53.333 -17.5 70 -17.5c24.667 0 48.334 12 71.001 36l50 -35c-8 -26.667 -22.5 -48.167 -43.5 -64.5s-43.167 -24.5 -66.5 -24.5z" />
    <glyph glyph-name="Ograve" unicode="&#xd2;" horiz-adv-x="727" 
d="M367 683c57.333 0 106.666 -9.66699 147.999 -29s73 -46.166 95 -80.499s38 -71.166 48 -110.499s15 -83 15 -131c0 -35.333 -3 -68.666 -9 -99.999s-16.333 -61.833 -31 -91.5s-33.334 -55.334 -56.001 -77.001s-52 -39 -88 -52s-77 -19.5 -123 -19.5
c-58 0 -107.667 8.33301 -149 25s-73.666 40.667 -96.999 72s-40.166 66.666 -50.499 105.999s-15.5 84.666 -15.5 135.999c0 107.333 25.5 192.833 76.5 256.5s129.833 95.5 236.5 95.5zM365 584c-67.333 0 -115.333 -22 -144 -66s-43 -106 -43 -186
c0 -162 62.333 -243 187 -243c57.333 0 102.166 20.5 134.499 61.5s48.5 101.5 48.5 181.5c0 78 -14.667 139.5 -44 184.5s-75.666 67.5 -138.999 67.5zM432 778l-43 -60l-198 97l66 92z" />
    <glyph glyph-name="Oacute" unicode="&#xd3;" horiz-adv-x="727" 
d="M367 683c57.333 0 106.666 -9.66699 147.999 -29s73 -46.166 95 -80.499s38 -71.166 48 -110.499s15 -83 15 -131c0 -35.333 -3 -68.666 -9 -99.999s-16.333 -61.833 -31 -91.5s-33.334 -55.334 -56.001 -77.001s-52 -39 -88 -52s-77 -19.5 -123 -19.5
c-58 0 -107.667 8.33301 -149 25s-73.666 40.667 -96.999 72s-40.166 66.666 -50.499 105.999s-15.5 84.666 -15.5 135.999c0 107.333 25.5 192.833 76.5 256.5s129.833 95.5 236.5 95.5zM365 584c-67.333 0 -115.333 -22 -144 -66s-43 -106 -43 -186
c0 -162 62.333 -243 187 -243c57.333 0 102.166 20.5 134.499 61.5s48.5 101.5 48.5 181.5c0 78 -14.667 139.5 -44 184.5s-75.666 67.5 -138.999 67.5zM308 722l-40 61l174 128l65 -92z" />
    <glyph glyph-name="Ocircumflex" unicode="&#xd4;" horiz-adv-x="727" 
d="M367 683c57.333 0 106.666 -9.66699 147.999 -29s73 -46.166 95 -80.499s38 -71.166 48 -110.499s15 -83 15 -131c0 -35.333 -3 -68.666 -9 -99.999s-16.333 -61.833 -31 -91.5s-33.334 -55.334 -56.001 -77.001s-52 -39 -88 -52s-77 -19.5 -123 -19.5
c-58 0 -107.667 8.33301 -149 25s-73.666 40.667 -96.999 72s-40.166 66.666 -50.499 105.999s-15.5 84.666 -15.5 135.999c0 107.333 25.5 192.833 76.5 256.5s129.833 95.5 236.5 95.5zM365 584c-67.333 0 -115.333 -22 -144 -66s-43 -106 -43 -186
c0 -162 62.333 -243 187 -243c57.333 0 102.166 20.5 134.499 61.5s48.5 101.5 48.5 181.5c0 78 -14.667 139.5 -44 184.5s-75.666 67.5 -138.999 67.5zM489 722l-129 103l-133 -103l-46 45l141 144h81l135 -144z" />
    <glyph glyph-name="Otilde" unicode="&#xd5;" horiz-adv-x="727" 
d="M367 683c57.333 0 106.666 -9.66699 147.999 -29s73 -46.166 95 -80.499s38 -71.166 48 -110.499s15 -83 15 -131c0 -35.333 -3 -68.666 -9 -99.999s-16.333 -61.833 -31 -91.5s-33.334 -55.334 -56.001 -77.001s-52 -39 -88 -52s-77 -19.5 -123 -19.5
c-58 0 -107.667 8.33301 -149 25s-73.666 40.667 -96.999 72s-40.166 66.666 -50.499 105.999s-15.5 84.666 -15.5 135.999c0 107.333 25.5 192.833 76.5 256.5s129.833 95.5 236.5 95.5zM365 584c-67.333 0 -115.333 -22 -144 -66s-43 -106 -43 -186
c0 -162 62.333 -243 187 -243c57.333 0 102.166 20.5 134.499 61.5s48.5 101.5 48.5 181.5c0 78 -14.667 139.5 -44 184.5s-75.666 67.5 -138.999 67.5zM439 761c-17.333 0 -41.834 6.00098 -73.501 18.001s-54.5 18 -68.5 18c-24 0 -48 -12.667 -72 -38l-49 38
c10.667 27.333 26.167 48.666 46.5 63.999s42.833 23 67.5 23c14.667 0 37 -5.83301 67 -17.5s53.667 -17.5 71 -17.5c24.667 0 48.334 12 71.001 36l50 -35c-8 -26.667 -22.5 -48.167 -43.5 -64.5s-43.167 -24.5 -66.5 -24.5z" />
    <glyph glyph-name="Odieresis" unicode="&#xd6;" horiz-adv-x="727" 
d="M367 683c57.333 0 106.666 -9.66699 147.999 -29s73 -46.166 95 -80.499s38 -71.166 48 -110.499s15 -83 15 -131c0 -35.333 -3 -68.666 -9 -99.999s-16.333 -61.833 -31 -91.5s-33.334 -55.334 -56.001 -77.001s-52 -39 -88 -52s-77 -19.5 -123 -19.5
c-58 0 -107.667 8.33301 -149 25s-73.666 40.667 -96.999 72s-40.166 66.666 -50.499 105.999s-15.5 84.666 -15.5 135.999c0 107.333 25.5 192.833 76.5 256.5s129.833 95.5 236.5 95.5zM365 584c-67.333 0 -115.333 -22 -144 -66s-43 -106 -43 -186
c0 -162 62.333 -243 187 -243c57.333 0 102.166 20.5 134.499 61.5s48.5 101.5 48.5 181.5c0 78 -14.667 139.5 -44 184.5s-75.666 67.5 -138.999 67.5zM207 808c0 16.667 5.66699 30.667 17 42s25.333 17 42 17s30.834 -5.66699 42.501 -17s17.5 -25.333 17.5 -42
s-5.83301 -30.667 -17.5 -42s-25.834 -17 -42.501 -17s-30.667 5.66699 -42 17s-17 25.333 -17 42zM397 808c0 16.667 5.66699 30.667 17 42s25.333 17 42 17s30.834 -5.66699 42.501 -17s17.5 -25.333 17.5 -42s-5.83301 -30.667 -17.5 -42s-25.834 -17 -42.501 -17
s-30.667 5.66699 -42 17s-17 25.333 -17 42z" />
    <glyph glyph-name="multiply" unicode="&#xd7;" horiz-adv-x="630" 
d="M443 79l-128 128l-128 -128l-69 68l128 128l-128 128l69 69l128 -128l128 128l68 -68l-128 -129l128 -128z" />
    <glyph glyph-name="Oslash" unicode="&#xd8;" horiz-adv-x="727" 
d="M367 683c80 0 145.002 -19.666 195.002 -58.999l51 60l51 -44l-56 -65c43.333 -60.667 65 -141.667 65 -243c0 -35.333 -3 -68.666 -9 -99.999s-16.333 -61.833 -31 -91.5s-33.334 -55.334 -56.001 -77.001s-52 -39 -88 -52s-77 -19.5 -123 -19.5
c-86.667 0 -155.334 19 -206.001 57l-53 -62l-52 45l57 67c-38.667 55.333 -58 132.666 -58 231.999c0 107.333 25.5 192.833 76.5 256.5s129.833 95.5 236.5 95.5zM548.002 332.001c0 59.333 -7.99902 107.667 -23.999 145l-289 -340c30 -32 73.333 -48 130 -48
c57.333 0 102.166 20.5 134.499 61.5s48.5 101.5 48.5 181.5zM365.003 584.002c-67.333 0 -115.333 -22 -144 -66s-43 -106 -43 -186c0 -56 6.66699 -100.667 20 -134l288 339c-30 31.333 -70.333 47 -121 47z" />
    <glyph glyph-name="Ugrave" unicode="&#xd9;" horiz-adv-x="696" 
d="M631 676v-404.999c0 -186 -92.667 -279 -278 -279c-104.667 0 -179 23.5 -223 70.5s-66 116.833 -66 209.5v404h121v-408c0 -66 14.5 -112.333 43.5 -139s70.833 -40 125.5 -40c48 0 86.333 14.667 115 44s43 74.666 43 135.999v407h119zM436 778.001l-43 -60l-198 97
l66 92z" />
    <glyph glyph-name="Uacute" unicode="&#xda;" horiz-adv-x="696" 
d="M631 676v-404.999c0 -186 -92.667 -279 -278 -279c-104.667 0 -179 23.5 -223 70.5s-66 116.833 -66 209.5v404h121v-408c0 -66 14.5 -112.333 43.5 -139s70.833 -40 125.5 -40c48 0 86.333 14.667 115 44s43 74.666 43 135.999v407h119zM315 722.001l-40 61l174 128
l65 -92z" />
    <glyph glyph-name="Ucircumflex" unicode="&#xdb;" horiz-adv-x="696" 
d="M631 676v-404.999c0 -186 -92.667 -279 -278 -279c-104.667 0 -179 23.5 -223 70.5s-66 116.833 -66 209.5v404h121v-408c0 -66 14.5 -112.333 43.5 -139s70.833 -40 125.5 -40c48 0 86.333 14.667 115 44s43 74.666 43 135.999v407h119zM481 722.001l-129 103l-133 -103
l-46 45l141 144h81l135 -144z" />
    <glyph glyph-name="Udieresis" unicode="&#xdc;" horiz-adv-x="696" 
d="M631 676v-404.999c0 -186 -92.667 -279 -278 -279c-104.667 0 -179 23.5 -223 70.5s-66 116.833 -66 209.5v404h121v-408c0 -66 14.5 -112.333 43.5 -139s70.833 -40 125.5 -40c48 0 86.333 14.667 115 44s43 74.666 43 135.999v407h119zM196 807.001
c0 16.667 5.66699 30.667 17 42s25.333 17 42 17s30.834 -5.66699 42.501 -17s17.5 -25.333 17.5 -42s-5.83301 -30.667 -17.5 -42s-25.834 -17 -42.501 -17s-30.667 5.66699 -42 17s-17 25.333 -17 42zM386 807.001c0 16.667 5.66699 30.667 17 42s25.333 17 42 17
s30.834 -5.66699 42.501 -17s17.5 -25.333 17.5 -42s-5.83301 -30.667 -17.5 -42s-25.834 -17 -42.501 -17s-30.667 5.66699 -42 17s-17 25.333 -17 42z" />
    <glyph glyph-name="Yacute" unicode="&#xdd;" horiz-adv-x="606" 
d="M297 361l8 0.000976562c19.333 49.333 46 105.666 80 168.999l78 145h129l-116.5 -208.5l-116.5 -207.5v-259h-121v258l-231 417h132l80 -151c33.333 -62.667 59.333 -117 78 -163zM268 722.001l-40 61l174 128l65 -92z" />
    <glyph glyph-name="Thorn" unicode="&#xde;" horiz-adv-x="609" 
d="M70 0l0.000976562 677h118v-121h158c77.333 0 137.166 -20.167 179.499 -60.5s63.5 -92.833 63.5 -157.5c0 -24.667 -4.16699 -48.834 -12.5 -72.501s-21.333 -46.667 -39 -69s-43 -40.166 -76 -53.499s-71.5 -20 -115.5 -20h-157v-123h-119zM342.001 470
l-154 -0.000976562v-260h154c36 0 66.833 10.333 92.5 31s38.5 53.334 38.5 98.001c0 40.667 -12.333 72.667 -37 96s-56 35 -94 35z" />
    <glyph glyph-name="germandbls" unicode="&#xdf;" horiz-adv-x="577" 
d="M278 714c66.667 0 118.005 -15.667 154.005 -47s54 -74 54 -128c0 -18 -5.33301 -39 -16 -63s-28.334 -42 -53.001 -54v-5c35.333 -11.333 62.666 -34.5 81.999 -69.5s29 -75.167 29 -120.5c0 -64 -17.333 -119.167 -52 -165.5s-88.334 -69.5 -161.001 -69.5
c-29.333 0 -52 2.66699 -68 8l16 85c11.333 -2 21.333 -3 30 -3c38 0 66.667 14.167 86 42.5s29.666 64.833 30.999 109.5c0 91.333 -43.667 137 -131 137v76c62 2 93 31.667 93 89c0 30.667 -8.5 53.667 -25.5 69s-40.5 23 -70.5 23c-26 0 -46.833 -8.66699 -62.5 -26
s-25.5 -35.333 -29.5 -54s-6 -38.667 -6 -60v-488h-116v490c0 66.667 18.167 120.667 54.5 162s90.166 62 161.499 62z" />
    <glyph glyph-name="agrave" unicode="&#xe0;" horiz-adv-x="533" 
d="M475 324v-324h-93c-9.33301 14.667 -14.333 37 -15 67h-5c-16.667 -26.667 -39.5 -46 -68.5 -58s-58.5 -18 -88.5 -18c-52 0 -93.167 12.333 -123.5 37s-45.5 61.334 -45.5 110.001c0 108 78 162 234 162c23.333 0 53 -2 89 -6v24c0 59.333 -31.333 89 -94 89
c-48.667 0 -77.667 -18.667 -87 -56h-104c-0.666992 4 -1 9.33301 -1 16c0 30.667 10.667 56 32 76s45.833 33.667 73.5 41s57.167 11 88.5 11c76.667 0 130.5 -15.333 161.5 -46s46.5 -72.334 46.5 -125.001zM360 218c-25.333 4.66699 -52.667 7 -82 7
c-83.333 0 -125 -27.333 -125 -82c0 -19.333 7.33301 -35 22 -47s34 -18 58 -18c40 0 71.167 11 93.5 33s33.5 47.333 33.5 76v31zM358.999 592l-55 -49l-163 147l83 74z" />
    <glyph glyph-name="aacute" unicode="&#xe1;" horiz-adv-x="533" 
d="M475 324v-324h-93c-9.33301 14.667 -14.333 37 -15 67h-5c-16.667 -26.667 -39.5 -46 -68.5 -58s-58.5 -18 -88.5 -18c-52 0 -93.167 12.333 -123.5 37s-45.5 61.334 -45.5 110.001c0 108 78 162 234 162c23.333 0 53 -2 89 -6v24c0 59.333 -31.333 89 -94 89
c-48.667 0 -77.667 -18.667 -87 -56h-104c-0.666992 4 -1 9.33301 -1 16c0 30.667 10.667 56 32 76s45.833 33.667 73.5 41s57.167 11 88.5 11c76.667 0 130.5 -15.333 161.5 -46s46.5 -72.334 46.5 -125.001zM360 218c-25.333 4.66699 -52.667 7 -82 7
c-83.333 0 -125 -27.333 -125 -82c0 -19.333 7.33301 -35 22 -47s34 -18 58 -18c40 0 71.167 11 93.5 33s33.5 47.333 33.5 76v31zM253.999 544l-54 49l142 168l79 -74z" />
    <glyph glyph-name="acircumflex" unicode="&#xe2;" horiz-adv-x="533" 
d="M475 324v-324h-93c-9.33301 14.667 -14.333 37 -15 67h-5c-16.667 -26.667 -39.5 -46 -68.5 -58s-58.5 -18 -88.5 -18c-52 0 -93.167 12.333 -123.5 37s-45.5 61.334 -45.5 110.001c0 108 78 162 234 162c23.333 0 53 -2 89 -6v24c0 59.333 -31.333 89 -94 89
c-48.667 0 -77.667 -18.667 -87 -56h-104c-0.666992 4 -1 9.33301 -1 16c0 30.667 10.667 56 32 76s45.833 33.667 73.5 41s57.167 11 88.5 11c76.667 0 130.5 -15.333 161.5 -46s46.5 -72.334 46.5 -125.001zM360 218c-25.333 4.66699 -52.667 7 -82 7
c-83.333 0 -125 -27.333 -125 -82c0 -19.333 7.33301 -35 22 -47s34 -18 58 -18c40 0 71.167 11 93.5 33s33.5 47.333 33.5 76v31zM400.999 546l-127 107l-134 -107l-46 45l141 150h81l137 -151z" />
    <glyph glyph-name="atilde" unicode="&#xe3;" horiz-adv-x="533" 
d="M475 324v-324h-93c-9.33301 14.667 -14.333 37 -15 67h-5c-16.667 -26.667 -39.5 -46 -68.5 -58s-58.5 -18 -88.5 -18c-52 0 -93.167 12.333 -123.5 37s-45.5 61.334 -45.5 110.001c0 108 78 162 234 162c23.333 0 53 -2 89 -6v24c0 59.333 -31.333 89 -94 89
c-48.667 0 -77.667 -18.667 -87 -56h-104c-0.666992 4 -1 9.33301 -1 16c0 30.667 10.667 56 32 76s45.833 33.667 73.5 41s57.167 11 88.5 11c76.667 0 130.5 -15.333 161.5 -46s46.5 -72.334 46.5 -125.001zM360 218c-25.333 4.66699 -52.667 7 -82 7
c-83.333 0 -125 -27.333 -125 -82c0 -19.333 7.33301 -35 22 -47s34 -18 58 -18c40 0 71.167 11 93.5 33s33.5 47.333 33.5 76v31zM348.999 576c-17.333 0 -41.834 6.00098 -73.501 18.001s-54.5 18 -68.5 18c-24 0 -48 -12.667 -72 -38l-49 38
c10.667 27.333 26.167 48.666 46.5 63.999s42.833 23 67.5 23c15.333 0 37.833 -5.83301 67.5 -17.5s53.167 -17.5 70.5 -17.5c24.667 0 48.334 12 71.001 36l50 -35c-8 -26.667 -22.5 -48.167 -43.5 -64.5s-43.167 -24.5 -66.5 -24.5z" />
    <glyph glyph-name="adieresis" unicode="&#xe4;" horiz-adv-x="533" 
d="M475 324v-324h-93c-9.33301 14.667 -14.333 37 -15 67h-5c-16.667 -26.667 -39.5 -46 -68.5 -58s-58.5 -18 -88.5 -18c-52 0 -93.167 12.333 -123.5 37s-45.5 61.334 -45.5 110.001c0 108 78 162 234 162c23.333 0 53 -2 89 -6v24c0 59.333 -31.333 89 -94 89
c-48.667 0 -77.667 -18.667 -87 -56h-104c-0.666992 4 -1 9.33301 -1 16c0 30.667 10.667 56 32 76s45.833 33.667 73.5 41s57.167 11 88.5 11c76.667 0 130.5 -15.333 161.5 -46s46.5 -72.334 46.5 -125.001zM360 218c-25.333 4.66699 -52.667 7 -82 7
c-83.333 0 -125 -27.333 -125 -82c0 -19.333 7.33301 -35 22 -47s34 -18 58 -18c40 0 71.167 11 93.5 33s33.5 47.333 33.5 76v31zM111.999 627c0 16.667 5.83301 30.667 17.5 42s25.5 17 41.5 17c16.667 0 30.834 -5.66699 42.501 -17s17.5 -25.333 17.5 -42
s-5.83301 -30.667 -17.5 -42s-25.834 -17 -42.501 -17c-16 0 -29.833 5.66699 -41.5 17s-17.5 25.333 -17.5 42zM301.999 627c0 16.667 5.66699 30.667 17 42s25.333 17 42 17s30.834 -5.66699 42.501 -17s17.5 -25.333 17.5 -42s-5.83301 -30.667 -17.5 -42
s-25.834 -17 -42.501 -17s-30.667 5.66699 -42 17s-17 25.333 -17 42z" />
    <glyph glyph-name="aring" unicode="&#xe5;" horiz-adv-x="533" 
d="M475 324v-324h-93c-9.33301 14.667 -14.333 37 -15 67h-5c-16.667 -26.667 -39.5 -46 -68.5 -58s-58.5 -18 -88.5 -18c-52 0 -93.167 12.333 -123.5 37s-45.5 61.334 -45.5 110.001c0 108 78 162 234 162c23.333 0 53 -2 89 -6v24c0 59.333 -31.333 89 -94 89
c-48.667 0 -77.667 -18.667 -87 -56h-104c-0.666992 4 -1 9.33301 -1 16c0 30.667 10.667 56 32 76s45.833 33.667 73.5 41s57.167 11 88.5 11c76.667 0 130.5 -15.333 161.5 -46s46.5 -72.334 46.5 -125.001zM360 218c-25.333 4.66699 -52.667 7 -82 7
c-83.333 0 -125 -27.333 -125 -82c0 -19.333 7.33301 -35 22 -47s34 -18 58 -18c40 0 71.167 11 93.5 33s33.5 47.333 33.5 76v31zM272.999 543c-32 0 -58.667 10.668 -80 32.001s-32 47.666 -32 78.999s10.667 58 32 80s48 33 80 33s59.167 -11 81.5 -33
s33.5 -48.667 33.5 -80c0 -32 -11.167 -58.5 -33.5 -79.5s-49.5 -31.5 -81.5 -31.5zM272.999 705.001c-12.667 0 -23.667 -5.16797 -33 -15.501s-14 -22.166 -14 -35.499s4.33301 -25 13 -35s20 -15 34 -15c15.333 0 27.333 5 36 15s13 21.667 13 35c0 14 -4.5 26 -13.5 36
s-20.833 15 -35.5 15z" />
    <glyph glyph-name="ae" unicode="&#xe6;" horiz-adv-x="867" 
d="M597 493c72.667 0 127.165 -19.666 163.498 -58.999s54.5 -91.666 54.5 -156.999c0 -20 -1.33301 -38.333 -4 -55h-325c0 -46.667 8.66699 -81.834 26 -105.501s47 -35.5 89 -35.5c62 0 96.667 24.667 104 74h106c0.666992 -4 1 -9.66699 1 -17
c0 -48.667 -20.5 -85.167 -61.5 -109.5s-90.833 -36.5 -149.5 -36.5c-96 0 -160 28 -192 84c-57.333 -56.667 -126 -85 -206 -85c-51.333 0 -92.166 12.333 -122.499 37s-45.5 60 -45.5 106c0 105.333 81.667 158 245 158h85v21c0 28 -8.83301 50.167 -26.5 66.5
s-42.5 24.5 -74.5 24.5c-49.333 0 -78.666 -18.333 -87.999 -55h-106c0 1.33301 -0.166992 3.66602 -0.5 6.99902s-0.5 6 -0.5 8c0 30 10.833 55 32.5 75s46.667 33.5 75 40.5s58.833 10.5 91.5 10.5c81.333 0 137 -20 167 -60c38.667 42 92.667 63 162 63zM367.998 221.001
l-104 0.000976562c-35.333 0 -62.5 -6.83301 -81.5 -20.5s-28.5 -32.834 -28.5 -57.501c0 -20 7.5 -35.833 22.5 -47.5s34.5 -17.5 58.5 -17.5c55.333 0 103 21.333 143 64c-6.66699 32 -10 58.333 -10 79zM488.998 291.002h208.999
c-1.33301 74.667 -35.666 112 -102.999 112c-32 0 -57 -10 -75 -30s-28.333 -47.333 -31 -82z" />
    <glyph glyph-name="ccedilla" unicode="&#xe7;" horiz-adv-x="524" 
d="M258 -228c-36.667 0 -73.666 6.33594 -110.999 19.0029l15 50c30 -8.66699 56 -13 78 -13c20 0 36 3.66699 48 11s18 17.333 18 30c0 25.333 -16.333 38 -49 38c-18 0 -32.333 -3.33301 -43 -10l-28 23l40 77c-118.667 18 -178 97.667 -178 239
c0 81.333 19.667 144.5 59 189.5s96.666 67.5 171.999 67.5c56.667 0 103.834 -12.833 141.501 -38.5s56.5 -62.167 56.5 -109.5c0 -6.66699 -0.666992 -13.334 -2 -20.001h-107c-2 26.667 -12 45.667 -30 57s-37.333 17 -58 17c-76 0 -114 -52.667 -114 -158
c0 -50.667 8.83301 -89.334 26.5 -116.001s47.167 -40 88.5 -40c25.333 0 47.166 6.66699 65.499 20s28.5 35 30.5 65h106c1.33301 -9.33301 2 -16 2 -20c0 -49.333 -18.667 -87.833 -56 -115.5s-85 -41.834 -143 -42.501l-17 -32c46 -0.666992 78.5 -10.5 97.5 -29.5
s28.5 -39.5 28.5 -61.5c0 -28 -11.5 -51 -34.5 -69s-57.167 -27.333 -102.5 -28z" />
    <glyph glyph-name="egrave" unicode="&#xe8;" horiz-adv-x="548" 
d="M276 403c-32 0 -57.333 -9.49902 -76 -28.499s-29.334 -45.5 -32.001 -79.5h211c-0.666992 33.333 -9.66699 59.666 -27 78.999s-42.666 29 -75.999 29zM278 493.001c72 0 126.166 -20.332 162.499 -60.999s54.5 -92.334 54.5 -155.001c0 -16 -1.66699 -34 -5 -54h-326
c0 -94.667 39.667 -142 119 -142c60.667 0 94.334 24.667 101.001 74h106c0.666992 -4 1 -9.66699 1 -17c0 -49.333 -20.167 -86 -60.5 -110s-89.833 -36 -148.5 -36c-156 0 -234 81.333 -234 244c0 76 19.333 137.833 58 185.5s96 71.5 172 71.5zM356.999 592.002l-55 -49
l-163 147l83 74z" />
    <glyph glyph-name="eacute" unicode="&#xe9;" horiz-adv-x="548" 
d="M276 403c-32 0 -57.333 -9.49902 -76 -28.499s-29.334 -45.5 -32.001 -79.5h211c-0.666992 33.333 -9.66699 59.666 -27 78.999s-42.666 29 -75.999 29zM278 493.001c72 0 126.166 -20.332 162.499 -60.999s54.5 -92.334 54.5 -155.001c0 -16 -1.66699 -34 -5 -54h-326
c0 -94.667 39.667 -142 119 -142c60.667 0 94.334 24.667 101.001 74h106c0.666992 -4 1 -9.66699 1 -17c0 -49.333 -20.167 -86 -60.5 -110s-89.833 -36 -148.5 -36c-156 0 -234 81.333 -234 244c0 76 19.333 137.833 58 185.5s96 71.5 172 71.5zM272.999 544.002l-54 49
l142 168l79 -74z" />
    <glyph glyph-name="ecircumflex" unicode="&#xea;" horiz-adv-x="548" 
d="M276 403c-32 0 -57.333 -9.49902 -76 -28.499s-29.334 -45.5 -32.001 -79.5h211c-0.666992 33.333 -9.66699 59.666 -27 78.999s-42.666 29 -75.999 29zM278 493.001c72 0 126.166 -20.332 162.499 -60.999s54.5 -92.334 54.5 -155.001c0 -16 -1.66699 -34 -5 -54h-326
c0 -94.667 39.667 -142 119 -142c60.667 0 94.334 24.667 101.001 74h106c0.666992 -4 1 -9.66699 1 -17c0 -49.333 -20.167 -86 -60.5 -110s-89.833 -36 -148.5 -36c-156 0 -234 81.333 -234 244c0 76 19.333 137.833 58 185.5s96 71.5 172 71.5zM409.999 546.002l-127 107
l-134 -107l-46 45l141 150h81l137 -151z" />
    <glyph glyph-name="edieresis" unicode="&#xeb;" horiz-adv-x="548" 
d="M276 403c-32 0 -57.333 -9.49902 -76 -28.499s-29.334 -45.5 -32.001 -79.5h211c-0.666992 33.333 -9.66699 59.666 -27 78.999s-42.666 29 -75.999 29zM278 493.001c72 0 126.166 -20.332 162.499 -60.999s54.5 -92.334 54.5 -155.001c0 -16 -1.66699 -34 -5 -54h-326
c0 -94.667 39.667 -142 119 -142c60.667 0 94.334 24.667 101.001 74h106c0.666992 -4 1 -9.66699 1 -17c0 -49.333 -20.167 -86 -60.5 -110s-89.833 -36 -148.5 -36c-156 0 -234 81.333 -234 244c0 76 19.333 137.833 58 185.5s96 71.5 172 71.5zM128.999 627.002
c0 16.667 5.83301 30.667 17.5 42s25.5 17 41.5 17c16.667 0 30.834 -5.66699 42.501 -17s17.5 -25.333 17.5 -42s-5.83301 -30.667 -17.5 -42s-25.834 -17 -42.501 -17c-16 0 -29.833 5.66699 -41.5 17s-17.5 25.333 -17.5 42zM318.999 627.002
c0 16.667 5.66699 30.667 17 42s25.333 17 42 17s30.834 -5.66699 42.501 -17s17.5 -25.333 17.5 -42s-5.83301 -30.667 -17.5 -42s-25.834 -17 -42.501 -17s-30.667 5.66699 -42 17s-17 25.333 -17 42z" />
    <glyph glyph-name="igrave" unicode="&#xec;" horiz-adv-x="279" 
d="M200 592l-55 -49l-163 147l83 74zM79 0v486h117v-486h-117z" />
    <glyph glyph-name="iacute" unicode="&#xed;" horiz-adv-x="279" 
d="M135 544l-54 49l142 168l79 -74zM79 0v486h117v-486h-117z" />
    <glyph glyph-name="icircumflex" unicode="&#xee;" horiz-adv-x="279" 
d="M79 0v486h117v-486h-117zM265 546l-127 107l-134 -107l-46 45l141 150h81l137 -151z" />
    <glyph glyph-name="idieresis" unicode="&#xef;" horiz-adv-x="279" 
d="M-16 627c0 16.667 5.83301 30.667 17.5 42s25.5 17 41.5 17c16.667 0 30.834 -5.66699 42.501 -17s17.5 -25.333 17.5 -42s-5.83301 -30.667 -17.5 -42s-25.834 -17 -42.501 -17c-16 0 -29.833 5.66699 -41.5 17s-17.5 25.333 -17.5 42zM174 627
c0 16.667 5.66699 30.667 17 42s25.333 17 42 17s30.834 -5.66699 42.501 -17s17.5 -25.333 17.5 -42s-5.83301 -30.667 -17.5 -42s-25.834 -17 -42.501 -17s-30.667 5.66699 -42 17s-17 25.333 -17 42zM79 0v486h117v-486h-117z" />
    <glyph glyph-name="eth" unicode="&#xf0;" horiz-adv-x="573" 
d="M272 464c70 0 117.332 -21.333 141.999 -64l5 1c-2 60 -19 109.333 -51 148l-70 -53l-34 41l64 50c-35.333 26.667 -78.333 43.667 -129 51l16 86c79.333 -10.667 143.333 -35.334 192 -74.001l66 52l38 -42l-64 -49c52.667 -64.667 79 -167.667 79 -309
c0 -32 -2 -61.667 -6 -89s-11.5 -55 -22.5 -83s-25.333 -51.667 -43 -71s-41.167 -35.166 -70.5 -47.499s-63 -18.5 -101 -18.5c-81.333 0 -140.666 20.833 -177.999 62.5s-56 98.167 -56 169.5c0 70 19.167 127.333 57.5 172s93.5 67 165.5 67zM280.999 375
c-42 0 -72.667 -13.832 -92 -41.499s-29 -63.834 -29 -108.501c0 -96.667 40.333 -145 121 -145c37.333 0 66.333 12.167 87 36.5s31 60.833 31 109.5c0 44.667 -9.5 80.667 -28.5 108s-48.833 41 -89.5 41z" />
    <glyph glyph-name="ntilde" unicode="&#xf1;" horiz-adv-x="564" 
d="M328 493c36.667 0 67.333 -5.33398 92 -16.001s43 -26.167 55 -46.5s20.167 -41.333 24.5 -63s6.5 -47.167 6.5 -76.5v-291h-118v283c0 39.333 -7.33301 69.666 -22 90.999s-40 32 -76 32c-38 0 -66.667 -14.167 -86 -42.5s-29 -60.166 -29 -95.499v-268h-118v486h94
c13.333 -18 20 -41.667 20 -71h4c18 26.667 41.5 46.334 70.5 59.001s56.5 19 82.5 19zM352.999 573.999c-17.333 0 -41.834 6.00098 -73.501 18.001s-54.5 18 -68.5 18c-24 0 -48 -12.667 -72 -38l-49 38c10.667 27.333 26.167 48.666 46.5 63.999s42.833 23 67.5 23
c14.667 0 37 -5.83301 67 -17.5s53.667 -17.5 71 -17.5c24.667 0 48.334 12 71.001 36l50 -35c-8 -26.667 -22.5 -48.167 -43.5 -64.5s-43.167 -24.5 -66.5 -24.5z" />
    <glyph glyph-name="ograve" unicode="&#xf2;" horiz-adv-x="577" 
d="M290 494c35.333 0 66.8281 -4.83398 94.4951 -14.501s50.334 -22.334 68.001 -38.001s32.334 -34.5 44.001 -56.5s19.834 -44.667 24.501 -68s7 -48.333 7 -75c0 -32 -4 -62.167 -12 -90.5s-20.667 -54.666 -38 -78.999s-42.166 -43.666 -74.499 -57.999
s-70.166 -21.5 -113.499 -21.5c-160.667 0 -241 82.667 -241 248c0 75.333 20.167 136.333 60.5 183s100.5 70 180.5 70zM289.995 400.999c-82.667 0 -124 -53.334 -124 -160.001c0 -105.333 41.333 -158 124 -158c38 0 67.333 13.333 88 40s31 66.334 31 119.001
c0 106 -39.667 159 -119 159zM354.995 591.998l-55 -49l-163 147l83 74z" />
    <glyph glyph-name="oacute" unicode="&#xf3;" horiz-adv-x="577" 
d="M290 494c35.333 0 66.8281 -4.83398 94.4951 -14.501s50.334 -22.334 68.001 -38.001s32.334 -34.5 44.001 -56.5s19.834 -44.667 24.501 -68s7 -48.333 7 -75c0 -32 -4 -62.167 -12 -90.5s-20.667 -54.666 -38 -78.999s-42.166 -43.666 -74.499 -57.999
s-70.166 -21.5 -113.499 -21.5c-160.667 0 -241 82.667 -241 248c0 75.333 20.167 136.333 60.5 183s100.5 70 180.5 70zM289.995 400.999c-82.667 0 -124 -53.334 -124 -160.001c0 -105.333 41.333 -158 124 -158c38 0 67.333 13.333 88 40s31 66.334 31 119.001
c0 106 -39.667 159 -119 159zM284.995 543.998l-54 49l142 168l79 -74z" />
    <glyph glyph-name="ocircumflex" unicode="&#xf4;" horiz-adv-x="577" 
d="M290 494c35.333 0 66.8281 -4.83398 94.4951 -14.501s50.334 -22.334 68.001 -38.001s32.334 -34.5 44.001 -56.5s19.834 -44.667 24.501 -68s7 -48.333 7 -75c0 -32 -4 -62.167 -12 -90.5s-20.667 -54.666 -38 -78.999s-42.166 -43.666 -74.499 -57.999
s-70.166 -21.5 -113.499 -21.5c-160.667 0 -241 82.667 -241 248c0 75.333 20.167 136.333 60.5 183s100.5 70 180.5 70zM289.995 400.999c-82.667 0 -124 -53.334 -124 -160.001c0 -105.333 41.333 -158 124 -158c38 0 67.333 13.333 88 40s31 66.334 31 119.001
c0 106 -39.667 159 -119 159zM419.995 545.998l-127 107l-134 -107l-46 45l141 150h81l137 -151z" />
    <glyph glyph-name="otilde" unicode="&#xf5;" horiz-adv-x="577" 
d="M290 494c35.333 0 66.8281 -4.83398 94.4951 -14.501s50.334 -22.334 68.001 -38.001s32.334 -34.5 44.001 -56.5s19.834 -44.667 24.501 -68s7 -48.333 7 -75c0 -32 -4 -62.167 -12 -90.5s-20.667 -54.666 -38 -78.999s-42.166 -43.666 -74.499 -57.999
s-70.166 -21.5 -113.499 -21.5c-160.667 0 -241 82.667 -241 248c0 75.333 20.167 136.333 60.5 183s100.5 70 180.5 70zM289.995 400.999c-82.667 0 -124 -53.334 -124 -160.001c0 -105.333 41.333 -158 124 -158c38 0 67.333 13.333 88 40s31 66.334 31 119.001
c0 106 -39.667 159 -119 159zM359.995 573.998c-17.333 0 -41.834 6.00098 -73.501 18.001s-54.5 18 -68.5 18c-24 0 -48 -12.667 -72 -38l-49 38c10.667 27.333 26.167 48.666 46.5 63.999s42.833 23 67.5 23c15.333 0 38 -5.83301 68 -17.5s53.333 -17.5 70 -17.5
c24.667 0 48.334 12 71.001 36l50 -35c-8 -26.667 -22.5 -48.167 -43.5 -64.5s-43.167 -24.5 -66.5 -24.5z" />
    <glyph glyph-name="odieresis" unicode="&#xf6;" horiz-adv-x="577" 
d="M290 494c35.333 0 66.8281 -4.83398 94.4951 -14.501s50.334 -22.334 68.001 -38.001s32.334 -34.5 44.001 -56.5s19.834 -44.667 24.501 -68s7 -48.333 7 -75c0 -32 -4 -62.167 -12 -90.5s-20.667 -54.666 -38 -78.999s-42.166 -43.666 -74.499 -57.999
s-70.166 -21.5 -113.499 -21.5c-160.667 0 -241 82.667 -241 248c0 75.333 20.167 136.333 60.5 183s100.5 70 180.5 70zM289.995 400.999c-82.667 0 -124 -53.334 -124 -160.001c0 -105.333 41.333 -158 124 -158c38 0 67.333 13.333 88 40s31 66.334 31 119.001
c0 106 -39.667 159 -119 159zM131.995 626.998c0 16.667 5.83301 30.667 17.5 42s25.5 17 41.5 17c16.667 0 30.834 -5.66699 42.501 -17s17.5 -25.333 17.5 -42s-5.83301 -30.667 -17.5 -42s-25.834 -17 -42.501 -17c-16 0 -29.833 5.66699 -41.5 17s-17.5 25.333 -17.5 42
zM321.995 626.998c0 16.667 5.66699 30.667 17 42s25.333 17 42 17s30.834 -5.66699 42.501 -17s17.5 -25.333 17.5 -42s-5.83301 -30.667 -17.5 -42s-25.834 -17 -42.501 -17s-30.667 5.66699 -42 17s-17 25.333 -17 42z" />
    <glyph glyph-name="divide" unicode="&#xf7;" horiz-adv-x="630" 
d="M525 222h-421v87h421v-87zM256 417c0 18 6.16699 33.167 18.5 45.5s27.5 18.5 45.5 18.5c17.333 0 32.333 -6.16699 45 -18.5s19 -27.5 19 -45.5c0 -17.333 -6.33301 -32.333 -19 -45s-27.667 -19 -45 -19c-18 0 -33.167 6.33301 -45.5 19s-18.5 27.667 -18.5 45z
M256 112c0 18 6.16699 33.333 18.5 46s27.5 19 45.5 19c17.333 0 32.333 -6.33301 45 -19s19 -28 19 -46c0 -17.333 -6.33301 -32.166 -19 -44.499s-27.667 -18.5 -45 -18.5c-18 0 -33.167 6.16699 -45.5 18.5s-18.5 27.166 -18.5 44.499z" />
    <glyph glyph-name="oslash" unicode="&#xf8;" horiz-adv-x="577" 
d="M290 494c64.667 0 116.665 -16.334 155.998 -49.001l49 49l42 -41l-51 -52c28 -42 42 -95 42 -159c0 -32 -4 -62.167 -12 -90.5s-20.667 -54.666 -38 -78.999s-42.166 -43.666 -74.499 -57.999s-70.166 -21.5 -113.499 -21.5c-69.333 0 -123.333 15.667 -162 47l-47 -46
l-42 42l48 48c-25.333 39.333 -38 91.666 -38 156.999c0 75.333 20.167 136.333 60.5 183s100.5 70 180.5 70zM408.998 241.999c0 28 -3 52.332 -9 72.999l-197 -200c19.333 -21.333 48.333 -32 87 -32c38 0 67.333 13.333 88 40s31 66.334 31 119.001zM289.998 400.998
c-82.667 0 -124.001 -53.333 -124.001 -160c0 -26.667 3.33301 -49.667 10 -69l196 198c-19.333 20.667 -46.666 31 -81.999 31z" />
    <glyph glyph-name="ugrave" unicode="&#xf9;" horiz-adv-x="553" 
d="M384 70l-4 0.000976562c-18.667 -27.333 -42.167 -47.166 -70.5 -59.499s-54.833 -18.5 -79.5 -18.5c-35.333 0 -65 5 -89 15s-41.667 24.5 -53 43.5s-19.166 38.333 -23.499 58s-6.5 42.834 -6.5 69.501v308h118v-285c0 -40.667 6.16699 -70.834 18.5 -90.501
s37.166 -29.5 74.499 -29.5c36 0 63.167 13.667 81.5 41s27.5 58.666 27.5 93.999v270h117v-486h-93c-12 17.333 -18 40.666 -18 69.999zM343 592.001l-55 -49l-163 147l83 74z" />
    <glyph glyph-name="uacute" unicode="&#xfa;" horiz-adv-x="553" 
d="M384 70l-4 0.000976562c-18.667 -27.333 -42.167 -47.166 -70.5 -59.499s-54.833 -18.5 -79.5 -18.5c-35.333 0 -65 5 -89 15s-41.667 24.5 -53 43.5s-19.166 38.333 -23.499 58s-6.5 42.834 -6.5 69.501v308h118v-285c0 -40.667 6.16699 -70.834 18.5 -90.501
s37.166 -29.5 74.499 -29.5c36 0 63.167 13.667 81.5 41s27.5 58.666 27.5 93.999v270h117v-486h-93c-12 17.333 -18 40.666 -18 69.999zM269 544.001l-54 49l142 168l79 -74z" />
    <glyph glyph-name="ucircumflex" unicode="&#xfb;" horiz-adv-x="553" 
d="M384 70l-4 0.000976562c-18.667 -27.333 -42.167 -47.166 -70.5 -59.499s-54.833 -18.5 -79.5 -18.5c-35.333 0 -65 5 -89 15s-41.667 24.5 -53 43.5s-19.166 38.333 -23.499 58s-6.5 42.834 -6.5 69.501v308h118v-285c0 -40.667 6.16699 -70.834 18.5 -90.501
s37.166 -29.5 74.499 -29.5c36 0 63.167 13.667 81.5 41s27.5 58.666 27.5 93.999v270h117v-486h-93c-12 17.333 -18 40.666 -18 69.999zM404 546.001l-127 107l-134 -107l-46 45l141 150h81l137 -151z" />
    <glyph glyph-name="udieresis" unicode="&#xfc;" horiz-adv-x="553" 
d="M384 70l-4 0.000976562c-18.667 -27.333 -42.167 -47.166 -70.5 -59.499s-54.833 -18.5 -79.5 -18.5c-35.333 0 -65 5 -89 15s-41.667 24.5 -53 43.5s-19.166 38.333 -23.499 58s-6.5 42.834 -6.5 69.501v308h118v-285c0 -40.667 6.16699 -70.834 18.5 -90.501
s37.166 -29.5 74.499 -29.5c36 0 63.167 13.667 81.5 41s27.5 58.666 27.5 93.999v270h117v-486h-93c-12 17.333 -18 40.666 -18 69.999zM123 627.001c0 16.667 5.83301 30.667 17.5 42s25.5 17 41.5 17c16.667 0 30.834 -5.66699 42.501 -17s17.5 -25.333 17.5 -42
s-5.83301 -30.667 -17.5 -42s-25.834 -17 -42.501 -17c-16 0 -29.833 5.66699 -41.5 17s-17.5 25.333 -17.5 42zM313 627.001c0 16.667 5.66699 30.667 17 42s25.333 17 42 17s30.834 -5.66699 42.501 -17s17.5 -25.333 17.5 -42s-5.83301 -30.667 -17.5 -42
s-25.834 -17 -42.501 -17s-30.667 5.66699 -42 17s-17 25.333 -17 42z" />
    <glyph glyph-name="yacute" unicode="&#xfd;" horiz-adv-x="491" 
d="M236 86l7.99805 0.000976562c6 23.333 23.333 81.666 52 174.999l69 224h114l-184 -544c-17.333 -49.333 -39.333 -86.5 -66 -111.5s-65.667 -37.5 -117 -37.5h-66v91h51c23.333 0 41.5 4.16699 54.5 12.5s24.167 22.833 33.5 43.5l21 61
c-19.333 0 -33.666 -0.333008 -42.999 -1c-15.333 56.667 -31.333 111.5 -48 164.5l-57.5 176l-48.5 145.5h120l63 -228c26.667 -100.667 41.334 -157.667 44.001 -171zM239.998 544.001l-54 49l142 168l79 -74z" />
    <glyph glyph-name="thorn" unicode="&#xfe;" horiz-adv-x="574" 
d="M322 493c136 0 203.999 -82.667 203.999 -248c0 -77.333 -18.167 -138.833 -54.5 -184.5s-89.166 -68.5 -158.499 -68.5c-66 0 -111 16.667 -135 50h-5v-246h-116v915h116v-173c0 -48.667 -3 -87 -9 -115h5c34.667 46.667 85.667 70 153 70zM289.999 402
c-36 0 -64.5 -11.833 -85.5 -35.5s-31.5 -54.167 -31.5 -91.5v-55c0 -95.333 39 -143 117 -143c76.667 0 115 55 115 165c0 54.667 -9.33301 95 -28 121s-47.667 39 -87 39z" />
    <glyph glyph-name="ydieresis" unicode="&#xff;" horiz-adv-x="491" 
d="M236 86l7.99805 0.000976562c6 23.333 23.333 81.666 52 174.999l69 224h114l-184 -544c-17.333 -49.333 -39.333 -86.5 -66 -111.5s-65.667 -37.5 -117 -37.5h-66v91h51c23.333 0 41.5 4.16699 54.5 12.5s24.167 22.833 33.5 43.5l21 61
c-19.333 0 -33.666 -0.333008 -42.999 -1c-15.333 56.667 -31.333 111.5 -48 164.5l-57.5 176l-48.5 145.5h120l63 -228c26.667 -100.667 41.334 -157.667 44.001 -171zM88.998 627.001c0 16.667 5.83301 30.667 17.5 42s25.5 17 41.5 17
c16.667 0 30.834 -5.66699 42.501 -17s17.5 -25.333 17.5 -42s-5.83301 -30.667 -17.5 -42s-25.834 -17 -42.501 -17c-16 0 -29.833 5.66699 -41.5 17s-17.5 25.333 -17.5 42zM278.998 627.001c0 16.667 5.66699 30.667 17 42s25.333 17 42 17s30.834 -5.66699 42.501 -17
s17.5 -25.333 17.5 -42s-5.83301 -30.667 -17.5 -42s-25.834 -17 -42.501 -17s-30.667 5.66699 -42 17s-17 25.333 -17 42z" />
    <glyph glyph-name="Amacron" unicode="&#x100;" horiz-adv-x="657" 
d="M517 0l-58 163h-268l-58 -163h-125l257 678h126l254 -678h-128zM329 551h-6c-6 -23.333 -22.333 -75 -49 -155l-49 -139h201l-47 133c-28 86 -44.667 139.667 -50 161zM167 762v83h316v-83h-316z" />
    <glyph glyph-name="amacron" unicode="&#x101;" horiz-adv-x="533" 
d="M475 324v-324h-93c-9.33301 14.667 -14.333 37 -15 67h-5c-16.667 -26.667 -39.5 -46 -68.5 -58s-58.5 -18 -88.5 -18c-52 0 -93.167 12.333 -123.5 37s-45.5 61.334 -45.5 110.001c0 108 78 162 234 162c23.333 0 53 -2 89 -6v24c0 59.333 -31.333 89 -94 89
c-48.667 0 -77.667 -18.667 -87 -56h-104c-0.666992 4 -1 9.33301 -1 16c0 30.667 10.667 56 32 76s45.833 33.667 73.5 41s57.167 11 88.5 11c76.667 0 130.5 -15.333 161.5 -46s46.5 -72.334 46.5 -125.001zM360 218c-25.333 4.66699 -52.667 7 -82 7
c-83.333 0 -125 -27.333 -125 -82c0 -19.333 7.33301 -35 22 -47s34 -18 58 -18c40 0 71.167 11 93.5 33s33.5 47.333 33.5 76v31zM105.999 598v83h319v-83h-319z" />
    <glyph glyph-name="Abreve" unicode="&#x102;" horiz-adv-x="657" 
d="M517 0l-58 163h-268l-58 -163h-125l257 678h126l254 -678h-128zM329 551h-6c-6 -23.333 -22.333 -75 -49 -155l-49 -139h201l-47 133c-28 86 -44.667 139.667 -50 161zM325 728c-28.667 0 -54 5.83301 -76 17.5s-39.333 26.834 -52 45.501s-22.5 37.334 -29.5 56.001
s-11.167 37.334 -12.5 56.001h79c2.66699 -25.333 11.5 -47.333 26.5 -66s36.5 -28 64.5 -28s49.5 9.33301 64.5 28s23.833 40.667 26.5 66h79c-1.33301 -18.667 -5.5 -37.334 -12.5 -56.001s-16.833 -37.334 -29.5 -56.001s-30 -33.834 -52 -45.501
s-47.333 -17.5 -76 -17.5z" />
    <glyph glyph-name="abreve" unicode="&#x103;" horiz-adv-x="533" 
d="M475 324v-324h-93c-9.33301 14.667 -14.333 37 -15 67h-5c-16.667 -26.667 -39.5 -46 -68.5 -58s-58.5 -18 -88.5 -18c-52 0 -93.167 12.333 -123.5 37s-45.5 61.334 -45.5 110.001c0 108 78 162 234 162c23.333 0 53 -2 89 -6v24c0 59.333 -31.333 89 -94 89
c-48.667 0 -77.667 -18.667 -87 -56h-104c-0.666992 4 -1 9.33301 -1 16c0 30.667 10.667 56 32 76s45.833 33.667 73.5 41s57.167 11 88.5 11c76.667 0 130.5 -15.333 161.5 -46s46.5 -72.334 46.5 -125.001zM360 218c-25.333 4.66699 -52.667 7 -82 7
c-83.333 0 -125 -27.333 -125 -82c0 -19.333 7.33301 -35 22 -47s34 -18 58 -18c40 0 71.167 11 93.5 33s33.5 47.333 33.5 76v31zM277.999 549c-28.667 0 -54.1699 5.5 -76.5029 16.5s-39.833 25.333 -52.5 43s-22.5 35.5 -29.5 53.5s-11.167 36.333 -12.5 55h80
c2.66699 -24.667 11.334 -45.334 26.001 -62.001s36.334 -25 65.001 -25c28 0 49.333 8.33301 64 25s23.334 37.334 26.001 62.001h80c-1.33301 -18.667 -5.5 -37 -12.5 -55s-16.833 -35.833 -29.5 -53.5s-30 -32 -52 -43s-47.333 -16.5 -76 -16.5z" />
    <glyph glyph-name="Aogonek" unicode="&#x104;" horiz-adv-x="657" 
d="M645 0h-84c-32 -39.333 -48 -76 -48 -110c0 -35.333 23.333 -53 70 -53c18 0 40.333 3.33301 67 10l10 -42c-37.333 -18.667 -77.333 -28 -120 -28c-36.667 0 -65.167 7.16699 -85.5 21.5s-30.5 33.833 -30.5 58.5c0 22 7.5 46.167 22.5 72.5s37.833 51.5 68.5 75.5
l-56 158h-268l-58 -163h-125l257 678h126zM329 551h-6c-6 -23.333 -22.333 -75 -49 -155l-49 -139h201l-47 133c-28 86 -44.667 139.667 -50 161z" />
    <glyph glyph-name="aogonek" unicode="&#x105;" horiz-adv-x="533" 
d="M475 324l0.000976562 -324h-56c-31.333 -38.667 -47 -75 -47 -109c0 -35.333 23.333 -53 70 -53c19.333 0 41.666 3.33301 66.999 10l10 -42c-37.333 -18.667 -77.333 -28 -120 -28c-36.667 0 -65 7.16699 -85 21.5s-30 33.833 -30 58.5c0 52.667 31 102.667 93 150
c-6.66699 17.333 -10 37 -10 59h-5c-16.667 -26.667 -39.5 -46 -68.5 -58s-58.5 -18 -88.5 -18c-52 0 -93.167 12.333 -123.5 37s-45.5 61.334 -45.5 110.001c0 108 78 162 234 162c23.333 0 53 -2 89 -6v24c0 59.333 -31.333 89 -94 89c-48.667 0 -77.667 -18.667 -87 -56
h-104c-0.666992 4 -1 9.33301 -1 16c0 30.667 10.667 56 32 76s45.833 33.667 73.5 41s57.167 11 88.5 11c76.667 0 130.5 -15.333 161.5 -46s46.5 -72.334 46.5 -125.001zM360.001 218c-25.333 4.66699 -52.667 7 -82 7c-83.333 0 -125 -27.333 -125 -82
c0 -19.333 7.33301 -35 22 -47s34 -18 58 -18c40 0 71.167 11 93.5 33s33.5 47.333 33.5 76v31z" />
    <glyph glyph-name="Cacute" unicode="&#x106;" horiz-adv-x="654" 
d="M178 335c0 -79.333 13.998 -139.834 41.998 -181.501s74 -62.5 138 -62.5c46.667 0 82.5 12 107.5 36s37.833 55.667 38.5 95h116c1.33301 -8 2 -15.667 2 -23c0 -65.333 -25.167 -116.166 -75.5 -152.499s-111.833 -54.5 -184.5 -54.5
c-107.333 0 -185.5 28.833 -234.5 86.5s-73.5 143.167 -73.5 256.5c0 109.333 26.167 194.5 78.5 255.5s127.5 91.5 225.5 91.5c70.667 0 130.834 -17.667 180.501 -53s74.5 -84.666 74.5 -147.999c0 -6.66699 -0.666992 -13.334 -2 -20.001h-116
c-2 38 -15.167 67.667 -39.5 89s-58.166 32 -101.499 32c-117.333 0 -176 -82.333 -176 -247zM307.998 721.999l-40 61l174 128l65 -92z" />
    <glyph glyph-name="cacute" unicode="&#x107;" horiz-adv-x="524" 
d="M279 493c56.667 0 103.836 -12.8311 141.503 -38.498s56.5 -62.167 56.5 -109.5c0 -6.66699 -0.666992 -13.334 -2 -20.001h-107c-2 26.667 -12 45.667 -30 57s-37.333 17 -58 17c-76 0 -114 -52.667 -114 -158c0 -50.667 8.83301 -89.334 26.5 -116.001
s47.167 -40 88.5 -40c25.333 0 47.166 6.66699 65.499 20s28.5 35 30.5 65h106c1.33301 -9.33301 2 -16 2 -20c0 -50 -18.833 -88.833 -56.5 -116.5s-84.834 -41.5 -141.501 -41.5c-159.333 0 -239 81.333 -239 244c0 81.333 19.667 144.5 59 189.5
s96.666 67.5 171.999 67.5zM254.002 544.002l-54 49l142 168l79 -74z" />
    <glyph glyph-name="Ccircumflex" unicode="&#x108;" horiz-adv-x="654" 
d="M178 335c0 -79.333 13.998 -139.834 41.998 -181.501s74 -62.5 138 -62.5c46.667 0 82.5 12 107.5 36s37.833 55.667 38.5 95h116c1.33301 -8 2 -15.667 2 -23c0 -65.333 -25.167 -116.166 -75.5 -152.499s-111.833 -54.5 -184.5 -54.5
c-107.333 0 -185.5 28.833 -234.5 86.5s-73.5 143.167 -73.5 256.5c0 109.333 26.167 194.5 78.5 255.5s127.5 91.5 225.5 91.5c70.667 0 130.834 -17.667 180.501 -53s74.5 -84.666 74.5 -147.999c0 -6.66699 -0.666992 -13.334 -2 -20.001h-116
c-2 38 -15.167 67.667 -39.5 89s-58.166 32 -101.499 32c-117.333 0 -176 -82.333 -176 -247zM481.998 721.999l-129 103l-133 -103l-46 45l141 144h81l135 -144z" />
    <glyph glyph-name="ccircumflex" unicode="&#x109;" horiz-adv-x="524" 
d="M279 493c56.667 0 103.836 -12.8311 141.503 -38.498s56.5 -62.167 56.5 -109.5c0 -6.66699 -0.666992 -13.334 -2 -20.001h-107c-2 26.667 -12 45.667 -30 57s-37.333 17 -58 17c-76 0 -114 -52.667 -114 -158c0 -50.667 8.83301 -89.334 26.5 -116.001
s47.167 -40 88.5 -40c25.333 0 47.166 6.66699 65.499 20s28.5 35 30.5 65h106c1.33301 -9.33301 2 -16 2 -20c0 -50 -18.833 -88.833 -56.5 -116.5s-84.834 -41.5 -141.501 -41.5c-159.333 0 -239 81.333 -239 244c0 81.333 19.667 144.5 59 189.5
s96.666 67.5 171.999 67.5zM398.002 546.002l-127 107l-134 -107l-46 45l141 150h81l137 -151z" />
    <glyph glyph-name="Cdotaccent" unicode="&#x10a;" horiz-adv-x="654" 
d="M178 335c0 -79.333 13.998 -139.834 41.998 -181.501s74 -62.5 138 -62.5c46.667 0 82.5 12 107.5 36s37.833 55.667 38.5 95h116c1.33301 -8 2 -15.667 2 -23c0 -65.333 -25.167 -116.166 -75.5 -152.499s-111.833 -54.5 -184.5 -54.5
c-107.333 0 -185.5 28.833 -234.5 86.5s-73.5 143.167 -73.5 256.5c0 109.333 26.167 194.5 78.5 255.5s127.5 91.5 225.5 91.5c70.667 0 130.834 -17.667 180.501 -53s74.5 -84.666 74.5 -147.999c0 -6.66699 -0.666992 -13.334 -2 -20.001h-116
c-2 38 -15.167 67.667 -39.5 89s-58.166 32 -101.499 32c-117.333 0 -176 -82.333 -176 -247zM288.998 808.999c0 17.333 6.16699 32.333 18.5 45s27.166 19 44.499 19s32.333 -6.33301 45 -19s19 -27.667 19 -45s-6.33301 -32.333 -19 -45s-27.667 -19 -45 -19
s-32.166 6.33301 -44.499 19s-18.5 27.667 -18.5 45z" />
    <glyph glyph-name="cdotaccent" unicode="&#x10b;" horiz-adv-x="524" 
d="M279 493c56.667 0 103.836 -12.8311 141.503 -38.498s56.5 -62.167 56.5 -109.5c0 -6.66699 -0.666992 -13.334 -2 -20.001h-107c-2 26.667 -12 45.667 -30 57s-37.333 17 -58 17c-76 0 -114 -52.667 -114 -158c0 -50.667 8.83301 -89.334 26.5 -116.001
s47.167 -40 88.5 -40c25.333 0 47.166 6.66699 65.499 20s28.5 35 30.5 65h106c1.33301 -9.33301 2 -16 2 -20c0 -50 -18.833 -88.833 -56.5 -116.5s-84.834 -41.5 -141.501 -41.5c-159.333 0 -239 81.333 -239 244c0 81.333 19.667 144.5 59 189.5
s96.666 67.5 171.999 67.5zM210.002 639.002c0 17.333 6.16699 32.333 18.5 45s27.166 19 44.499 19s32.333 -6.33301 45 -19s19 -27.667 19 -45s-6.33301 -32.333 -19 -45s-27.667 -19 -45 -19s-32.166 6.33301 -44.499 19s-18.5 27.667 -18.5 45z" />
    <glyph glyph-name="Ccaron" unicode="&#x10c;" horiz-adv-x="654" 
d="M178 335c0 -79.333 13.998 -139.834 41.998 -181.501s74 -62.5 138 -62.5c46.667 0 82.5 12 107.5 36s37.833 55.667 38.5 95h116c1.33301 -8 2 -15.667 2 -23c0 -65.333 -25.167 -116.166 -75.5 -152.499s-111.833 -54.5 -184.5 -54.5
c-107.333 0 -185.5 28.833 -234.5 86.5s-73.5 143.167 -73.5 256.5c0 109.333 26.167 194.5 78.5 255.5s127.5 91.5 225.5 91.5c70.667 0 130.834 -17.667 180.501 -53s74.5 -84.666 74.5 -147.999c0 -6.66699 -0.666992 -13.334 -2 -20.001h-116
c-2 38 -15.167 67.667 -39.5 89s-58.166 32 -101.499 32c-117.333 0 -176 -82.333 -176 -247zM348.998 812.999l128 101l52 -45l-138 -145h-81l-141 145l46 45z" />
    <glyph glyph-name="ccaron" unicode="&#x10d;" horiz-adv-x="524" 
d="M279 493c56.667 0 103.836 -12.8311 141.503 -38.498s56.5 -62.167 56.5 -109.5c0 -6.66699 -0.666992 -13.334 -2 -20.001h-107c-2 26.667 -12 45.667 -30 57s-37.333 17 -58 17c-76 0 -114 -52.667 -114 -158c0 -50.667 8.83301 -89.334 26.5 -116.001
s47.167 -40 88.5 -40c25.333 0 47.166 6.66699 65.499 20s28.5 35 30.5 65h106c1.33301 -9.33301 2 -16 2 -20c0 -50 -18.833 -88.833 -56.5 -116.5s-84.834 -41.5 -141.501 -41.5c-159.333 0 -239 81.333 -239 244c0 81.333 19.667 144.5 59 189.5
s96.666 67.5 171.999 67.5zM279.002 637.002l127 102l50 -44l-135 -146h-81l-141 145l46 45z" />
    <glyph glyph-name="Dcaron" unicode="&#x10e;" horiz-adv-x="664" 
d="M184 99h79.001c28 0 54.167 3.33301 78.5 10s48.333 18 72 34s42.5 40.5 56.5 73.5s21 72.833 21 119.5c0 49.333 -7.33301 91 -22 125s-34.334 58.833 -59.001 74.5s-48.667 26.5 -72 32.5s-48.333 9 -75 9h-79v-478zM64.001 0v676.001h220
c34 0 66.167 -3.33301 96.5 -10s59.833 -18.5 88.5 -35.5s53.5 -38.167 74.5 -63.5s37.833 -57.833 50.5 -97.5s19 -84.834 19 -135.501c0 -103.333 -30 -184.833 -90 -244.5s-139.667 -89.5 -239 -89.5h-220zM292.001 813.001l128 101l52 -45l-138 -145h-81l-141 145l46 45
z" />
    <glyph glyph-name="dcaron" unicode="&#x10f;" horiz-adv-x="725" 
d="M251 -7c-135.333 0 -203 81.667 -203 245c0 78 18.5 140.167 55.5 186.5s90.833 69.5 161.5 69.5c55.333 0 99.333 -15.667 132 -47h4v263h116v-710h-93c-10 14.667 -15 37 -15 67h-4c-32 -49.333 -83.333 -74 -154 -74zM285 81c35.333 0 63.667 12.167 85 36.5
s32 55.5 32 93.5v69c0 32 -9 60.5 -27 85.5s-47.667 37.5 -89 37.5c-39.333 0 -69 -14.5 -89 -43.5s-30 -68.5 -30 -118.5c0 -106.667 39.333 -160 118 -160zM589.001 653c0 18 6.16895 33.167 18.502 45.5s27.166 18.5 44.499 18.5c18.667 0 34 -5.83301 46 -17.5
s18 -26.5 18 -44.5c0 -11.333 -2.66699 -23.333 -8 -36l-75 -144l-36 13l34 106c-12.667 3.33301 -22.834 10.5 -30.501 21.5s-11.5 23.5 -11.5 37.5z" />
    <glyph glyph-name="Dcroat" unicode="&#x110;" horiz-adv-x="664" 
d="M64 381v295.001h220c34 0 66.167 -3.33301 96.5 -10s59.833 -18.5 88.5 -35.5s53.5 -38.167 74.5 -63.5s37.833 -57.833 50.5 -97.5s19 -84.834 19 -135.501c0 -103.333 -30 -184.833 -90 -244.5s-139.667 -89.5 -239 -89.5h-220v308h-57v73h57zM184 99.001h79.001
c28 0 54.167 3.33301 78.5 10s48.333 18 72 34s42.5 40.5 56.5 73.5s21 72.833 21 119.5c0 49.333 -7.33301 91 -22 125s-34.334 58.833 -59.001 74.5s-48.667 26.5 -72 32.5s-48.333 9 -75 9h-79v-196h147v-73h-147v-209z" />
    <glyph glyph-name="dcroat" unicode="&#x111;" horiz-adv-x="575" 
d="M251 -7c-38.667 0 -71.668 6.00195 -99.001 18.002s-48.333 29.167 -63 51.5s-25.167 47.166 -31.5 74.499s-9.5 58.666 -9.5 93.999c0 80 19 141.5 57 184.5s95.667 64.5 173 64.5c50.667 -2 90.334 -17.333 119.001 -46h4v125h-151v64h151v87h116v-87h54v-64h-54v-559
h-93c-10 14.667 -15 37 -15 67h-4c-32 -49.333 -83.333 -74 -154 -74zM284.999 81.002c35.333 0 63.5 12 84.5 36s31.5 54.333 31.5 91v66c0 30 -9 56.833 -27 80.5s-47.333 35.5 -88 35.5c-38 0 -67 -13.833 -87 -41.5s-30 -65.5 -30 -113.5
c0 -54 9.33301 -93.167 28 -117.5s48 -36.5 88 -36.5z" />
    <glyph glyph-name="Emacron" unicode="&#x112;" horiz-adv-x="584" 
d="M64 0v676h469v-99h-349v-177h318v-100h-318v-200h358v-100h-478zM139 769v83h316v-83h-316z" />
    <glyph glyph-name="emacron" unicode="&#x113;" horiz-adv-x="548" 
d="M276 403c-32 0 -57.333 -9.49902 -76 -28.499s-29.334 -45.5 -32.001 -79.5h211c-0.666992 33.333 -9.66699 59.666 -27 78.999s-42.666 29 -75.999 29zM278 493.001c72 0 126.166 -20.332 162.499 -60.999s54.5 -92.334 54.5 -155.001c0 -16 -1.66699 -34 -5 -54h-326
c0 -94.667 39.667 -142 119 -142c60.667 0 94.334 24.667 101.001 74h106c0.666992 -4 1 -9.66699 1 -17c0 -49.333 -20.167 -86 -60.5 -110s-89.833 -36 -148.5 -36c-156 0 -234 81.333 -234 244c0 76 19.333 137.833 58 185.5s96 71.5 172 71.5zM119.999 598.002v83h319
v-83h-319z" />
    <glyph glyph-name="Ebreve" unicode="&#x114;" horiz-adv-x="584" 
d="M64 0v676h469v-99h-349v-177h318v-100h-318v-200h358v-100h-478zM300 728c-28.667 0 -54 5.83301 -76 17.5s-39.333 26.834 -52 45.501s-22.5 37.334 -29.5 56.001s-11.167 37.334 -12.5 56.001h79c2.66699 -25.333 11.5 -47.333 26.5 -66s36.5 -28 64.5 -28
s49.5 9.33301 64.5 28s23.833 40.667 26.5 66h79c-1.33301 -18.667 -5.5 -37.334 -12.5 -56.001s-16.833 -37.334 -29.5 -56.001s-30 -33.834 -52 -45.501s-47.333 -17.5 -76 -17.5z" />
    <glyph glyph-name="ebreve" unicode="&#x115;" horiz-adv-x="548" 
d="M276 403c-32 0 -57.333 -9.49902 -76 -28.499s-29.334 -45.5 -32.001 -79.5h211c-0.666992 33.333 -9.66699 59.666 -27 78.999s-42.666 29 -75.999 29zM278 493.001c72 0 126.166 -20.332 162.499 -60.999s54.5 -92.334 54.5 -155.001c0 -16 -1.66699 -34 -5 -54h-326
c0 -94.667 39.667 -142 119 -142c60.667 0 94.334 24.667 101.001 74h106c0.666992 -4 1 -9.66699 1 -17c0 -49.333 -20.167 -86 -60.5 -110s-89.833 -36 -148.5 -36c-156 0 -234 81.333 -234 244c0 76 19.333 137.833 58 185.5s96 71.5 172 71.5zM283.999 549.002
c-28.667 0 -54.1699 5.5 -76.5029 16.5s-39.833 25.333 -52.5 43s-22.5 35.5 -29.5 53.5s-11.167 36.333 -12.5 55h80c2.66699 -24.667 11.334 -45.334 26.001 -62.001s36.334 -25 65.001 -25c28 0 49.333 8.33301 64 25s23.334 37.334 26.001 62.001h80
c-1.33301 -18.667 -5.5 -37 -12.5 -55s-16.833 -35.833 -29.5 -53.5s-30 -32 -52 -43s-47.333 -16.5 -76 -16.5z" />
    <glyph glyph-name="Edotaccent" unicode="&#x116;" horiz-adv-x="584" 
d="M64 0v676h469v-99h-349v-177h318v-100h-318v-200h358v-100h-478zM247 809c0 17.333 6.16699 32.333 18.5 45s27.166 19 44.499 19s32.333 -6.33301 45 -19s19 -27.667 19 -45s-6.33301 -32.333 -19 -45s-27.667 -19 -45 -19s-32.166 6.33301 -44.499 19
s-18.5 27.667 -18.5 45z" />
    <glyph glyph-name="edotaccent" unicode="&#x117;" horiz-adv-x="548" 
d="M276 403c-32 0 -57.333 -9.49902 -76 -28.499s-29.334 -45.5 -32.001 -79.5h211c-0.666992 33.333 -9.66699 59.666 -27 78.999s-42.666 29 -75.999 29zM278 493.001c72 0 126.166 -20.332 162.499 -60.999s54.5 -92.334 54.5 -155.001c0 -16 -1.66699 -34 -5 -54h-326
c0 -94.667 39.667 -142 119 -142c60.667 0 94.334 24.667 101.001 74h106c0.666992 -4 1 -9.66699 1 -17c0 -49.333 -20.167 -86 -60.5 -110s-89.833 -36 -148.5 -36c-156 0 -234 81.333 -234 244c0 76 19.333 137.833 58 185.5s96 71.5 172 71.5zM221.999 639.002
c0 17.333 6.16699 32.333 18.5 45s27.166 19 44.499 19s32.333 -6.33301 45 -19s19 -27.667 19 -45s-6.33301 -32.333 -19 -45s-27.667 -19 -45 -19s-32.166 6.33301 -44.499 19s-18.5 27.667 -18.5 45z" />
    <glyph glyph-name="Eogonek" unicode="&#x118;" horiz-adv-x="584" 
d="M64 0l0.000976562 676h469v-99h-349v-177h318v-100h-318v-200h358v-100h-33c-36 -41.333 -54 -80 -54 -116s23.333 -54 70 -54c11.333 0 33.666 3.33301 66.999 10l10 -41c-38.667 -19.333 -78.667 -29 -120 -29c-36.667 0 -65.167 7.16699 -85.5 21.5
s-30.5 33.833 -30.5 58.5c0 52.667 31 102.667 93 150h-395z" />
    <glyph glyph-name="eogonek" unicode="&#x119;" horiz-adv-x="548" 
d="M278 493c71.333 0 125.502 -19.999 162.502 -59.999s55.5 -91 55.5 -153c0 -18.667 -2 -37.667 -6 -57h-326c0 -90 43.667 -135 131 -135c26.667 0 47.5 6.33301 62.5 19s23.833 28.667 26.5 48h106c0.666992 -4 1 -9.66699 1 -17c0 -52 -25 -91.667 -75 -119
c-26.667 -34 -40 -65.667 -40 -95c0 -22.667 5.5 -38 16.5 -46s28.167 -12 51.5 -12c19.333 0 41.666 3.33301 66.999 10l11 -42c-38.667 -18.667 -79 -28 -121 -28c-36.667 0 -65 7.16699 -85 21.5s-30 33.833 -30 58.5c0 36 16.333 72.667 49 110
c-22.667 -2.66699 -40.334 -4 -53.001 -4c-80 0.666992 -139 21.167 -177 61.5s-57 101.166 -57 182.499c0 76 19.333 137.833 58 185.5s96 71.5 172 71.5zM276.002 403.001c-32 0 -57.333 -9.49902 -76 -28.499s-29.334 -45.5 -32.001 -79.5h211
c-0.666992 33.333 -9.66699 59.666 -27 78.999s-42.666 29 -75.999 29z" />
    <glyph glyph-name="Ecaron" unicode="&#x11a;" horiz-adv-x="584" 
d="M64 0v676h469v-99h-349v-177h318v-100h-318v-200h358v-100h-478zM303 813l128 101l52 -45l-138 -145h-81l-141 145l46 45z" />
    <glyph glyph-name="ecaron" unicode="&#x11b;" horiz-adv-x="548" 
d="M276 403c-32 0 -57.333 -9.49902 -76 -28.499s-29.334 -45.5 -32.001 -79.5h211c-0.666992 33.333 -9.66699 59.666 -27 78.999s-42.666 29 -75.999 29zM278 493.001c72 0 126.166 -20.332 162.499 -60.999s54.5 -92.334 54.5 -155.001c0 -16 -1.66699 -34 -5 -54h-326
c0 -94.667 39.667 -142 119 -142c60.667 0 94.334 24.667 101.001 74h106c0.666992 -4 1 -9.66699 1 -17c0 -49.333 -20.167 -86 -60.5 -110s-89.833 -36 -148.5 -36c-156 0 -234 81.333 -234 244c0 76 19.333 137.833 58 185.5s96 71.5 172 71.5zM276.999 637.002l127 102
l50 -44l-135 -146h-81l-141 145l46 45z" />
    <glyph glyph-name="Gcircumflex" unicode="&#x11c;" horiz-adv-x="690" 
d="M177 335c0 -82 14.502 -143.5 43.502 -184.5s75.833 -61.5 140.5 -61.5c58 0 99.833 13.833 125.5 41.5s38.5 63.5 38.5 107.5v36h-128v91h246v-111c0 -84 -24.667 -149 -74 -195s-119 -69 -209 -69c-204 0 -306 115 -306 345c0 109.333 26.167 195 78.5 257
s128.166 93 227.499 93c73.333 0 134.666 -16.833 183.999 -50.5s74 -82.5 74 -146.5c0 -5.33301 -0.666992 -12 -2 -20h-115c-2 35.333 -15.167 63.333 -39.5 84s-58.5 31 -102.5 31c-121.333 0 -182 -82.667 -182 -248zM483.002 722l-129 103l-133 -103l-46 45l141 144h81
l135 -144z" />
    <glyph glyph-name="gcircumflex" unicode="&#x11d;" horiz-adv-x="588" 
d="M162 -72c0 -18.667 10.5 -33.999 31.5 -45.999s51.833 -18 92.5 -18s73.667 5.5 99 16.5s38 27.5 38 49.5c0 14.667 -7.5 27.167 -22.5 37.5s-43.833 18.166 -86.5 23.499l-99 12c-35.333 -20.667 -53 -45.667 -53 -75zM291 495.001c34 0 65.999 -4.00098 95.999 -12.001
h172v-53c-18 -7.33301 -41 -11.666 -69 -12.999l-2 -7c22.667 -25.333 34 -58.333 34 -99c0 -53.333 -20.167 -96.833 -60.5 -130.5s-96.166 -50.5 -167.499 -50.5c-48.667 0 -88 5.66699 -118 17c-8 -8 -12 -15.667 -12 -23c0 -8 4.33301 -15.167 13 -21.5
s20.334 -10.5 35.001 -12.5l168 -24c108.667 -14.667 163 -59.334 163 -134.001c0 -52 -24.333 -90.333 -73 -115s-112.334 -37 -191.001 -37c-156.667 0 -235 47 -235 141c0 44 23 80.667 69 110c-18.667 8.66699 -33 20.5 -43 35.5s-15 30.167 -15 45.5
c0 31.333 16 58.333 48 81c-29.333 29.333 -44 68 -44 116c0 52.667 19.333 96.834 58 132.501s96.667 53.5 174 53.5zM290.999 409c-42 0 -72.333 -9.16699 -91 -27.5s-28 -41.833 -28 -70.5s9.66699 -52 29 -70s49.333 -27 90 -27c37.333 0 65.833 9.16699 85.5 27.5
s29.5 41.5 29.5 69.5s-9.16699 51.333 -27.5 70s-47.5 28 -87.5 28zM420.999 546l-127 107l-134 -107l-46 45l141 150h81l137 -151z" />
    <glyph glyph-name="Gbreve" unicode="&#x11e;" horiz-adv-x="690" 
d="M177 335c0 -82 14.502 -143.5 43.502 -184.5s75.833 -61.5 140.5 -61.5c58 0 99.833 13.833 125.5 41.5s38.5 63.5 38.5 107.5v36h-128v91h246v-111c0 -84 -24.667 -149 -74 -195s-119 -69 -209 -69c-204 0 -306 115 -306 345c0 109.333 26.167 195 78.5 257
s128.166 93 227.499 93c73.333 0 134.666 -16.833 183.999 -50.5s74 -82.5 74 -146.5c0 -5.33301 -0.666992 -12 -2 -20h-115c-2 35.333 -15.167 63.333 -39.5 84s-58.5 31 -102.5 31c-121.333 0 -182 -82.667 -182 -248zM359.002 728c-28.667 0 -54 5.83301 -76 17.5
s-39.333 26.834 -52 45.501s-22.5 37.334 -29.5 56.001s-11.167 37.334 -12.5 56.001h79c2.66699 -25.333 11.5 -47.333 26.5 -66s36.5 -28 64.5 -28s49.5 9.33301 64.5 28s23.833 40.667 26.5 66h79c-1.33301 -18.667 -5.5 -37.334 -12.5 -56.001
s-16.833 -37.334 -29.5 -56.001s-30 -33.834 -52 -45.501s-47.333 -17.5 -76 -17.5z" />
    <glyph glyph-name="gbreve" unicode="&#x11f;" horiz-adv-x="588" 
d="M162 -72c0 -18.667 10.5 -33.999 31.5 -45.999s51.833 -18 92.5 -18s73.667 5.5 99 16.5s38 27.5 38 49.5c0 14.667 -7.5 27.167 -22.5 37.5s-43.833 18.166 -86.5 23.499l-99 12c-35.333 -20.667 -53 -45.667 -53 -75zM291 495.001c34 0 65.999 -4.00098 95.999 -12.001
h172v-53c-18 -7.33301 -41 -11.666 -69 -12.999l-2 -7c22.667 -25.333 34 -58.333 34 -99c0 -53.333 -20.167 -96.833 -60.5 -130.5s-96.166 -50.5 -167.499 -50.5c-48.667 0 -88 5.66699 -118 17c-8 -8 -12 -15.667 -12 -23c0 -8 4.33301 -15.167 13 -21.5
s20.334 -10.5 35.001 -12.5l168 -24c108.667 -14.667 163 -59.334 163 -134.001c0 -52 -24.333 -90.333 -73 -115s-112.334 -37 -191.001 -37c-156.667 0 -235 47 -235 141c0 44 23 80.667 69 110c-18.667 8.66699 -33 20.5 -43 35.5s-15 30.167 -15 45.5
c0 31.333 16 58.333 48 81c-29.333 29.333 -44 68 -44 116c0 52.667 19.333 96.834 58 132.501s96.667 53.5 174 53.5zM290.999 409c-42 0 -72.333 -9.16699 -91 -27.5s-28 -41.833 -28 -70.5s9.66699 -52 29 -70s49.333 -27 90 -27c37.333 0 65.833 9.16699 85.5 27.5
s29.5 41.5 29.5 69.5s-9.16699 51.333 -27.5 70s-47.5 28 -87.5 28zM291.999 549c-28.667 0 -54.1699 5.5 -76.5029 16.5s-39.833 25.333 -52.5 43s-22.5 35.5 -29.5 53.5s-11.167 36.333 -12.5 55h80c2.66699 -24.667 11.334 -45.334 26.001 -62.001s36.334 -25 65.001 -25
c28 0 49.333 8.33301 64 25s23.334 37.334 26.001 62.001h80c-1.33301 -18.667 -5.5 -37 -12.5 -55s-16.833 -35.833 -29.5 -53.5s-30 -32 -52 -43s-47.333 -16.5 -76 -16.5z" />
    <glyph glyph-name="Gdotaccent" unicode="&#x120;" horiz-adv-x="690" 
d="M177 335c0 -82 14.502 -143.5 43.502 -184.5s75.833 -61.5 140.5 -61.5c58 0 99.833 13.833 125.5 41.5s38.5 63.5 38.5 107.5v36h-128v91h246v-111c0 -84 -24.667 -149 -74 -195s-119 -69 -209 -69c-204 0 -306 115 -306 345c0 109.333 26.167 195 78.5 257
s128.166 93 227.499 93c73.333 0 134.666 -16.833 183.999 -50.5s74 -82.5 74 -146.5c0 -5.33301 -0.666992 -12 -2 -20h-115c-2 35.333 -15.167 63.333 -39.5 84s-58.5 31 -102.5 31c-121.333 0 -182 -82.667 -182 -248zM299.002 810c0 17.333 6.16699 32.333 18.5 45
s27.166 19 44.499 19s32.333 -6.33301 45 -19s19 -27.667 19 -45s-6.33301 -32.333 -19 -45s-27.667 -19 -45 -19s-32.166 6.33301 -44.499 19s-18.5 27.667 -18.5 45z" />
    <glyph glyph-name="gdotaccent" unicode="&#x121;" horiz-adv-x="588" 
d="M162 -72c0 -18.667 10.5 -33.999 31.5 -45.999s51.833 -18 92.5 -18s73.667 5.5 99 16.5s38 27.5 38 49.5c0 14.667 -7.5 27.167 -22.5 37.5s-43.833 18.166 -86.5 23.499l-99 12c-35.333 -20.667 -53 -45.667 -53 -75zM291 495.001c34 0 65.999 -4.00098 95.999 -12.001
h172v-53c-18 -7.33301 -41 -11.666 -69 -12.999l-2 -7c22.667 -25.333 34 -58.333 34 -99c0 -53.333 -20.167 -96.833 -60.5 -130.5s-96.166 -50.5 -167.499 -50.5c-48.667 0 -88 5.66699 -118 17c-8 -8 -12 -15.667 -12 -23c0 -8 4.33301 -15.167 13 -21.5
s20.334 -10.5 35.001 -12.5l168 -24c108.667 -14.667 163 -59.334 163 -134.001c0 -52 -24.333 -90.333 -73 -115s-112.334 -37 -191.001 -37c-156.667 0 -235 47 -235 141c0 44 23 80.667 69 110c-18.667 8.66699 -33 20.5 -43 35.5s-15 30.167 -15 45.5
c0 31.333 16 58.333 48 81c-29.333 29.333 -44 68 -44 116c0 52.667 19.333 96.834 58 132.501s96.667 53.5 174 53.5zM290.999 409c-42 0 -72.333 -9.16699 -91 -27.5s-28 -41.833 -28 -70.5s9.66699 -52 29 -70s49.333 -27 90 -27c37.333 0 65.833 9.16699 85.5 27.5
s29.5 41.5 29.5 69.5s-9.16699 51.333 -27.5 70s-47.5 28 -87.5 28zM232.999 639c0 17.333 6.16699 32.333 18.5 45s27.166 19 44.499 19s32.333 -6.33301 45 -19s19 -27.667 19 -45s-6.33301 -32.333 -19 -45s-27.667 -19 -45 -19s-32.166 6.33301 -44.499 19
s-18.5 27.667 -18.5 45z" />
    <glyph glyph-name="Gcommaaccent" unicode="&#x122;" horiz-adv-x="690" 
d="M177 335c0 -82 14.502 -143.5 43.502 -184.5s75.833 -61.5 140.5 -61.5c58 0 99.833 13.833 125.5 41.5s38.5 63.5 38.5 107.5v36h-128v91h246v-111c0 -84 -24.667 -149 -74 -195s-119 -69 -209 -69c-204 0 -306 115 -306 345c0 109.333 26.167 195 78.5 257
s128.166 93 227.499 93c73.333 0 134.666 -16.833 183.999 -50.5s74 -82.5 74 -146.5c0 -5.33301 -0.666992 -12 -2 -20h-115c-2 35.333 -15.167 63.333 -39.5 84s-58.5 31 -102.5 31c-121.333 0 -182 -82.667 -182 -248zM289.002 -109c0 18 6.16895 33.167 18.502 45.5
s27.166 18.5 44.499 18.5c18.667 0 34 -5.83301 46 -17.5s18 -26.5 18 -44.5c0 -11.333 -2.66699 -23.333 -8 -36l-75 -144l-36 13l34 106c-12.667 3.33301 -22.834 10.5 -30.501 21.5s-11.5 23.5 -11.5 37.5z" />
    <glyph glyph-name="gcommaaccent" unicode="&#x123;" horiz-adv-x="588" 
d="M349 607c0 -18 -6.16895 -33.167 -18.502 -45.5s-27.166 -18.5 -44.499 -18.5c-18.667 0 -34 6 -46 18s-18 26.667 -18 44c0 11.333 2.66699 23.333 8 36l74 138l36 -13l-33 -101c12.667 -3.33301 22.834 -10.5 30.501 -21.5s11.5 -23.167 11.5 -36.5zM161.998 -72
c0 -18.667 10.5 -33.999 31.5 -45.999s51.833 -18 92.5 -18s73.667 5.5 99 16.5s38 27.5 38 49.5c0 14.667 -7.5 27.167 -22.5 37.5s-43.833 18.166 -86.5 23.499l-99 12c-35.333 -20.667 -53 -45.667 -53 -75zM290.998 495.001c34 0 65.999 -4.00098 95.999 -12.001h172
v-53c-18 -7.33301 -41 -11.666 -69 -12.999l-2 -7c22.667 -25.333 34 -58.333 34 -99c0 -53.333 -20.167 -96.833 -60.5 -130.5s-96.166 -50.5 -167.499 -50.5c-48.667 0 -88 5.66699 -118 17c-8 -8 -12 -15.667 -12 -23c0 -8 4.33301 -15.167 13 -21.5
s20.334 -10.5 35.001 -12.5l168 -24c108.667 -14.667 163 -59.334 163 -134.001c0 -52 -24.333 -90.333 -73 -115s-112.334 -37 -191.001 -37c-156.667 0 -235 47 -235 141c0 44 23 80.667 69 110c-18.667 8.66699 -33 20.5 -43 35.5s-15 30.167 -15 45.5
c0 31.333 16 58.333 48 81c-29.333 29.333 -44 68 -44 116c0 52.667 19.333 96.834 58 132.501s96.667 53.5 174 53.5zM290.997 409c-42 0 -72.333 -9.16699 -91 -27.5s-28 -41.833 -28 -70.5s9.66699 -52 29 -70s49.333 -27 90 -27c37.333 0 65.833 9.16699 85.5 27.5
s29.5 41.5 29.5 69.5s-9.16699 51.333 -27.5 70s-47.5 28 -87.5 28z" />
    <glyph glyph-name="Hcircumflex" unicode="&#x124;" horiz-adv-x="697" 
d="M512 0v300h-328v-300h-120v676h120v-276h328v276h120v-676h-120zM477 722l-129 103l-133 -103l-46 45l141 144h81l135 -144z" />
    <glyph glyph-name="hcircumflex" unicode="&#x125;" horiz-adv-x="564" 
d="M161 407l4.99805 -0.000976562c16 28.667 38.833 50.334 68.5 65.001s60.834 22 93.501 22c30 0 56 -3.83301 78 -11.5s39.333 -17.5 52 -29.5s22.834 -27.167 30.501 -45.5s12.667 -36.5 15 -54.5s3.5 -38.333 3.5 -61v-292h-119v284c0 40 -7 70.5 -21 91.5
s-39.667 31.5 -77 31.5c-38.667 0 -67.5 -14.5 -86.5 -43.5s-28.5 -61.5 -28.5 -97.5v-266h-117v712h115v-196c0 -46 -4 -82.333 -12 -109zM244.998 726.999l-129 103l-133 -103l-46 45l141 144h81l135 -144z" />
    <glyph glyph-name="Hbar" unicode="&#x126;" horiz-adv-x="697" 
d="M513 0v300h-329v-300h-120v527h-46v70h46v79h120v-79h329v79h119v-79h51v-70h-51v-527h-119zM184 400h329v127h-329v-127z" />
    <glyph glyph-name="hbar" unicode="&#x127;" horiz-adv-x="564" 
d="M161 393h4.99902c16 28.667 38.833 50.167 68.5 64.5s60.834 21.5 93.501 21.5c36.667 0 67.5 -5.33301 92.5 -16s43.5 -26.167 55.5 -46.5s20.167 -41.333 24.5 -63s6.5 -47.167 6.5 -76.5v-277h-119v270c0 40 -7.16699 70.333 -21.5 91s-39.833 31 -76.5 31
c-38.667 0 -67.5 -14.333 -86.5 -43s-28.5 -61 -28.5 -97v-252h-117v556h-51v68h51v88h115v-88h220v-68h-220v-40c0 -56 -4 -97 -12 -123z" />
    <glyph glyph-name="Itilde" unicode="&#x128;" horiz-adv-x="280" 
d="M80 0v676h121v-676h-121zM212 744c-17.333 0 -41.834 6.00098 -73.501 18.001s-54.5 18 -68.5 18c-24 0 -48 -12.667 -72 -38l-49 38c10.667 27.333 26.167 48.666 46.5 63.999s42.833 23 67.5 23c15.333 0 38 -5.83301 68 -17.5s53.333 -17.5 70 -17.5
c24.667 0 48.334 12 71.001 36l50 -35c-8 -26.667 -22.5 -48.167 -43.5 -64.5s-43.167 -24.5 -66.5 -24.5z" />
    <glyph glyph-name="itilde" unicode="&#x129;" horiz-adv-x="279" 
d="M210 574c-17.333 0 -41.834 6.00098 -73.501 18.001s-54.5 18 -68.5 18c-24 0 -48 -12.667 -72 -38l-49 38c10.667 27.333 26.167 48.666 46.5 63.999s42.833 23 67.5 23c15.333 0 38 -5.83301 68 -17.5s53.333 -17.5 70 -17.5c24.667 0 48.334 12 71.001 36l50 -35
c-8 -26.667 -22.5 -48.167 -43.5 -64.5s-43.167 -24.5 -66.5 -24.5zM78.999 0.000976562v486h117v-486h-117z" />
    <glyph glyph-name="Imacron" unicode="&#x12a;" horiz-adv-x="280" 
d="M80 0v676h121v-676h-121zM-17 762v83h316v-83h-316z" />
    <glyph glyph-name="imacron" unicode="&#x12b;" horiz-adv-x="279" 
d="M-19 598v83h319v-83h-319zM79 0v486h117v-486h-117z" />
    <glyph glyph-name="Ibreve" unicode="&#x12c;" horiz-adv-x="282" 
d="M93 0v676h121v-676h-121zM153 728c-28.667 0 -54 5.83301 -76 17.5s-39.333 26.834 -52 45.501s-22.5 37.334 -29.5 56.001s-11.167 37.334 -12.5 56.001h79c2.66699 -25.333 11.5 -47.333 26.5 -66s36.5 -28 64.5 -28s49.5 9.33301 64.5 28s23.833 40.667 26.5 66h79
c-1.33301 -18.667 -5.5 -37.334 -12.5 -56.001s-16.833 -37.334 -29.5 -56.001s-30 -33.834 -52 -45.501s-47.333 -17.5 -76 -17.5z" />
    <glyph glyph-name="ibreve" unicode="&#x12d;" horiz-adv-x="279" 
d="M139 555c-28.667 0 -54.1699 5.5 -76.5029 16.5s-39.833 25.333 -52.5 43s-22.5 35.5 -29.5 53.5s-11.167 36.333 -12.5 55h80c2.66699 -24.667 11.334 -45.334 26.001 -62.001s36.334 -25 65.001 -25c28 0 49.333 8.33301 64 25s23.334 37.334 26.001 62.001h80
c-1.33301 -18.667 -5.5 -37 -12.5 -55s-16.833 -35.833 -29.5 -53.5s-30 -32 -52 -43s-47.333 -16.5 -76 -16.5zM78.9971 0v486h117v-486h-117z" />
    <glyph glyph-name="Iogonek" unicode="&#x12e;" horiz-adv-x="280" 
d="M200 0l-70 0.000976562c-32.667 -38.667 -49 -75.334 -49 -110.001c0 -35.333 23.333 -53 70 -53c14.667 0 37 3 67 9l10 -41c-37.333 -18.667 -77.333 -28 -120 -28c-36.667 0 -65 7 -85 21s-30 33.333 -30 58c0 52 28.667 100.667 86 146v673h121v-675z" />
    <glyph glyph-name="iogonek" unicode="&#x12f;" horiz-adv-x="279" 
d="M196 0l-65.999 0.000976562c-30.667 -38.667 -46 -74.334 -46 -107.001c0 -36 23.333 -54 70 -54c13.333 0 35.666 3.33301 66.999 10l11 -41c-40 -19.333 -80.333 -29 -121 -29c-36.667 0 -65 7.16699 -85 21.5s-30 33.833 -30 58.5c0 50 27.667 97.333 83 142v485h117
v-486zM71.001 619.001c0 20 5.83301 36 17.5 48s28.167 18 49.5 18c22 0 39 -6 51 -18s18 -28 18 -48c0 -45.333 -23 -68 -69 -68c-44.667 0 -67 22.667 -67 68z" />
    <glyph glyph-name="Idotaccent" unicode="&#x130;" horiz-adv-x="280" 
d="M80 0v676h121v-676h-121zM76 809c0 17.333 6.16699 32.333 18.5 45s27.166 19 44.499 19s32.333 -6.33301 45 -19s19 -27.667 19 -45s-6.33301 -32.333 -19 -45s-27.667 -19 -45 -19s-32.166 6.33301 -44.499 19s-18.5 27.667 -18.5 45z" />
    <glyph glyph-name="dotlessi" unicode="&#x131;" horiz-adv-x="279" 
d="M79 0v486h117v-486h-117z" />
    <glyph glyph-name="IJ" unicode="&#x132;" horiz-adv-x="803" 
d="M76 0v676h121v-676h-121zM482 -8c-70.667 0 -127 14.833 -169 44.5s-63 72.834 -63 129.501c0 12 1 24.667 3 38h114c1.33301 -73.333 40.333 -111 117 -113c49.333 0 83 12.667 101 38s27 61.666 27 108.999v438h119v-448c0 -157.333 -83 -236 -249 -236z" />
    <glyph glyph-name="ij" unicode="&#x133;" horiz-adv-x="519" 
d="M79 0v486h117v-486h-117zM71 618c0 19.333 6.66699 35.666 20 48.999s29.333 20 48 20c19.333 0 35.833 -6.66699 49.5 -20s20.5 -29.666 20.5 -48.999c0 -18.667 -6.83301 -34.667 -20.5 -48s-30.167 -20 -49.5 -20c-18.667 0 -34.667 6.66699 -48 20s-20 29.333 -20 48
zM320 -204h-64v94h20c20 0 33.5 4.66699 40.5 14s10.5 24.333 10.5 45v537h118v-550c0 -44.667 -9.33301 -79.167 -28 -103.5s-51 -36.5 -97 -36.5zM318 618c0 19.333 6.66699 35.666 20 48.999s29.333 20 48 20c19.333 0 35.833 -6.66699 49.5 -20
s20.5 -29.666 20.5 -48.999c0 -18.667 -6.83301 -34.667 -20.5 -48s-30.167 -20 -49.5 -20c-18.667 0 -34.667 6.66699 -48 20s-20 29.333 -20 48z" />
    <glyph glyph-name="Jcircumflex" unicode="&#x134;" horiz-adv-x="575" 
d="M250 -8c-70.667 0 -127 14.833 -169 44.5s-63 72.834 -63 129.501c0 12 1 24.667 3 38h114c1.33301 -73.333 40.333 -111 117 -113c49.333 0 83 12.667 101 38s27 61.666 27 108.999v438h119v-448c0 -157.333 -83 -236 -249 -236zM568 724l-129 103l-133 -103l-46 45
l141 144h81l135 -144z" />
    <glyph glyph-name="jcircumflex" unicode="&#x135;" horiz-adv-x="257" 
d="M67 -193h-62v93h23c18 0 30.333 4.5 37 13.5s10 22.167 10 39.5v533h115v-541c0 -92 -41 -138 -123 -138zM260 546l-127 107l-134 -107l-46 45l141 150h81l137 -151z" />
    <glyph glyph-name="Kcommaaccent" unicode="&#x136;" horiz-adv-x="612" 
d="M184 676v-268h73l213 268h139l-257 -316l266 -360h-148l-217 306h-69v-306h-120v676h120zM238 -89c0 18 6.16895 33.167 18.502 45.5s27.166 18.5 44.499 18.5c18.667 0 34 -5.83301 46 -17.5s18 -26.5 18 -44.5c0 -11.333 -2.66699 -23.333 -8 -36l-75 -144l-36 13
l34 106c-12.667 3.33301 -22.834 10.5 -30.501 21.5s-11.5 23.5 -11.5 37.5z" />
    <glyph glyph-name="kcommaaccent" unicode="&#x137;" horiz-adv-x="521" 
d="M378 485h129l-181 -218l192 -267h-137l-151 221h-56v-221h-116v711h116v-398h65l79.5 98.5zM193 -109c0 18 6.16895 33.167 18.502 45.5s27.166 18.5 44.499 18.5c18.667 0 34 -5.83301 46 -17.5s18 -26.5 18 -44.5c0 -11.333 -2.66699 -23.333 -8 -36l-75 -144l-36 13
l34 106c-12.667 3.33301 -22.834 10.5 -30.501 21.5s-11.5 23.5 -11.5 37.5z" />
    <glyph glyph-name="kgreenlandic" unicode="&#x138;" horiz-adv-x="519" 
d="M173 486v-183h61l145 182h128l-180 -224l187 -261h-136l-144 211h-61v-211h-116v486h116z" />
    <glyph glyph-name="Lacute" unicode="&#x139;" horiz-adv-x="547" 
d="M66 0v676h121v-576h349v-100h-470zM114 722l-40 61l174 128l65 -92z" />
    <glyph glyph-name="lacute" unicode="&#x13a;" horiz-adv-x="266" 
d="M68 114l-0.000976562 597.002h115v-588c0 -16.667 3 -27.334 9 -32.001s20 -7.33398 42 -8.00098v-84c-24 -4.66699 -45.333 -7 -64 -7c-41.333 0 -68.666 9.33301 -81.999 28s-20 50 -20 94zM118.999 758.002l-40 61l174 128l65 -92z" />
    <glyph glyph-name="Lcommaaccent" unicode="&#x13b;" horiz-adv-x="547" 
d="M66 0v676h121v-576h349v-100h-470zM208 -109c0 18 6.16895 33.167 18.502 45.5s27.166 18.5 44.499 18.5c18.667 0 34 -5.83301 46 -17.5s18 -26.5 18 -44.5c0 -11.333 -2.66699 -23.333 -8 -36l-75 -144l-36 13l34 106c-12.667 3.33301 -22.834 10.5 -30.501 21.5
s-11.5 23.5 -11.5 37.5z" />
    <glyph glyph-name="lcommaaccent" unicode="&#x13c;" horiz-adv-x="266" 
d="M68 114l-0.000976562 597.002h115v-588c0 -16.667 3 -27.334 9 -32.001s20 -7.33398 42 -8.00098v-84c-24 -4.66699 -45.333 -7 -64 -7c-41.333 0 -68.666 9.33301 -81.999 28s-20 50 -20 94zM80.999 -108.998c0 18 6.16895 33.167 18.502 45.5s27.166 18.5 44.499 18.5
c18.667 0 34 -5.83301 46 -17.5s18 -26.5 18 -44.5c0 -11.333 -2.66699 -23.333 -8 -36l-75 -144l-36 13l34 106c-12.667 3.33301 -22.834 10.5 -30.501 21.5s-11.5 23.5 -11.5 37.5z" />
    <glyph glyph-name="Lcaron" unicode="&#x13d;" horiz-adv-x="547" 
d="M66 0v676h121v-576h349v-100h-470zM332 619c0 18 6.16895 33.167 18.502 45.5s27.166 18.5 44.499 18.5c18.667 0 34 -5.83301 46 -17.5s18 -26.5 18 -44.5c0 -11.333 -2.66699 -23.333 -8 -36l-75 -144l-36 13l34 106c-12.667 3.33301 -22.834 10.5 -30.501 21.5
s-11.5 23.5 -11.5 37.5z" />
    <glyph glyph-name="lcaron" unicode="&#x13e;" horiz-adv-x="355" 
d="M54 114l-0.000976562 597.002h115v-588c0 -16.667 3 -27.334 9 -32.001s20 -7.33398 42 -8.00098v-84c-24 -4.66699 -45.333 -7 -64 -7c-41.333 0 -68.666 9.33301 -81.999 28s-20 50 -20 94zM233.999 656.002c0 18 6.16895 33.167 18.502 45.5s27.166 18.5 44.499 18.5
c18.667 0 34 -5.83301 46 -17.5s18 -26.5 18 -44.5c0 -11.333 -2.66699 -23.333 -8 -36l-75 -144l-36 13l34 106c-12.667 3.33301 -22.834 10.5 -30.501 21.5s-11.5 23.5 -11.5 37.5z" />
    <glyph glyph-name="Ldot" unicode="&#x13f;" horiz-adv-x="547" 
d="M66 0v676h121v-576h349v-100h-470zM320 393c0 17.333 6.16699 32.333 18.5 45s27.166 19 44.499 19s32.333 -6.33301 45 -19s19 -27.667 19 -45s-6.33301 -32.333 -19 -45s-27.667 -19 -45 -19s-32.166 6.33301 -44.499 19s-18.5 27.667 -18.5 45z" />
    <glyph glyph-name="ldot" unicode="&#x140;" horiz-adv-x="367" 
d="M61 114l-0.000976562 597.002h115v-588c0 -16.667 3 -27.334 9 -32.001s20 -7.33398 42 -8.00098v-84c-24 -4.66699 -45.333 -7 -64 -7c-41.333 0 -68.666 9.33301 -81.999 28s-20 50 -20 94zM235.999 402.002c0 17.333 6.16699 32.333 18.5 45s27.166 19 44.499 19
s32.333 -6.33301 45 -19s19 -27.667 19 -45s-6.33301 -32.333 -19 -45s-27.667 -19 -45 -19s-32.166 6.33301 -44.499 19s-18.5 27.667 -18.5 45z" />
    <glyph glyph-name="Lslash" unicode="&#x141;" horiz-adv-x="547" 
d="M66 0v224l-63 -33l-30 62l93 50v373h121v-310l158 87l32 -62l-190 -103v-188h349v-100h-470z" />
    <glyph glyph-name="lslash" unicode="&#x142;" horiz-adv-x="266" 
d="M68 114l-0.000976562 127.002l-71 -41l-33 61l104 60v390h115v-323l79 46l33 -61l-112 -65v-185c0 -16.667 3 -27.334 9 -32.001s20 -7.33398 42 -8.00098v-84c-24 -4.66699 -45.333 -7 -64 -7c-41.333 0 -68.666 9.33301 -81.999 28s-20 50 -20 94z" />
    <glyph glyph-name="Nacute" unicode="&#x143;" horiz-adv-x="697" 
d="M508 196l7.00098 1v479h119v-676h-109l-220 310c-54.667 77.333 -93.334 136 -116.001 176l-5 -2v-484h-121v676h113l197 -276c45.333 -63.333 90.333 -131.333 135 -204zM316.001 722l-40 61l174 128l65 -92z" />
    <glyph glyph-name="nacute" unicode="&#x144;" horiz-adv-x="564" 
d="M328 493c36.667 0 67.333 -5.33398 92 -16.001s43 -26.167 55 -46.5s20.167 -41.333 24.5 -63s6.5 -47.167 6.5 -76.5v-291h-118v283c0 39.333 -7.33301 69.666 -22 90.999s-40 32 -76 32c-38 0 -66.667 -14.167 -86 -42.5s-29 -60.166 -29 -95.499v-268h-118v486h94
c13.333 -18 20 -41.667 20 -71h4c18 26.667 41.5 46.334 70.5 59.001s56.5 19 82.5 19zM241.999 543.999l-54 49l142 168l79 -74z" />
    <glyph glyph-name="Ncommaaccent" unicode="&#x145;" horiz-adv-x="697" 
d="M508 196l7.00098 1v479h119v-676h-109l-220 310c-54.667 77.333 -93.334 136 -116.001 176l-5 -2v-484h-121v676h113l197 -276c45.333 -63.333 90.333 -131.333 135 -204zM286.001 -89c0 18 6.16895 33.167 18.502 45.5s27.166 18.5 44.499 18.5
c18.667 0 34 -5.83301 46 -17.5s18 -26.5 18 -44.5c0 -11.333 -2.66699 -23.333 -8 -36l-75 -144l-36 13l34 106c-12.667 3.33301 -22.834 10.5 -30.501 21.5s-11.5 23.5 -11.5 37.5z" />
    <glyph glyph-name="ncommaaccent" unicode="&#x146;" horiz-adv-x="564" 
d="M328 493c36.667 0 67.333 -5.33398 92 -16.001s43 -26.167 55 -46.5s20.167 -41.333 24.5 -63s6.5 -47.167 6.5 -76.5v-291h-118v283c0 39.333 -7.33301 69.666 -22 90.999s-40 32 -76 32c-38 0 -66.667 -14.167 -86 -42.5s-29 -60.166 -29 -95.499v-268h-118v486h94
c13.333 -18 20 -41.667 20 -71h4c18 26.667 41.5 46.334 70.5 59.001s56.5 19 82.5 19zM207.999 -109.001c0 18 6.16895 33.167 18.502 45.5s27.166 18.5 44.499 18.5c18.667 0 34 -5.83301 46 -17.5s18 -26.5 18 -44.5c0 -11.333 -2.66699 -23.333 -8 -36l-75 -144l-36 13
l34 106c-12.667 3.33301 -22.834 10.5 -30.501 21.5s-11.5 23.5 -11.5 37.5z" />
    <glyph glyph-name="Ncaron" unicode="&#x147;" horiz-adv-x="697" 
d="M508 196l7.00098 1v479h119v-676h-109l-220 310c-54.667 77.333 -93.334 136 -116.001 176l-5 -2v-484h-121v676h113l197 -276c45.333 -63.333 90.333 -131.333 135 -204zM358.001 813l128 101l52 -45l-138 -145h-81l-141 145l46 45z" />
    <glyph glyph-name="ncaron" unicode="&#x148;" horiz-adv-x="564" 
d="M328 493c36.667 0 67.333 -5.33398 92 -16.001s43 -26.167 55 -46.5s20.167 -41.333 24.5 -63s6.5 -47.167 6.5 -76.5v-291h-118v283c0 39.333 -7.33301 69.666 -22 90.999s-40 32 -76 32c-38 0 -66.667 -14.167 -86 -42.5s-29 -60.166 -29 -95.499v-268h-118v486h94
c13.333 -18 20 -41.667 20 -71h4c18 26.667 41.5 46.334 70.5 59.001s56.5 19 82.5 19zM258.999 636.999l127 102l50 -44l-135 -146h-81l-141 145l46 45z" />
    <glyph glyph-name="napostrophe" unicode="&#x149;" horiz-adv-x="629" 
d="M393 493c36.667 0 67.333 -5.33398 92 -16.001s43 -26.167 55 -46.5s20.167 -41.333 24.5 -63s6.5 -47.167 6.5 -76.5v-291h-118v283c0 39.333 -7.33301 69.666 -22 90.999s-40 32 -76 32c-38 0 -66.667 -14.167 -86 -42.5s-29 -60.166 -29 -95.499v-268h-118v486h94
c13.333 -18 20 -41.667 20 -71h4c18 26.667 41.5 46.334 70.5 59.001s56.5 19 82.5 19zM2.99902 634.999c0 18 6.16895 33.167 18.502 45.5s27.166 18.5 44.499 18.5c18.667 0 34 -5.83301 46 -17.5s18 -26.5 18 -44.5c0 -11.333 -2.66699 -23.333 -8 -36l-75 -144l-36 13
l34 106c-12.667 3.33301 -22.834 10.5 -30.501 21.5s-11.5 23.5 -11.5 37.5z" />
    <glyph glyph-name="Eng" unicode="&#x14a;" horiz-adv-x="697" 
d="M508 196l7.00098 1v479h119v-756c0 -39.333 -12.167 -70.833 -36.5 -94.5s-60.166 -35.5 -107.499 -35.5c-33.333 0 -66.333 7.66699 -99 23l26 81c23.333 -6.66699 41.666 -10 54.999 -10c18 0 30.333 4.33301 37 13s10 22.667 10 42v70l-214 301
c-54.667 77.333 -93.334 136 -116.001 176l-5 -2v-484h-121v676h113l197 -276c45.333 -63.333 90.333 -131.333 135 -204z" />
    <glyph glyph-name="eng" unicode="&#x14b;" horiz-adv-x="564" 
d="M328 493c36.667 0 67.333 -5.66699 92 -17s43 -28 55 -50s20.167 -44.667 24.5 -68s6.5 -51.333 6.5 -84v-346c0 -43.333 -12 -77 -36 -101s-61 -36 -111 -36c-37.333 0 -69 7.33301 -95 22c2.66699 7.33301 6.83398 20.166 12.501 38.499s10.167 32.166 13.5 41.499
c19.333 -5.33301 37.666 -8 54.999 -8s28.833 4 34.5 12s8.5 22 8.5 42v344c0 82 -32.667 123 -98 123c-38 0 -66.667 -14.167 -86 -42.5s-29 -60.166 -29 -95.499v-268h-118v486h94c13.333 -18 20 -41.667 20 -71h4c18 26.667 41.5 46.334 70.5 59.001s56.5 19 82.5 19z
" />
    <glyph glyph-name="Omacron" unicode="&#x14c;" horiz-adv-x="727" 
d="M367 683c57.333 0 106.666 -9.66699 147.999 -29s73 -46.166 95 -80.499s38 -71.166 48 -110.499s15 -83 15 -131c0 -35.333 -3 -68.666 -9 -99.999s-16.333 -61.833 -31 -91.5s-33.334 -55.334 -56.001 -77.001s-52 -39 -88 -52s-77 -19.5 -123 -19.5
c-58 0 -107.667 8.33301 -149 25s-73.666 40.667 -96.999 72s-40.166 66.666 -50.499 105.999s-15.5 84.666 -15.5 135.999c0 107.333 25.5 192.833 76.5 256.5s129.833 95.5 236.5 95.5zM365 584c-67.333 0 -115.333 -22 -144 -66s-43 -106 -43 -186
c0 -162 62.333 -243 187 -243c57.333 0 102.166 20.5 134.499 61.5s48.5 101.5 48.5 181.5c0 78 -14.667 139.5 -44 184.5s-75.666 67.5 -138.999 67.5zM207 772v83h316v-83h-316z" />
    <glyph glyph-name="omacron" unicode="&#x14d;" horiz-adv-x="577" 
d="M290 494c35.333 0 66.8281 -4.83398 94.4951 -14.501s50.334 -22.334 68.001 -38.001s32.334 -34.5 44.001 -56.5s19.834 -44.667 24.501 -68s7 -48.333 7 -75c0 -32 -4 -62.167 -12 -90.5s-20.667 -54.666 -38 -78.999s-42.166 -43.666 -74.499 -57.999
s-70.166 -21.5 -113.499 -21.5c-160.667 0 -241 82.667 -241 248c0 75.333 20.167 136.333 60.5 183s100.5 70 180.5 70zM289.995 400.999c-82.667 0 -124 -53.334 -124 -160.001c0 -105.333 41.333 -158 124 -158c38 0 67.333 13.333 88 40s31 66.334 31 119.001
c0 106 -39.667 159 -119 159zM129.995 597.998v83h319v-83h-319z" />
    <glyph glyph-name="Obreve" unicode="&#x14e;" horiz-adv-x="727" 
d="M367 683c57.333 0 106.666 -9.66699 147.999 -29s73 -46.166 95 -80.499s38 -71.166 48 -110.499s15 -83 15 -131c0 -35.333 -3 -68.666 -9 -99.999s-16.333 -61.833 -31 -91.5s-33.334 -55.334 -56.001 -77.001s-52 -39 -88 -52s-77 -19.5 -123 -19.5
c-58 0 -107.667 8.33301 -149 25s-73.666 40.667 -96.999 72s-40.166 66.666 -50.499 105.999s-15.5 84.666 -15.5 135.999c0 107.333 25.5 192.833 76.5 256.5s129.833 95.5 236.5 95.5zM365 584c-67.333 0 -115.333 -22 -144 -66s-43 -106 -43 -186
c0 -162 62.333 -243 187 -243c57.333 0 102.166 20.5 134.499 61.5s48.5 101.5 48.5 181.5c0 78 -14.667 139.5 -44 184.5s-75.666 67.5 -138.999 67.5zM367 735c-28.667 0 -54 5.83301 -76 17.5s-39.333 26.834 -52 45.501s-22.5 37.334 -29.5 56.001
s-11.167 37.334 -12.5 56.001h79c2.66699 -25.333 11.5 -47.333 26.5 -66s36.5 -28 64.5 -28s49.5 9.33301 64.5 28s23.833 40.667 26.5 66h79c-1.33301 -18.667 -5.5 -37.334 -12.5 -56.001s-16.833 -37.334 -29.5 -56.001s-30 -33.834 -52 -45.501
s-47.333 -17.5 -76 -17.5z" />
    <glyph glyph-name="obreve" unicode="&#x14f;" horiz-adv-x="577" 
d="M290 494c35.333 0 66.8281 -4.83398 94.4951 -14.501s50.334 -22.334 68.001 -38.001s32.334 -34.5 44.001 -56.5s19.834 -44.667 24.501 -68s7 -48.333 7 -75c0 -32 -4 -62.167 -12 -90.5s-20.667 -54.666 -38 -78.999s-42.166 -43.666 -74.499 -57.999
s-70.166 -21.5 -113.499 -21.5c-160.667 0 -241 82.667 -241 248c0 75.333 20.167 136.333 60.5 183s100.5 70 180.5 70zM289.995 400.999c-82.667 0 -124 -53.334 -124 -160.001c0 -105.333 41.333 -158 124 -158c38 0 67.333 13.333 88 40s31 66.334 31 119.001
c0 106 -39.667 159 -119 159zM291.995 548.998c-28.667 0 -54.1699 5.5 -76.5029 16.5s-39.833 25.333 -52.5 43s-22.5 35.5 -29.5 53.5s-11.167 36.333 -12.5 55h80c2.66699 -24.667 11.334 -45.334 26.001 -62.001s36.334 -25 65.001 -25c28 0 49.333 8.33301 64 25
s23.334 37.334 26.001 62.001h80c-1.33301 -18.667 -5.5 -37 -12.5 -55s-16.833 -35.833 -29.5 -53.5s-30 -32 -52 -43s-47.333 -16.5 -76 -16.5z" />
    <glyph glyph-name="Ohungarumlaut" unicode="&#x150;" horiz-adv-x="727" 
d="M367 683c57.333 0 106.666 -9.66699 147.999 -29s73 -46.166 95 -80.499s38 -71.166 48 -110.499s15 -83 15 -131c0 -35.333 -3 -68.666 -9 -99.999s-16.333 -61.833 -31 -91.5s-33.334 -55.334 -56.001 -77.001s-52 -39 -88 -52s-77 -19.5 -123 -19.5
c-58 0 -107.667 8.33301 -149 25s-73.666 40.667 -96.999 72s-40.166 66.666 -50.499 105.999s-15.5 84.666 -15.5 135.999c0 107.333 25.5 192.833 76.5 256.5s129.833 95.5 236.5 95.5zM365 584c-67.333 0 -115.333 -22 -144 -66s-43 -106 -43 -186
c0 -162 62.333 -243 187 -243c57.333 0 102.166 20.5 134.499 61.5s48.5 101.5 48.5 181.5c0 78 -14.667 139.5 -44 184.5s-75.666 67.5 -138.999 67.5zM260 717l-49 54l158 146l78 -81zM455 722l-45 57l167 135l72 -86z" />
    <glyph glyph-name="ohungarumlaut" unicode="&#x151;" horiz-adv-x="577" 
d="M290 494c35.333 0 66.8281 -4.83398 94.4951 -14.501s50.334 -22.334 68.001 -38.001s32.334 -34.5 44.001 -56.5s19.834 -44.667 24.501 -68s7 -48.333 7 -75c0 -32 -4 -62.167 -12 -90.5s-20.667 -54.666 -38 -78.999s-42.166 -43.666 -74.499 -57.999
s-70.166 -21.5 -113.499 -21.5c-160.667 0 -241 82.667 -241 248c0 75.333 20.167 136.333 60.5 183s100.5 70 180.5 70zM289.995 400.999c-82.667 0 -124 -53.334 -124 -160.001c0 -105.333 41.333 -158 124 -158c38 0 67.333 13.333 88 40s31 66.334 31 119.001
c0 106 -39.667 159 -119 159zM186.995 549.998l-54 49l142 167l79 -74zM360.995 549.998l-55 49l142 167l80 -74z" />
    <glyph glyph-name="OE" unicode="&#x152;" horiz-adv-x="922" 
d="M359 682c26 0 50.666 -2 73.999 -6h460v-92h-350v-188h319v-92h-319v-213h358v-91h-461c-26.667 -5.33301 -54 -8 -82 -8c-110.667 0 -189.667 29.833 -237 89.5s-71 142.834 -71 249.501c0 107.333 25.333 192.666 76 255.999s128.334 95 233.001 95zM356.999 82
c24.667 0 47.334 4 68.001 12v485c-22.667 8 -45.334 12 -68.001 12c-68 0 -116.167 -22.5 -144.5 -67.5s-42.5 -108.833 -42.5 -191.5c0 -166.667 62.333 -250 187 -250z" />
    <glyph glyph-name="oe" unicode="&#x153;" horiz-adv-x="908" 
d="M290 494c80.667 0 140.668 -26.333 180.001 -79c38 52 95.333 78 172 78c75.333 0 130.5 -20.667 165.5 -62s52.5 -95 52.5 -161c0 -24 -0.666992 -40 -2 -48h-330c-1.33301 -94 38.667 -141 120 -141c60 0 94 25 102 75h107v-14c0 -50.667 -20 -88.5 -60 -113.5
s-90 -37.167 -150 -36.5c-86.667 0 -147.334 24.667 -182.001 74c-40 -48.667 -99 -73 -177 -73c-159.333 0 -239 82.667 -239 248c0 75.333 20.167 136.333 60.5 183s100.5 70 180.5 70zM290.001 401c-82.667 0 -124 -53.334 -124 -160.001
c0 -105.333 41.333 -158 124 -158c38 0 67.333 13.333 88 40s31 66.334 31 119.001c0 106 -39.667 159 -119 159zM532.001 294.999h210.001c-1.33301 72 -35.333 108 -102 108c-32 0 -57.333 -9.5 -76 -28.5s-29.334 -45.5 -32.001 -79.5z" />
    <glyph glyph-name="Racute" unicode="&#x154;" horiz-adv-x="622" 
d="M576 467c0 -46 -15.3311 -88.667 -45.998 -128s-77.334 -63.333 -140.001 -72l197 -267h-141l-189 263h-72v-263h-120v676h274c77.333 0 136.166 -18.833 176.499 -56.5s60.5 -88.5 60.5 -152.5zM329.002 577h-145v-216h145c36 0 66.333 8.33301 91 25s37 44 37 82
c0 34 -12.167 60.667 -36.5 80s-54.833 29 -91.5 29zM258.002 722l-40 61l174 128l65 -92z" />
    <glyph glyph-name="racute" unicode="&#x155;" horiz-adv-x="355" 
d="M349 496l6.99902 -104.001c-63.333 -1.33301 -108.833 -13.166 -136.5 -35.499s-41.5 -57.5 -41.5 -105.5v-251h-117v486h94c12.667 -25.333 19 -56 19 -92h4c14.667 36 38.334 62 71.001 78s66 24 100 24zM155.999 543.999l-54 49l142 168l79 -74z" />
    <glyph glyph-name="Rcommaaccent" unicode="&#x156;" horiz-adv-x="622" 
d="M576 467c0 -46 -15.3311 -88.667 -45.998 -128s-77.334 -63.333 -140.001 -72l197 -267h-141l-189 263h-72v-263h-120v676h274c77.333 0 136.166 -18.833 176.499 -56.5s60.5 -88.5 60.5 -152.5zM329.002 577h-145v-216h145c36 0 66.333 8.33301 91 25s37 44 37 82
c0 34 -12.167 60.667 -36.5 80s-54.833 29 -91.5 29zM241.002 -89c0 18 6.16895 33.167 18.502 45.5s27.166 18.5 44.499 18.5c18.667 0 34 -5.83301 46 -17.5s18 -26.5 18 -44.5c0 -11.333 -2.66699 -23.333 -8 -36l-75 -144l-36 13l34 106
c-12.667 3.33301 -22.834 10.5 -30.501 21.5s-11.5 23.5 -11.5 37.5z" />
    <glyph glyph-name="rcommaaccent" unicode="&#x157;" horiz-adv-x="355" 
d="M349 496l6.99902 -104.001c-63.333 -1.33301 -108.833 -13.166 -136.5 -35.499s-41.5 -57.5 -41.5 -105.5v-251h-117v486h94c12.667 -25.333 19 -56 19 -92h4c14.667 36 38.334 62 71.001 78s66 24 100 24zM57.999 -109.001c0 18 6.16895 33.167 18.502 45.5
s27.166 18.5 44.499 18.5c18.667 0 34 -5.83301 46 -17.5s18 -26.5 18 -44.5c0 -11.333 -2.66699 -23.333 -8 -36l-75 -144l-36 13l34 106c-12.667 3.33301 -22.834 10.5 -30.501 21.5s-11.5 23.5 -11.5 37.5z" />
    <glyph glyph-name="Rcaron" unicode="&#x158;" horiz-adv-x="622" 
d="M576 467c0 -46 -15.3311 -88.667 -45.998 -128s-77.334 -63.333 -140.001 -72l197 -267h-141l-189 263h-72v-263h-120v676h274c77.333 0 136.166 -18.833 176.499 -56.5s60.5 -88.5 60.5 -152.5zM329.002 577h-145v-216h145c36 0 66.333 8.33301 91 25s37 44 37 82
c0 34 -12.167 60.667 -36.5 80s-54.833 29 -91.5 29zM276.002 813l128 101l52 -45l-138 -145h-81l-141 145l46 45z" />
    <glyph glyph-name="rcaron" unicode="&#x159;" horiz-adv-x="355" 
d="M349 496l6.99902 -104.001c-63.333 -1.33301 -108.833 -13.166 -136.5 -35.499s-41.5 -57.5 -41.5 -105.5v-251h-117v486h94c12.667 -25.333 19 -56 19 -92h4c14.667 36 38.334 62 71.001 78s66 24 100 24zM172.999 636.999l127 102l50 -44l-135 -146h-81l-141 145l46 45
z" />
    <glyph glyph-name="Sacute" unicode="&#x15a;" horiz-adv-x="650" 
d="M330 683c42 0 81.3311 -6 117.998 -18s67.834 -32.333 93.501 -61s38.5 -63 38.5 -103c0 -9.33301 -0.666992 -19.333 -2 -30h-116c-1.33301 32.667 -14 59.167 -38 79.5s-57 30.5 -99 30.5c-44 0 -77.167 -8.33301 -99.5 -25s-33.5 -38 -33.5 -64
c0 -12.667 2.66699 -23.5 8 -32.5s11.5 -16.167 18.5 -21.5s18.5 -10.333 34.5 -15s30.333 -8.16699 43 -10.5s31.667 -5.5 57 -9.5c87.333 -13.333 150.5 -36 189.5 -68s58.5 -79 58.5 -141c0 -58 -23.333 -106.333 -70 -145s-115 -58 -205 -58
c-79.333 0 -145.5 16.667 -198.5 50s-79.5 82.666 -79.5 147.999c0 10.667 1 21 3 31h114c1.33301 -40 15.833 -71.667 43.5 -95s67.834 -35 120.501 -35c50.667 0 87.834 9.5 111.501 28.5s35.5 42.5 35.5 70.5c0 32.667 -12 57.5 -36 74.5s-64.333 29.167 -121 36.5
c-30 3.33301 -55.833 7.33301 -77.5 12s-44 11.334 -67 20.001s-41.5 19.167 -55.5 31.5s-25.667 28.5 -35 48.5s-14 43.333 -14 70c0 25.333 4.33301 49.333 13 72s22.5 44 41.5 64s46.167 35.833 81.5 47.5s76.666 17.5 123.999 17.5zM283.998 722l-40 61l174 128l65 -92z
" />
    <glyph glyph-name="sacute" unicode="&#x15b;" horiz-adv-x="503" 
d="M249 494c30.667 0 59.835 -3.66406 87.502 -10.9971s52.167 -20.833 73.5 -40.5s32 -44.167 32 -73.5c0 -4 -0.666992 -10.667 -2 -20h-109c-6 38 -34 57 -84 57c-26.667 0 -46.834 -5.33301 -60.501 -16s-20.5 -24 -20.5 -40c0 -18.667 7 -31.167 21 -37.5
s40 -12.5 78 -18.5c69.333 -10.667 118.666 -27 147.999 -49s44 -56.333 44 -103c0 -42 -17.667 -77.333 -53 -106s-87.333 -43 -156 -43c-34 0 -66 3.83301 -96 11.5s-56.667 22.667 -80 45s-35 50.5 -35 84.5c0 4 0.666992 11.333 2 22h109c4 -51.333 39.333 -77 106 -77
c28.667 0 50.5 6 65.5 18s22.5 26 22.5 42c0 20 -7.5 34.667 -22.5 44s-41.5 16.666 -79.5 21.999c-25.333 3.33301 -45.833 6.66602 -61.5 9.99902s-32.5 8.33301 -50.5 15s-32.167 14.667 -42.5 24s-18.833 21.666 -25.5 36.999s-10 33.333 -10 54
c0 40.667 15.833 75.667 47.5 105s82.167 44 151.5 44zM233.001 544.003l-54 49l142 168l79 -74z" />
    <glyph glyph-name="Scircumflex" unicode="&#x15c;" horiz-adv-x="650" 
d="M330 683c42 0 81.3311 -6 117.998 -18s67.834 -32.333 93.501 -61s38.5 -63 38.5 -103c0 -9.33301 -0.666992 -19.333 -2 -30h-116c-1.33301 32.667 -14 59.167 -38 79.5s-57 30.5 -99 30.5c-44 0 -77.167 -8.33301 -99.5 -25s-33.5 -38 -33.5 -64
c0 -12.667 2.66699 -23.5 8 -32.5s11.5 -16.167 18.5 -21.5s18.5 -10.333 34.5 -15s30.333 -8.16699 43 -10.5s31.667 -5.5 57 -9.5c87.333 -13.333 150.5 -36 189.5 -68s58.5 -79 58.5 -141c0 -58 -23.333 -106.333 -70 -145s-115 -58 -205 -58
c-79.333 0 -145.5 16.667 -198.5 50s-79.5 82.666 -79.5 147.999c0 10.667 1 21 3 31h114c1.33301 -40 15.833 -71.667 43.5 -95s67.834 -35 120.501 -35c50.667 0 87.834 9.5 111.501 28.5s35.5 42.5 35.5 70.5c0 32.667 -12 57.5 -36 74.5s-64.333 29.167 -121 36.5
c-30 3.33301 -55.833 7.33301 -77.5 12s-44 11.334 -67 20.001s-41.5 19.167 -55.5 31.5s-25.667 28.5 -35 48.5s-14 43.333 -14 70c0 25.333 4.33301 49.333 13 72s22.5 44 41.5 64s46.167 35.833 81.5 47.5s76.666 17.5 123.999 17.5zM451.998 722l-129 103l-133 -103
l-46 45l141 144h81l135 -144z" />
    <glyph glyph-name="scircumflex" unicode="&#x15d;" horiz-adv-x="503" 
d="M249 494c30.667 0 59.835 -3.66406 87.502 -10.9971s52.167 -20.833 73.5 -40.5s32 -44.167 32 -73.5c0 -4 -0.666992 -10.667 -2 -20h-109c-6 38 -34 57 -84 57c-26.667 0 -46.834 -5.33301 -60.501 -16s-20.5 -24 -20.5 -40c0 -18.667 7 -31.167 21 -37.5
s40 -12.5 78 -18.5c69.333 -10.667 118.666 -27 147.999 -49s44 -56.333 44 -103c0 -42 -17.667 -77.333 -53 -106s-87.333 -43 -156 -43c-34 0 -66 3.83301 -96 11.5s-56.667 22.667 -80 45s-35 50.5 -35 84.5c0 4 0.666992 11.333 2 22h109c4 -51.333 39.333 -77 106 -77
c28.667 0 50.5 6 65.5 18s22.5 26 22.5 42c0 20 -7.5 34.667 -22.5 44s-41.5 16.666 -79.5 21.999c-25.333 3.33301 -45.833 6.66602 -61.5 9.99902s-32.5 8.33301 -50.5 15s-32.167 14.667 -42.5 24s-18.833 21.666 -25.5 36.999s-10 33.333 -10 54
c0 40.667 15.833 75.667 47.5 105s82.167 44 151.5 44zM373.001 546.003l-127 107l-134 -107l-46 45l141 150h81l137 -151z" />
    <glyph glyph-name="Scedilla" unicode="&#x15e;" horiz-adv-x="650" 
d="M330 683c42 0 81.3311 -6.00098 117.998 -18.001s67.834 -32.333 93.501 -61s38.5 -63 38.5 -103c0 -9.33301 -0.666992 -19.333 -2 -30h-116c-1.33301 32.667 -14 59.167 -38 79.5s-57 30.5 -99 30.5c-44 0 -77.167 -8.33301 -99.5 -25s-33.5 -38 -33.5 -64
c0 -12.667 2.66699 -23.5 8 -32.5s11.5 -16.167 18.5 -21.5s18.5 -10.333 34.5 -15s30.333 -8.16699 43 -10.5s31.667 -5.5 57 -9.5c87.333 -13.333 150.5 -36 189.5 -68s58.5 -79 58.5 -141c0 -54.667 -20.667 -101 -62 -139s-102.333 -59 -183 -63l-16 -32
c46 -0.666992 78.5 -10.5 97.5 -29.5s28.5 -39.5 28.5 -61.5c0 -28 -11.5 -51 -34.5 -69s-57.167 -27.333 -102.5 -28c-36.667 0 -73.667 6.33301 -111 19l15 50c30 -8.66699 56 -13 78 -13c20 0 36 3.66699 48 11s18 17.333 18 30c0 25.333 -16.333 38 -49 38
c-18 0 -32.333 -3.33301 -43 -10l-28 23l37 72c-72 4 -131 22.667 -177 56s-69 80.333 -69 141c0 14 0.666992 24.333 2 31h115c1.33301 -40 15.833 -71.667 43.5 -95s67.834 -35 120.501 -35c50.667 0 87.834 9.5 111.501 28.5s35.5 42.5 35.5 70.5
c0 32.667 -12 57.5 -36 74.5s-64.333 29.167 -121 36.5c-30 3.33301 -55.833 7.33301 -77.5 12s-44 11.334 -67 20.001s-41.5 19.167 -55.5 31.5s-25.667 28.5 -35 48.5s-14 43.333 -14 70c0 25.333 4.33301 49.333 13 72s22.5 44 41.5 64s46.167 35.833 81.5 47.5
s76.666 17.5 123.999 17.5z" />
    <glyph glyph-name="scedilla" unicode="&#x15f;" horiz-adv-x="499" 
d="M243 -228c-36.667 0 -73.666 6.33691 -110.999 19.0039l15 50c30 -8.66699 56 -13 78 -13c20 0 36 3.66699 48 11s18 17.333 18 30c0 25.333 -16.333 38 -49 38c-18 0 -32.333 -3.33301 -43 -10l-28 23l40 75c-30.667 2.66699 -58.334 8.5 -83.001 17.5s-46 24 -64 45
s-27 46.5 -27 76.5c0 4 0.666992 11.333 2 22h109c4 -51.333 39.333 -77 106 -77c28.667 0 50.5 6 65.5 18s22.5 26 22.5 42c0 20 -7.5 34.667 -22.5 44s-41.5 16.666 -79.5 21.999c-25.333 3.33301 -45.833 6.66602 -61.5 9.99902s-32.5 8.33301 -50.5 15
s-32.167 14.667 -42.5 24s-18.833 21.666 -25.5 36.999s-10 33.333 -10 54c0 40.667 15.833 75.667 47.5 105s82.167 44 151.5 44c30.667 0 59.834 -3.66699 87.501 -11s52.167 -20.833 73.5 -40.5s32 -44.167 32 -73.5c0 -4 -0.666992 -10.667 -2 -20h-109
c-6 38 -34 57 -84 57c-26.667 0 -46.834 -5.33301 -60.501 -16s-20.5 -24 -20.5 -40c0 -18.667 7 -31.167 21 -37.5s40 -12.5 78 -18.5c70 -11.333 119.5 -27.833 148.5 -49.5s43.5 -55.834 43.5 -102.501c0 -40 -15.667 -73.833 -47 -101.5s-77 -43.167 -137 -46.5l-19 -34
c46 -0.666992 78.5 -10.5 97.5 -29.5s28.5 -39.5 28.5 -61.5c0 -28 -11.5 -51 -34.5 -69s-57.167 -27.333 -102.5 -28z" />
    <glyph glyph-name="Scaron" unicode="&#x160;" horiz-adv-x="650" 
d="M330 683c42 0 81.3311 -6 117.998 -18s67.834 -32.333 93.501 -61s38.5 -63 38.5 -103c0 -9.33301 -0.666992 -19.333 -2 -30h-116c-1.33301 32.667 -14 59.167 -38 79.5s-57 30.5 -99 30.5c-44 0 -77.167 -8.33301 -99.5 -25s-33.5 -38 -33.5 -64
c0 -12.667 2.66699 -23.5 8 -32.5s11.5 -16.167 18.5 -21.5s18.5 -10.333 34.5 -15s30.333 -8.16699 43 -10.5s31.667 -5.5 57 -9.5c87.333 -13.333 150.5 -36 189.5 -68s58.5 -79 58.5 -141c0 -58 -23.333 -106.333 -70 -145s-115 -58 -205 -58
c-79.333 0 -145.5 16.667 -198.5 50s-79.5 82.666 -79.5 147.999c0 10.667 1 21 3 31h114c1.33301 -40 15.833 -71.667 43.5 -95s67.834 -35 120.501 -35c50.667 0 87.834 9.5 111.501 28.5s35.5 42.5 35.5 70.5c0 32.667 -12 57.5 -36 74.5s-64.333 29.167 -121 36.5
c-30 3.33301 -55.833 7.33301 -77.5 12s-44 11.334 -67 20.001s-41.5 19.167 -55.5 31.5s-25.667 28.5 -35 48.5s-14 43.333 -14 70c0 25.333 4.33301 49.333 13 72s22.5 44 41.5 64s46.167 35.833 81.5 47.5s76.666 17.5 123.999 17.5zM323.998 813l128 101l52 -45
l-138 -145h-81l-141 145l46 45z" />
    <glyph glyph-name="scaron" unicode="&#x161;" horiz-adv-x="503" 
d="M249 494c30.667 0 59.835 -3.66406 87.502 -10.9971s52.167 -20.833 73.5 -40.5s32 -44.167 32 -73.5c0 -4 -0.666992 -10.667 -2 -20h-109c-6 38 -34 57 -84 57c-26.667 0 -46.834 -5.33301 -60.501 -16s-20.5 -24 -20.5 -40c0 -18.667 7 -31.167 21 -37.5
s40 -12.5 78 -18.5c69.333 -10.667 118.666 -27 147.999 -49s44 -56.333 44 -103c0 -42 -17.667 -77.333 -53 -106s-87.333 -43 -156 -43c-34 0 -66 3.83301 -96 11.5s-56.667 22.667 -80 45s-35 50.5 -35 84.5c0 4 0.666992 11.333 2 22h109c4 -51.333 39.333 -77 106 -77
c28.667 0 50.5 6 65.5 18s22.5 26 22.5 42c0 20 -7.5 34.667 -22.5 44s-41.5 16.666 -79.5 21.999c-25.333 3.33301 -45.833 6.66602 -61.5 9.99902s-32.5 8.33301 -50.5 15s-32.167 14.667 -42.5 24s-18.833 21.666 -25.5 36.999s-10 33.333 -10 54
c0 40.667 15.833 75.667 47.5 105s82.167 44 151.5 44zM254.001 637.003l127 102l50 -44l-135 -146h-81l-141 145l46 45z" />
    <glyph glyph-name="Tcommaaccent" unicode="&#x162;" horiz-adv-x="595" 
d="M359 577v-577h-120v577h-224v99h565v-99h-221zM234 -109c0 18 6.16895 33.167 18.502 45.5s27.166 18.5 44.499 18.5c18.667 0 34 -5.83301 46 -17.5s18 -26.5 18 -44.5c0 -11.333 -2.66699 -23.333 -8 -36l-75 -144l-36 13l34 106
c-12.667 3.33301 -22.834 10.5 -30.501 21.5s-11.5 23.5 -11.5 37.5z" />
    <glyph glyph-name="tcommaaccent" unicode="&#x163;" horiz-adv-x="396" 
d="M214 618v-131.999h140v-83h-140v-238c0 -33.333 6.5 -55.333 19.5 -66s37.167 -16 72.5 -16c19.333 0 41.333 1.66699 66 5v-86c-30.667 -6 -64.667 -9 -102 -9c-61.333 0 -105.333 12.667 -132 38s-40 69.666 -40 132.999v239h-78v69c34 4.66699 61.667 9 83 13l27 133
h84zM134 -108.999c0 18 6.16895 33.167 18.502 45.5s27.166 18.5 44.499 18.5c18.667 0 34 -5.83301 46 -17.5s18 -26.5 18 -44.5c0 -11.333 -2.66699 -23.333 -8 -36l-75 -144l-36 13l34 106c-12.667 3.33301 -22.834 10.5 -30.501 21.5s-11.5 23.5 -11.5 37.5z" />
    <glyph glyph-name="Tcaron" unicode="&#x164;" horiz-adv-x="595" 
d="M359 577v-577h-120v577h-224v99h565v-99h-221zM304 813l128 101l52 -45l-138 -145h-81l-141 145l46 45z" />
    <glyph glyph-name="tcaron" unicode="&#x165;" horiz-adv-x="418" 
d="M212 618v-131.999h140v-83h-140v-238c0 -33.333 6.5 -55.333 19.5 -66s37.167 -16 72.5 -16c19.333 0 41.333 1.66699 66 5v-86c-30.667 -6 -64.667 -9 -102 -9c-61.333 0 -105.333 12.667 -132 38s-40 69.666 -40 132.999v239h-78v69c34 4.66699 61.667 9 83 13l27 133
h84zM301 713.001c0 18 6.16895 33.167 18.502 45.5s27.166 18.5 44.499 18.5c18.667 0 34 -5.83301 46 -17.5s18 -26.5 18 -44.5c0 -11.333 -2.66699 -23.333 -8 -36l-75 -144l-36 13l34 106c-12.667 3.33301 -22.834 10.5 -30.501 21.5s-11.5 23.5 -11.5 37.5z" />
    <glyph glyph-name="Tbar" unicode="&#x166;" horiz-adv-x="595" 
d="M359 577v-170h158v-72h-158v-335h-120v335h-160v72h160v170h-224v99h565v-99h-221z" />
    <glyph glyph-name="tbar" unicode="&#x167;" horiz-adv-x="396" 
d="M214 618v-132h140v-83h-140v-92h128v-71h-128v-75c0 -33.333 6.5 -55.333 19.5 -66s37.167 -16 72.5 -16c19.333 0 41.333 1.66699 66 5v-86c-30.667 -6 -64.667 -9 -102 -9c-64.667 0 -109.5 13.667 -134.5 41s-37.5 78 -37.5 152v54h-80v71h80v92h-78v69
c34 4.66699 61.667 9 83 13l27 133h84z" />
    <glyph glyph-name="Utilde" unicode="&#x168;" horiz-adv-x="696" 
d="M631 676v-404.999c0 -186 -92.667 -279 -278 -279c-104.667 0 -179 23.5 -223 70.5s-66 116.833 -66 209.5v404h121v-408c0 -66 14.5 -112.333 43.5 -139s70.833 -40 125.5 -40c48 0 86.333 14.667 115 44s43 74.666 43 135.999v407h119zM421 744.001
c-17.333 0 -41.834 6.00098 -73.501 18.001s-54.5 18 -68.5 18c-24 0 -48 -12.667 -72 -38l-49 38c10.667 27.333 26.167 48.666 46.5 63.999s42.833 23 67.5 23c14.667 0 37 -5.83301 67 -17.5s53.667 -17.5 71 -17.5c24.667 0 48.334 12 71.001 36l50 -35
c-8 -26.667 -22.5 -48.167 -43.5 -64.5s-43.167 -24.5 -66.5 -24.5z" />
    <glyph glyph-name="utilde" unicode="&#x169;" horiz-adv-x="553" 
d="M384 70l-4 0.000976562c-18.667 -27.333 -42.167 -47.166 -70.5 -59.499s-54.833 -18.5 -79.5 -18.5c-35.333 0 -65 5 -89 15s-41.667 24.5 -53 43.5s-19.166 38.333 -23.499 58s-6.5 42.834 -6.5 69.501v308h118v-285c0 -40.667 6.16699 -70.834 18.5 -90.501
s37.166 -29.5 74.499 -29.5c36 0 63.167 13.667 81.5 41s27.5 58.666 27.5 93.999v270h117v-486h-93c-12 17.333 -18 40.666 -18 69.999zM351 574.001c-17.333 0 -41.834 6.00098 -73.501 18.001s-54.5 18 -68.5 18c-24 0 -48 -12.667 -72 -38l-49 38
c10.667 27.333 26.167 48.666 46.5 63.999s42.833 23 67.5 23c14.667 0 37 -5.83301 67 -17.5s53.667 -17.5 71 -17.5c24.667 0 48.334 12 71.001 36l50 -35c-8 -26.667 -22.5 -48.167 -43.5 -64.5s-43.167 -24.5 -66.5 -24.5z" />
    <glyph glyph-name="Umacron" unicode="&#x16a;" horiz-adv-x="696" 
d="M631 676v-404.999c0 -186 -92.667 -279 -278 -279c-104.667 0 -179 23.5 -223 70.5s-66 116.833 -66 209.5v404h121v-408c0 -66 14.5 -112.333 43.5 -139s70.833 -40 125.5 -40c48 0 86.333 14.667 115 44s43 74.666 43 135.999v407h119zM184 762.001v83h316v-83h-316z
" />
    <glyph glyph-name="umacron" unicode="&#x16b;" horiz-adv-x="553" 
d="M384 70l-4 0.000976562c-18.667 -27.333 -42.167 -47.166 -70.5 -59.499s-54.833 -18.5 -79.5 -18.5c-35.333 0 -65 5 -89 15s-41.667 24.5 -53 43.5s-19.166 38.333 -23.499 58s-6.5 42.834 -6.5 69.501v308h118v-285c0 -40.667 6.16699 -70.834 18.5 -90.501
s37.166 -29.5 74.499 -29.5c36 0 63.167 13.667 81.5 41s27.5 58.666 27.5 93.999v270h117v-486h-93c-12 17.333 -18 40.666 -18 69.999zM120 598.001v83h319v-83h-319z" />
    <glyph glyph-name="Ubreve" unicode="&#x16c;" horiz-adv-x="696" 
d="M631 676v-404.999c0 -186 -92.667 -279 -278 -279c-104.667 0 -179 23.5 -223 70.5s-66 116.833 -66 209.5v404h121v-408c0 -66 14.5 -112.333 43.5 -139s70.833 -40 125.5 -40c48 0 86.333 14.667 115 44s43 74.666 43 135.999v407h119zM351 727.001
c-28.667 0 -54 5.83301 -76 17.5s-39.333 26.834 -52 45.501s-22.5 37.334 -29.5 56.001s-11.167 37.334 -12.5 56.001h79c2.66699 -25.333 11.5 -47.333 26.5 -66s36.5 -28 64.5 -28s49.5 9.33301 64.5 28s23.833 40.667 26.5 66h79
c-1.33301 -18.667 -5.5 -37.334 -12.5 -56.001s-16.833 -37.334 -29.5 -56.001s-30 -33.834 -52 -45.501s-47.333 -17.5 -76 -17.5z" />
    <glyph glyph-name="ubreve" unicode="&#x16d;" horiz-adv-x="553" 
d="M384 70l-4 0.000976562c-18.667 -27.333 -42.167 -47.166 -70.5 -59.499s-54.833 -18.5 -79.5 -18.5c-35.333 0 -65 5 -89 15s-41.667 24.5 -53 43.5s-19.166 38.333 -23.499 58s-6.5 42.834 -6.5 69.501v308h118v-285c0 -40.667 6.16699 -70.834 18.5 -90.501
s37.166 -29.5 74.499 -29.5c36 0 63.167 13.667 81.5 41s27.5 58.666 27.5 93.999v270h117v-486h-93c-12 17.333 -18 40.666 -18 69.999zM278 549.001c-28.667 0 -54.1699 5.5 -76.5029 16.5s-39.833 25.333 -52.5 43s-22.5 35.5 -29.5 53.5s-11.167 36.333 -12.5 55h80
c2.66699 -24.667 11.334 -45.334 26.001 -62.001s36.334 -25 65.001 -25c28 0 49.333 8.33301 64 25s23.334 37.334 26.001 62.001h80c-1.33301 -18.667 -5.5 -37 -12.5 -55s-16.833 -35.833 -29.5 -53.5s-30 -32 -52 -43s-47.333 -16.5 -76 -16.5z" />
    <glyph glyph-name="Uring" unicode="&#x16e;" horiz-adv-x="696" 
d="M631 676v-404.999c0 -186 -92.667 -279 -278 -279c-104.667 0 -179 23.5 -223 70.5s-66 116.833 -66 209.5v404h121v-408c0 -66 14.5 -112.333 43.5 -139s70.833 -40 125.5 -40c48 0 86.333 14.667 115 44s43 74.666 43 135.999v407h119zM345 698.001
c-32 0 -58.667 10.668 -80 32.001s-32 47.666 -32 78.999s10.667 58 32 80s48 33 80 33s59.167 -11 81.5 -33s33.5 -48.667 33.5 -80c0 -32 -11.167 -58.5 -33.5 -79.5s-49.5 -31.5 -81.5 -31.5zM345 860.002c-12.667 0 -23.667 -5.16797 -33 -15.501
s-14 -22.166 -14 -35.499s4.33301 -25 13 -35s20 -15 34 -15c15.333 0 27.333 5 36 15s13 21.667 13 35c0 14 -4.5 26 -13.5 36s-20.833 15 -35.5 15z" />
    <glyph glyph-name="uring" unicode="&#x16f;" horiz-adv-x="553" 
d="M384 70l-4 0.000976562c-18.667 -27.333 -42.167 -47.166 -70.5 -59.499s-54.833 -18.5 -79.5 -18.5c-35.333 0 -65 5 -89 15s-41.667 24.5 -53 43.5s-19.166 38.333 -23.499 58s-6.5 42.834 -6.5 69.501v308h118v-285c0 -40.667 6.16699 -70.834 18.5 -90.501
s37.166 -29.5 74.499 -29.5c36 0 63.167 13.667 81.5 41s27.5 58.666 27.5 93.999v270h117v-486h-93c-12 17.333 -18 40.666 -18 69.999zM283 543.001c-32 0 -58.667 10.668 -80 32.001s-32 47.666 -32 78.999s10.667 58 32 80s48 33 80 33s59.167 -11 81.5 -33
s33.5 -48.667 33.5 -80c0 -32 -11.167 -58.5 -33.5 -79.5s-49.5 -31.5 -81.5 -31.5zM283 705.002c-12.667 0 -23.667 -5.16797 -33 -15.501s-14 -22.166 -14 -35.499s4.33301 -25 13 -35s20 -15 34 -15c15.333 0 27.333 5 36 15s13 21.667 13 35c0 14 -4.5 26 -13.5 36
s-20.833 15 -35.5 15z" />
    <glyph glyph-name="Uhungarumlaut" unicode="&#x170;" horiz-adv-x="696" 
d="M631 676v-404.999c0 -186 -92.667 -279 -278 -279c-104.667 0 -179 23.5 -223 70.5s-66 116.833 -66 209.5v404h121v-408c0 -66 14.5 -112.333 43.5 -139s70.833 -40 125.5 -40c48 0 86.333 14.667 115 44s43 74.666 43 135.999v407h119zM250 717.001l-49 54l158 146
l78 -81zM445 722.001l-45 57l167 135l72 -86z" />
    <glyph glyph-name="uhungarumlaut" unicode="&#x171;" horiz-adv-x="553" 
d="M384 70l-4 0.000976562c-18.667 -27.333 -42.167 -47.166 -70.5 -59.499s-54.833 -18.5 -79.5 -18.5c-35.333 0 -65 5 -89 15s-41.667 24.5 -53 43.5s-19.166 38.333 -23.499 58s-6.5 42.834 -6.5 69.501v308h118v-285c0 -40.667 6.16699 -70.834 18.5 -90.501
s37.166 -29.5 74.499 -29.5c36 0 63.167 13.667 81.5 41s27.5 58.666 27.5 93.999v270h117v-486h-93c-12 17.333 -18 40.666 -18 69.999zM167 550.001l-54 49l142 167l79 -74zM341 550.001l-55 49l142 167l80 -74z" />
    <glyph glyph-name="Uogonek" unicode="&#x172;" horiz-adv-x="696" 
d="M631 676v-405c0 -178.667 -85.667 -271.334 -257 -278.001c-26.667 -37.333 -40 -70.666 -40 -99.999c0 -35.333 23.333 -53 70 -53c16 0 38.333 3 67 9l10 -41c-37.333 -18.667 -77.333 -28 -120 -28c-36.667 0 -65 7 -85 21s-30 33.333 -30 58
c0 46.667 24.333 91.667 73 135c-92 4.66699 -157.5 30.334 -196.5 77.001s-58.5 113.667 -58.5 201v404h121v-408c0 -66 14.5 -112.333 43.5 -139s70.833 -40 125.5 -40c48 0 86.333 14.667 115 44s43 74.666 43 135.999v407h119z" />
    <glyph glyph-name="uogonek" unicode="&#x173;" horiz-adv-x="553" 
d="M384 70l-3.99902 0.000976562c-18.667 -27.333 -42.167 -47.166 -70.5 -59.499s-54.833 -18.5 -79.5 -18.5c-35.333 0 -65 5 -89 15s-41.667 24.5 -53 43.5s-19.166 38.333 -23.499 58s-6.5 42.834 -6.5 69.501v308h118v-285c0 -40.667 6.16699 -70.834 18.5 -90.501
s37.166 -29.5 74.499 -29.5c36 0 63.167 13.667 81.5 41s27.5 58.666 27.5 93.999v270h117v-486h-58c-32 -38.667 -48 -75.334 -48 -110.001c0 -35.333 23.333 -53 70 -53c19.333 0 41.666 3.33301 66.999 10l10 -42c-37.333 -18.667 -77.333 -28 -120 -28
c-36.667 0 -65 7.16699 -85 21.5s-30 33.833 -30 58.5c0 53.333 31.667 103.666 95 150.999c-8 14.667 -12 35.334 -12 62.001z" />
    <glyph glyph-name="Wcircumflex" unicode="&#x174;" horiz-adv-x="949" 
d="M683 141l4.99902 0.00195312c18.667 92.667 38 181 58 265l63 270h129l-186 -676h-132l-86 296c-3.33301 10.667 -8.83301 29.5 -16.5 56.5l-17 60c-3.66699 13 -8.16699 30.5 -13.5 52.5s-9.66602 43 -12.999 63h-4c-10 -54.667 -28.667 -130.667 -56 -228l-85 -300
h-131l-187 676h128l60 -250l19.5 -81c10.333 -42.667 18.666 -79.334 24.999 -110.001s12.5 -62.334 18.5 -95.001h5c8.66699 38 33.334 133.333 74.001 286l69 250h127l75 -265c38 -138 61.667 -228 71 -270zM600.999 722.002l-129 103l-133 -103l-46 45l141 144h81
l135 -144z" />
    <glyph glyph-name="wcircumflex" unicode="&#x175;" horiz-adv-x="759" 
d="M529 121l8 -0.000976562c6 38 21 102.333 45 193l44 171h122l-152 -486h-122l-56 187c-9.33301 31.333 -21.333 82.666 -36 153.999h-8c-14 -75.333 -25.333 -127.666 -34 -156.999l-55 -184h-122l-153 486h122l40 -147c29.333 -106.667 47 -179 53 -217h8
c12.667 66 25.667 121.333 39 166l58 198h102c42 -135.333 74.333 -256.666 97 -363.999zM506 545.999l-127 107l-134 -107l-46 45l141 150h81l137 -151z" />
    <glyph glyph-name="Ycircumflex" unicode="&#x176;" horiz-adv-x="606" 
d="M297 361l8 0.000976562c19.333 49.333 46 105.666 80 168.999l78 145h129l-116.5 -208.5l-116.5 -207.5v-259h-121v258l-231 417h132l80 -151c33.333 -62.667 59.333 -117 78 -163zM429 722.001l-129 103l-133 -103l-46 45l141 144h81l135 -144z" />
    <glyph glyph-name="ycircumflex" unicode="&#x177;" horiz-adv-x="491" 
d="M236 86l7.99805 0.000976562c6 23.333 23.333 81.666 52 174.999l69 224h114l-184 -544c-17.333 -49.333 -39.333 -86.5 -66 -111.5s-65.667 -37.5 -117 -37.5h-66v91h51c23.333 0 41.5 4.16699 54.5 12.5s24.167 22.833 33.5 43.5l21 61
c-19.333 0 -33.666 -0.333008 -42.999 -1c-15.333 56.667 -31.333 111.5 -48 164.5l-57.5 176l-48.5 145.5h120l63 -228c26.667 -100.667 41.334 -157.667 44.001 -171zM368.998 546.001l-127 107l-134 -107l-46 45l141 150h81l137 -151z" />
    <glyph glyph-name="Ydieresis" unicode="&#x178;" horiz-adv-x="606" 
d="M297 361l8 0.000976562c19.333 49.333 46 105.666 80 168.999l78 145h129l-116.5 -208.5l-116.5 -207.5v-259h-121v258l-231 417h132l80 -151c33.333 -62.667 59.333 -117 78 -163zM158 807.001c0 16.667 5.66699 30.667 17 42s25.333 17 42 17
s30.834 -5.66699 42.501 -17s17.5 -25.333 17.5 -42s-5.83301 -30.667 -17.5 -42s-25.834 -17 -42.501 -17s-30.667 5.66699 -42 17s-17 25.333 -17 42zM348 807.001c0 16.667 5.66699 30.667 17 42s25.333 17 42 17s30.834 -5.66699 42.501 -17s17.5 -25.333 17.5 -42
s-5.83301 -30.667 -17.5 -42s-25.834 -17 -42.501 -17s-30.667 5.66699 -42 17s-17 25.333 -17 42z" />
    <glyph glyph-name="Zacute" unicode="&#x179;" horiz-adv-x="611" 
d="M36 0v91l383 484h-362v101h508v-91l-382 -487h391v-98h-538zM272 722l-40 61l174 128l65 -92z" />
    <glyph glyph-name="zacute" unicode="&#x17a;" horiz-adv-x="474" 
d="M26 0v67l274 330h-255v88h396v-70l-273 -329h279v-86h-421zM220 544l-54 49l142 168l79 -74z" />
    <glyph glyph-name="Zdotaccent" unicode="&#x17b;" horiz-adv-x="611" 
d="M36 0v91l383 484h-362v101h508v-91l-382 -487h391v-98h-538zM256 809c0 17.333 6.16699 32.333 18.5 45s27.166 19 44.499 19s32.333 -6.33301 45 -19s19 -27.667 19 -45s-6.33301 -32.333 -19 -45s-27.667 -19 -45 -19s-32.166 6.33301 -44.499 19
s-18.5 27.667 -18.5 45z" />
    <glyph glyph-name="zdotaccent" unicode="&#x17c;" horiz-adv-x="474" 
d="M26 0v67l274 330h-255v88h396v-70l-273 -329h279v-86h-421zM191 639c0 17.333 6.16699 32.333 18.5 45s27.166 19 44.499 19s32.333 -6.33301 45 -19s19 -27.667 19 -45s-6.33301 -32.333 -19 -45s-27.667 -19 -45 -19s-32.166 6.33301 -44.499 19s-18.5 27.667 -18.5 45
z" />
    <glyph glyph-name="Zcaron" unicode="&#x17d;" horiz-adv-x="611" 
d="M36 0v91l383 484h-362v101h508v-91l-382 -487h391v-98h-538zM304 813l128 101l52 -45l-138 -145h-81l-141 145l46 45z" />
    <glyph glyph-name="zcaron" unicode="&#x17e;" horiz-adv-x="474" 
d="M26 0v67l274 330h-255v88h396v-70l-273 -329h279v-86h-421zM241 637l127 102l50 -44l-135 -146h-81l-141 145l46 45z" />
    <glyph glyph-name="florin" unicode="&#x192;" horiz-adv-x="630" 
d="M162 312v75.998h101l10 78c8 64 24.667 111.5 50 142.5s67.333 46.5 126 46.5c32.667 0 65.334 -5.66699 98.001 -17l-22 -84c-26.667 6 -47.334 9 -62.001 9c-28.667 0 -48.5 -8.66699 -59.5 -26s-18.833 -46.666 -23.5 -87.999l-7 -61h99v-76h-109l-15 -130
c-12.667 -109.333 -32.167 -186 -58.5 -230s-70.5 -66 -132.5 -66c-37.333 0 -71.333 6.33301 -102 19l24 88c27.333 -6.66699 47.333 -10 60 -10c34 0 57.167 16.833 69.5 50.5s24.5 100.834 36.5 201.501l9 77h-92z" />
    <glyph glyph-name="Ohorn" unicode="&#x1a0;" horiz-adv-x="736" 
d="M367 683c87.333 0 156.332 -23.667 206.999 -71c30 0.666992 50.833 8.33398 62.5 23.001s17.5 36.667 17.5 66v73h87v-96c0 -83.333 -36.667 -129.666 -110 -138.999c28 -56 42 -125 42 -207c0 -35.333 -3 -68.666 -9 -99.999s-16.333 -61.833 -31 -91.5
s-33.334 -55.334 -56.001 -77.001s-52 -39 -88 -52s-77 -19.5 -123 -19.5c-58 0 -107.667 8.33301 -149 25s-73.666 40.667 -96.999 72s-40.166 66.666 -50.499 105.999s-15.5 84.666 -15.5 135.999c0 107.333 25.5 192.833 76.5 256.5s129.833 95.5 236.5 95.5z
M364.999 584c-67.333 0 -115.333 -22 -144 -66s-43 -106 -43 -186c0 -162 62.333 -243 187 -243c57.333 0 102.166 20.5 134.499 61.5s48.5 101.5 48.5 181.5c0 78 -14.667 139.5 -44 184.5s-75.666 67.5 -138.999 67.5z" />
    <glyph glyph-name="ohorn" unicode="&#x1a1;" horiz-adv-x="612" 
d="M290 494c74.667 0 132.33 -21.0029 172.997 -63.0029c22.667 0.666992 38.334 8 47.001 22s13 35.667 13 65v72h86v-95c0 -82.667 -33.333 -128.667 -100 -138c12.667 -35.333 19 -73.666 19 -114.999c0 -32 -4 -62.167 -12 -90.5s-20.667 -54.666 -38 -78.999
s-42.166 -43.666 -74.499 -57.999s-70.166 -21.5 -113.499 -21.5c-160.667 0 -241 82.667 -241 248c0 75.333 20.167 136.333 60.5 183s100.5 70 180.5 70zM289.996 400.997c-82.667 0 -124 -53.334 -124 -160.001c0 -105.333 41.333 -158 124 -158
c38 0 67.333 13.333 88 40s31 66.334 31 119.001c0 106 -39.667 159 -119 159z" />
    <glyph glyph-name="Uhorn" unicode="&#x1af;" horiz-adv-x="779" 
d="M631 676l0.00195312 -63.999h11c25.333 0 42.666 6.83301 51.999 20.5s14 34.5 14 62.5v79h87v-96c0 -40 -10.333 -73.667 -31 -101s-54.334 -41 -101.001 -41h-32v-265c0 -186 -92.667 -279 -278 -279c-104.667 0 -179 23.5 -223 70.5s-66 116.833 -66 209.5v404h121
v-408c0 -66 14.5 -112.333 43.5 -139s70.833 -40 125.5 -40c48 0 86.333 14.667 115 44s43 74.666 43 135.999v407h119z" />
    <glyph glyph-name="uhorn" unicode="&#x1b0;" horiz-adv-x="633" 
d="M384 70h-4.00195c-18.667 -27.333 -42.167 -47.166 -70.5 -59.499s-54.833 -18.5 -79.5 -18.5c-35.333 0 -65 5 -89 15s-41.667 24.5 -53 43.5s-19.166 38.333 -23.499 58s-6.5 42.834 -6.5 69.501v308h118v-285c0 -40.667 6.16699 -70.834 18.5 -90.501
s37.166 -29.5 74.499 -29.5c36 0 63.167 13.667 81.5 41s27.5 58.666 27.5 93.999v270h117v-55h7c24.667 0 40.834 6.83301 48.501 20.5s11.5 35.834 11.5 66.501v72h85v-95c0 -39.333 -10.167 -72.333 -30.5 -99s-53.166 -40 -98.499 -40h-23v-356h-93
c-12 17.333 -18 40.666 -18 69.999z" />
    <glyph glyph-name="AEacute" unicode="&#x1fc;" horiz-adv-x="983" 
d="M486 0v194h-239l-120 -194h-122l426 676h523v-92h-350v-188h319v-91h-319v-214h358v-91h-476zM486 571l-4.99902 1c-22.667 -40 -57.334 -98 -104.001 -174l-69 -113h178v286zM613.001 722l-40 61l174 128l65 -92z" />
    <glyph glyph-name="aeacute" unicode="&#x1fd;" horiz-adv-x="869" 
d="M593 493c72.667 0 127.165 -19.666 163.498 -58.999s54.5 -91.666 54.5 -156.999c0 -20 -1.33301 -38.333 -4 -55h-325c0 -46.667 8.66699 -81.834 26 -105.501s47 -35.5 89 -35.5c62 0 96.667 24.667 104 74h106c0.666992 -4 1 -9.66699 1 -17
c0 -48.667 -20.5 -85.167 -61.5 -109.5s-90.833 -36.5 -149.5 -36.5c-96 0 -160 28 -192 84c-57.333 -56.667 -126 -85 -206 -85c-51.333 0 -92.166 12.333 -122.499 37s-45.5 60 -45.5 106c0 105.333 81.667 158 245 158h85v21c0 28 -8.83301 50.167 -26.5 66.5
s-42.5 24.5 -74.5 24.5c-49.333 0 -78.666 -18.333 -87.999 -55h-106c0 1.33301 -0.166992 3.66602 -0.5 6.99902s-0.5 6 -0.5 8c0 30 10.833 55 32.5 75s46.667 33.5 75 40.5s58.833 10.5 91.5 10.5c81.333 0 137 -20 167 -60c38.667 42 92.667 63 162 63zM363.998 221.001
l-104 0.000976562c-35.333 0 -62.5 -6.83301 -81.5 -20.5s-28.5 -32.834 -28.5 -57.501c0 -20 7.5 -35.833 22.5 -47.5s34.5 -17.5 58.5 -17.5c55.333 0 103 21.333 143 64c-6.66699 32 -10 58.333 -10 79zM484.998 291.002h208.999
c-1.33301 74.667 -35.666 112 -102.999 112c-32 0 -57 -10 -75 -30s-28.333 -47.333 -31 -82zM426.997 544.002l-54 49l142 168l79 -74z" />
    <glyph glyph-name="Oslashacute" unicode="&#x1fe;" horiz-adv-x="727" 
d="M326 722l-40 61l174 128l65 -92zM367 683c80 0 145.002 -19.666 195.002 -58.999l51 60l51 -44l-56 -65c43.333 -60.667 65 -141.667 65 -243c0 -35.333 -3 -68.666 -9 -99.999s-16.333 -61.833 -31 -91.5s-33.334 -55.334 -56.001 -77.001s-52 -39 -88 -52
s-77 -19.5 -123 -19.5c-86.667 0 -155.334 19 -206.001 57l-53 -62l-52 45l57 67c-38.667 55.333 -58 132.666 -58 231.999c0 107.333 25.5 192.833 76.5 256.5s129.833 95.5 236.5 95.5zM548.002 332.001c0 59.333 -7.99902 107.667 -23.999 145l-289 -340
c30 -32 73.333 -48 130 -48c57.333 0 102.166 20.5 134.499 61.5s48.5 101.5 48.5 181.5zM365.003 584.002c-67.333 0 -115.333 -22 -144 -66s-43 -106 -43 -186c0 -56 6.66699 -100.667 20 -134l288 339c-30 31.333 -70.333 47 -121 47z" />
    <glyph glyph-name="oslashacute" unicode="&#x1ff;" horiz-adv-x="577" 
d="M286 544l-54 49l142 168l79 -74zM290 494c64.667 0 116.665 -16.334 155.998 -49.001l49 49l42 -41l-51 -52c28 -42 42 -95 42 -159c0 -32 -4 -62.167 -12 -90.5s-20.667 -54.666 -38 -78.999s-42.166 -43.666 -74.499 -57.999s-70.166 -21.5 -113.499 -21.5
c-69.333 0 -123.333 15.667 -162 47l-47 -46l-42 42l48 48c-25.333 39.333 -38 91.666 -38 156.999c0 75.333 20.167 136.333 60.5 183s100.5 70 180.5 70zM408.998 241.999c0 28 -3 52.332 -9 72.999l-197 -200c19.333 -21.333 48.333 -32 87 -32c38 0 67.333 13.333 88 40
s31 66.334 31 119.001zM289.998 400.998c-82.667 0 -124.001 -53.333 -124.001 -160c0 -26.667 3.33301 -49.667 10 -69l196 198c-19.333 20.667 -46.666 31 -81.999 31z" />
    <glyph glyph-name="Scommaaccent" unicode="&#x218;" horiz-adv-x="650" 
d="M330 683c42 0 81.3311 -6 117.998 -18s67.834 -32.333 93.501 -61s38.5 -63 38.5 -103c0 -9.33301 -0.666992 -19.333 -2 -30h-116c-1.33301 32.667 -14 59.167 -38 79.5s-57 30.5 -99 30.5c-44 0 -77.167 -8.33301 -99.5 -25s-33.5 -38 -33.5 -64
c0 -12.667 2.66699 -23.5 8 -32.5s11.5 -16.167 18.5 -21.5s18.5 -10.333 34.5 -15s30.333 -8.16699 43 -10.5s31.667 -5.5 57 -9.5c87.333 -13.333 150.5 -36 189.5 -68s58.5 -79 58.5 -141c0 -58 -23.333 -106.333 -70 -145s-115 -58 -205 -58
c-79.333 0 -145.5 16.667 -198.5 50s-79.5 82.666 -79.5 147.999c0 10.667 1 21 3 31h114c1.33301 -40 15.833 -71.667 43.5 -95s67.834 -35 120.501 -35c50.667 0 87.834 9.5 111.501 28.5s35.5 42.5 35.5 70.5c0 32.667 -12 57.5 -36 74.5s-64.333 29.167 -121 36.5
c-30 3.33301 -55.833 7.33301 -77.5 12s-44 11.334 -67 20.001s-41.5 19.167 -55.5 31.5s-25.667 28.5 -35 48.5s-14 43.333 -14 70c0 25.333 4.33301 49.333 13 72s22.5 44 41.5 64s46.167 35.833 81.5 47.5s76.666 17.5 123.999 17.5zM259.998 -109
c0 18 6.16895 33.167 18.502 45.5s27.166 18.5 44.499 18.5c18.667 0 34 -5.83301 46 -17.5s18 -26.5 18 -44.5c0 -11.333 -2.66699 -23.333 -8 -36l-75 -144l-36 13l34 106c-12.667 3.33301 -22.834 10.5 -30.501 21.5s-11.5 23.5 -11.5 37.5z" />
    <glyph glyph-name="scommaaccent" unicode="&#x219;" horiz-adv-x="503" 
d="M249 494c30.667 0 59.835 -3.66406 87.502 -10.9971s52.167 -20.833 73.5 -40.5s32 -44.167 32 -73.5c0 -4 -0.666992 -10.667 -2 -20h-109c-6 38 -34 57 -84 57c-26.667 0 -46.834 -5.33301 -60.501 -16s-20.5 -24 -20.5 -40c0 -18.667 7 -31.167 21 -37.5
s40 -12.5 78 -18.5c69.333 -10.667 118.666 -27 147.999 -49s44 -56.333 44 -103c0 -42 -17.667 -77.333 -53 -106s-87.333 -43 -156 -43c-34 0 -66 3.83301 -96 11.5s-56.667 22.667 -80 45s-35 50.5 -35 84.5c0 4 0.666992 11.333 2 22h109c4 -51.333 39.333 -77 106 -77
c28.667 0 50.5 6 65.5 18s22.5 26 22.5 42c0 20 -7.5 34.667 -22.5 44s-41.5 16.666 -79.5 21.999c-25.333 3.33301 -45.833 6.66602 -61.5 9.99902s-32.5 8.33301 -50.5 15s-32.167 14.667 -42.5 24s-18.833 21.666 -25.5 36.999s-10 33.333 -10 54
c0 40.667 15.833 75.667 47.5 105s82.167 44 151.5 44zM199.001 -108.997c0 18 6.16895 33.167 18.502 45.5s27.166 18.5 44.499 18.5c18.667 0 34 -5.83301 46 -17.5s18 -26.5 18 -44.5c0 -11.333 -2.66699 -23.333 -8 -36l-75 -144l-36 13l34 106
c-12.667 3.33301 -22.834 10.5 -30.501 21.5s-11.5 23.5 -11.5 37.5z" />
    <glyph glyph-name="schwa" unicode="&#x259;" horiz-adv-x="544" 
d="M269 81c32 0 57.332 9.49902 75.999 28.499s29.334 45.5 32.001 79.5h-211c0.666992 -33.333 9.5 -59.666 26.5 -78.999s42.5 -29 76.5 -29zM266.999 -8.00098c-71.333 0 -125.666 19.832 -162.999 59.499s-56 90.167 -56 151.5c0 20.667 2 40.334 6 59.001h327
c0 41.333 -9.33301 75 -28 101s-47.334 39 -86.001 39c-61.333 0 -95 -24.333 -101 -73h-106c0 56 19.5 97.333 58.5 124s89.167 40 150.5 40c152 0 228 -83 228 -249c0 -74 -19.333 -134.5 -58 -181.5s-96 -70.5 -172 -70.5z" />
    <glyph glyph-name="primemod" unicode="&#x2b9;" horiz-adv-x="249" 
d="M99 394l-68 30l117 298l113 -46z" />
    <glyph glyph-name="circumflex" unicode="&#x2c6;" horiz-adv-x="561" 
d="M404 546l-127 107l-134 -107l-46 45l141 150h81l137 -151z" />
    <glyph glyph-name="caron" unicode="&#x2c7;" horiz-adv-x="561" 
d="M280 637l127 102l50 -44l-135 -146h-81l-141 145l46 45z" />
    <glyph glyph-name="breve" unicode="&#x2d8;" horiz-adv-x="567" 
d="M283 549c-28.667 0 -54.1699 5.5 -76.5029 16.5s-39.833 25.333 -52.5 43s-22.5 35.5 -29.5 53.5s-11.167 36.333 -12.5 55h80c2.66699 -24.667 11.334 -45.334 26.001 -62.001s36.334 -25 65.001 -25c28 0 49.333 8.33301 64 25s23.334 37.334 26.001 62.001h80
c-1.33301 -18.667 -5.5 -37 -12.5 -55s-16.833 -35.833 -29.5 -53.5s-30 -32 -52 -43s-47.333 -16.5 -76 -16.5z" />
    <glyph glyph-name="dotaccent" unicode="&#x2d9;" horiz-adv-x="565" 
d="M233 639c0 17.333 6.16699 32.333 18.5 45s27.166 19 44.499 19s32.333 -6.33301 45 -19s19 -27.667 19 -45s-6.33301 -32.333 -19 -45s-27.667 -19 -45 -19s-32.166 6.33301 -44.499 19s-18.5 27.667 -18.5 45z" />
    <glyph glyph-name="ring" unicode="&#x2da;" horiz-adv-x="547" 
d="M290 543c-32 0 -58.667 10.668 -80 32.001s-32 47.666 -32 78.999s10.667 58 32 80s48 33 80 33s59.167 -11 81.5 -33s33.5 -48.667 33.5 -80c0 -32 -11.167 -58.5 -33.5 -79.5s-49.5 -31.5 -81.5 -31.5zM290 705.001c-12.667 0 -23.667 -5.16797 -33 -15.501
s-14 -22.166 -14 -35.499s4.33301 -25 13 -35s20 -15 34 -15c15.333 0 27.333 5 36 15s13 21.667 13 35c0 14 -4.5 26 -13.5 36s-20.833 15 -35.5 15z" />
    <glyph glyph-name="ogonek" unicode="&#x2db;" horiz-adv-x="555" 
d="M460 30l20.001 -17.999c-18 -18.667 -32.333 -39.334 -43 -62.001s-16 -42.667 -16 -60c0 -35.333 23.333 -53 70 -53c19.333 0 41.666 3.33301 66.999 10l10 -42c-37.333 -18.667 -77.333 -28 -120 -28c-36.667 0 -65 7.16699 -85 21.5s-30 33.833 -30 58.5
c0 26 10.333 54.833 31 86.5s52.667 60.5 96 86.5z" />
    <glyph glyph-name="tilde" unicode="&#x2dc;" horiz-adv-x="547" 
d="M355 574c-17.333 0 -41.834 6.00098 -73.501 18.001s-54.5 18 -68.5 18c-24 0 -48 -12.667 -72 -38l-49 38c10.667 27.333 26.167 48.666 46.5 63.999s42.833 23 67.5 23c14.667 0 37 -5.83301 67 -17.5s53.667 -17.5 71 -17.5c24.667 0 48.334 12 71.001 36l50 -35
c-8 -26.667 -22.5 -48.167 -43.5 -64.5s-43.167 -24.5 -66.5 -24.5z" />
    <glyph glyph-name="hungarumlaut" unicode="&#x2dd;" horiz-adv-x="573" 
d="M177 550l-54 49l142 167l79 -74zM351 550l-55 49l142 167l80 -74z" />
    <glyph glyph-name="tonos" unicode="&#x384;" horiz-adv-x="561" 
d="M281 533l-63 35l95 192l97 -51z" />
    <glyph glyph-name="dieresistonos" unicode="&#x385;" horiz-adv-x="561" 
d="M279 529l-68 28l76 200l106 -38zM85 611c0 16 5.66699 29.833 17 41.5s25.333 17.5 42 17.5s30.667 -5.83301 42 -17.5s17 -25.5 17 -41.5c0 -16.667 -5.66699 -30.834 -17 -42.501s-25.333 -17.5 -42 -17.5s-30.667 5.83301 -42 17.5s-17 25.834 -17 42.501zM365 611
c0 16 5.83301 29.833 17.5 41.5s25.834 17.5 42.501 17.5s30.667 -5.83301 42 -17.5s17 -25.5 17 -41.5c0 -16.667 -5.66699 -30.834 -17 -42.501s-25.333 -17.5 -42 -17.5s-30.834 5.83301 -42.501 17.5s-17.5 25.834 -17.5 42.501z" />
    <glyph glyph-name="Alphatonos" unicode="&#x386;" horiz-adv-x="657" 
d="M517 0l-58 163h-268l-58 -163h-125l257 678h126l254 -678h-128zM329 551h-6c-6 -23.333 -22.333 -75 -49 -155l-49 -139h201l-47 133c-28 86 -44.667 139.667 -50 161zM29 497l-63 35l95 192l97 -51z" />
    <glyph glyph-name="anoteleia" unicode="&#x387;" horiz-adv-x="270" 
d="M59 349c0 21.333 7.33301 39.333 22 54s32.667 22 54 22s39.333 -7.33301 54 -22s22 -32.667 22 -54s-7.33301 -39.333 -22 -54s-32.667 -22 -54 -22s-39.333 7.33301 -54 22s-22 32.667 -22 54z" />
    <glyph glyph-name="Epsilontonos" unicode="&#x388;" horiz-adv-x="587" 
d="M67 0v676h469v-99h-349v-177h318v-100h-318v-200h358v-100h-478zM-102 497l-63 35l95 192l97 -51z" />
    <glyph glyph-name="Etatonos" unicode="&#x389;" horiz-adv-x="697" 
d="M512 0v300h-328v-300h-120v676h120v-276h328v276h120v-676h-120zM-94 497l-63 35l95 192l97 -51z" />
    <glyph glyph-name="Iotatonos" unicode="&#x38a;" horiz-adv-x="280" 
d="M80 0v676h121v-676h-121zM-80 497l-63 35l95 192l97 -51z" />
    <glyph glyph-name="Omicrontonos" unicode="&#x38c;" horiz-adv-x="727" 
d="M367 683c57.333 0 106.666 -9.66699 147.999 -29s73 -46.166 95 -80.499s38 -71.166 48 -110.499s15 -83 15 -131c0 -35.333 -3 -68.666 -9 -99.999s-16.333 -61.833 -31 -91.5s-33.334 -55.334 -56.001 -77.001s-52 -39 -88 -52s-77 -19.5 -123 -19.5
c-58 0 -107.667 8.33301 -149 25s-73.666 40.667 -96.999 72s-40.166 66.666 -50.499 105.999s-15.5 84.666 -15.5 135.999c0 107.333 25.5 192.833 76.5 256.5s129.833 95.5 236.5 95.5zM365 584c-67.333 0 -115.333 -22 -144 -66s-43 -106 -43 -186
c0 -162 62.333 -243 187 -243c57.333 0 102.166 20.5 134.499 61.5s48.5 101.5 48.5 181.5c0 78 -14.667 139.5 -44 184.5s-75.666 67.5 -138.999 67.5zM-55 497l-63 35l95 192l97 -51z" />
    <glyph glyph-name="Upsilontonos" unicode="&#x38e;" horiz-adv-x="606" 
d="M297 361l8 0.000976562c19.333 49.333 46 105.666 80 168.999l78 145h129l-116.5 -208.5l-116.5 -207.5v-259h-121v258l-231 417h132l80 -151c33.333 -62.667 59.333 -117 78 -163zM-142 497.001l-63 35l95 192l97 -51z" />
    <glyph glyph-name="Omegatonos" unicode="&#x38f;" horiz-adv-x="760" 
d="M379 585c-64.667 -0.666992 -113.666 -22.333 -146.999 -65s-50 -101.334 -50 -176.001c0 -135.333 45.333 -216.666 136 -243.999v-100h-284v98h109l3 4c-58.667 46 -88 124.333 -88 235c0 46.667 6.33301 90.5 19 131.5s31.667 77.833 57 110.5s59.5 58.5 102.5 77.5
s92.167 28.5 147.5 28.5c56 0 105.167 -9.5 147.5 -28.5s75.666 -45 99.999 -78s42.333 -69.333 54 -109s17.5 -82.167 17.5 -127.5c0 -44 -7.5 -88.5 -22.5 -133.5s-37.833 -80.5 -68.5 -106.5l2 -4h107v-98h-280v98c91.333 31.333 137 114.333 137 249
c0 74 -17.5 132.167 -52.5 174.5s-83.833 63.5 -146.5 63.5zM-64.999 497.001l-63 35l95 192l97 -51z" />
    <glyph glyph-name="iotadieresistonos" unicode="&#x390;" horiz-adv-x="279" 
d="M81 0v486h117v-486h-117zM139 529l-68 28l76 200l106 -38zM-55 611c0 16 5.66699 29.833 17 41.5s25.333 17.5 42 17.5s30.667 -5.83301 42 -17.5s17 -25.5 17 -41.5c0 -16.667 -5.66699 -30.834 -17 -42.501s-25.333 -17.5 -42 -17.5s-30.667 5.83301 -42 17.5
s-17 25.834 -17 42.501zM225 611c0 16 5.83301 29.833 17.5 41.5s25.834 17.5 42.501 17.5s30.667 -5.83301 42 -17.5s17 -25.5 17 -41.5c0 -16.667 -5.66699 -30.834 -17 -42.501s-25.333 -17.5 -42 -17.5s-30.834 5.83301 -42.501 17.5s-17.5 25.834 -17.5 42.501z" />
    <glyph glyph-name="Alpha" unicode="&#x391;" horiz-adv-x="657" 
d="M517 0l-58 163h-268l-58 -163h-125l257 678h126l254 -678h-128zM329 551h-6c-6 -23.333 -22.333 -75 -49 -155l-49 -139h201l-47 133c-28 86 -44.667 139.667 -50 161z" />
    <glyph glyph-name="Beta" unicode="&#x392;" horiz-adv-x="641" 
d="M464 364l0.00195312 -5.99902c39.333 -8.66699 70.166 -27.834 92.499 -57.501s33.5 -62.834 33.5 -99.501c0 -63.333 -19.5 -112.666 -58.5 -147.999s-94.167 -53 -165.5 -53h-299v676h297c62 0 110.667 -14.5 146 -43.5s53 -70.833 53 -125.5
c0 -28.667 -8.83301 -56.667 -26.5 -84s-41.834 -47 -72.501 -59zM349.002 578.001h-163.001v-173h159c28.667 0 51.834 8.33301 69.501 25s26.5 37.667 26.5 63c0 26 -8 46.667 -24 62s-38.667 23 -68 23zM346.001 308.001h-159v-209h160c78.667 0 118 35 118 105
c0 32.667 -11.167 58.167 -33.5 76.5s-50.833 27.5 -85.5 27.5z" />
    <glyph glyph-name="Gamma" unicode="&#x393;" horiz-adv-x="548" 
d="M64 0v676h473v-100h-353v-576h-120z" />
    <glyph glyph-name="Delta" unicode="&#x394;" horiz-adv-x="671" 
d="M656 0h-644l255 676h130zM334 553h-7c-12.667 -45.333 -35.667 -118 -69 -218l-81 -240h309l-80 237c-38.667 110 -62.667 183.667 -72 221z" />
    <glyph glyph-name="Delta" unicode="&#x2206;" horiz-adv-x="671" 
d="M656 0h-644l255 676h130zM334 553h-7c-12.667 -45.333 -35.667 -118 -69 -218l-81 -240h309l-80 237c-38.667 110 -62.667 183.667 -72 221z" />
    <glyph glyph-name="Epsilon" unicode="&#x395;" horiz-adv-x="584" 
d="M64 0v676h469v-99h-349v-177h318v-100h-318v-200h358v-100h-478z" />
    <glyph glyph-name="Zeta" unicode="&#x396;" horiz-adv-x="611" 
d="M36 0v91l383 484h-362v101h508v-91l-382 -487h391v-98h-538z" />
    <glyph glyph-name="Eta" unicode="&#x397;" horiz-adv-x="697" 
d="M512 0v300h-328v-300h-120v676h120v-276h328v276h120v-676h-120z" />
    <glyph glyph-name="Theta" unicode="&#x398;" horiz-adv-x="746" 
d="M236 301v92h273v-92h-273zM377 684c58.667 0 109.167 -9.6709 151.5 -29.0039s75 -46.166 98 -80.499s39.667 -71.333 50 -111s15.5 -83.5 15.5 -131.5c0 -44.667 -5.33301 -86.167 -16 -124.5s-27.5 -74.166 -50.5 -107.499s-55.833 -59.666 -98.5 -78.999
s-93 -29 -151 -29c-116 0 -198.667 29.833 -248 89.5s-74 142.834 -74 249.501c0 107.333 26.333 193 79 257s134 96 244 96zM375 583.996c-131.333 0 -196.999 -84 -196.999 -252c0 -162 65.667 -243 197 -243c61.333 0 108.666 20.5 141.999 61.5s50 101.5 50 181.5
c0 168 -64 252 -192 252z" />
    <glyph glyph-name="Iota" unicode="&#x399;" horiz-adv-x="280" 
d="M80 0v676h121v-676h-121z" />
    <glyph glyph-name="Kappa" unicode="&#x39a;" horiz-adv-x="612" 
d="M184 676v-268h73l213 268h139l-257 -316l266 -360h-148l-217 306h-69v-306h-120v676h120z" />
    <glyph glyph-name="Lambda" unicode="&#x39b;" horiz-adv-x="672" 
d="M335 549c-0.666992 0 -1.66699 -0.166992 -3 -0.5s-2.33301 -0.5 -3 -0.5c-14 -51.333 -35.667 -118.333 -65 -201l-125 -347h-126l124.5 328l132.5 348h126l261 -676h-128l-125 345c-36 98.667 -59 166.667 -69 204z" />
    <glyph glyph-name="Mu" unicode="&#x39c;" horiz-adv-x="840" 
d="M416 218h7c24 65.333 59.667 148.333 107 249l99 208h141v-675h-119v481h-5c-19.333 -49.333 -38 -93.333 -56 -132l-121 -253h-100l-111 229c-30 62 -52.333 113.667 -67 155h-5v-480h-119c0 74.667 0.166992 187 0.5 337s0.5 262.667 0.5 338h140
c10 -19.333 26.333 -53 49 -101l61 -128c32 -68 64.667 -144 98 -228z" />
    <glyph glyph-name="Nu" unicode="&#x39d;" horiz-adv-x="697" 
d="M508 196l7.00098 1v479h119v-676h-109l-220 310c-54.667 77.333 -93.334 136 -116.001 176l-5 -2v-484h-121v676h113l197 -276c45.333 -63.333 90.333 -131.333 135 -204z" />
    <glyph glyph-name="Xi" unicode="&#x39e;" horiz-adv-x="593" 
d="M38 103h517v-103h-517v103zM88 401h416v-101h-416v101zM544 575h-495v101h495v-101z" />
    <glyph glyph-name="Omicron" unicode="&#x39f;" horiz-adv-x="727" 
d="M367 683c57.333 0 106.666 -9.66699 147.999 -29s73 -46.166 95 -80.499s38 -71.166 48 -110.499s15 -83 15 -131c0 -35.333 -3 -68.666 -9 -99.999s-16.333 -61.833 -31 -91.5s-33.334 -55.334 -56.001 -77.001s-52 -39 -88 -52s-77 -19.5 -123 -19.5
c-58 0 -107.667 8.33301 -149 25s-73.666 40.667 -96.999 72s-40.166 66.666 -50.499 105.999s-15.5 84.666 -15.5 135.999c0 107.333 25.5 192.833 76.5 256.5s129.833 95.5 236.5 95.5zM365 584c-67.333 0 -115.333 -22 -144 -66s-43 -106 -43 -186
c0 -162 62.333 -243 187 -243c57.333 0 102.166 20.5 134.499 61.5s48.5 101.5 48.5 181.5c0 78 -14.667 139.5 -44 184.5s-75.666 67.5 -138.999 67.5z" />
    <glyph glyph-name="Pi" unicode="&#x3a0;" horiz-adv-x="686" 
d="M502 0v577h-318v-577h-120v677h558v-677h-120z" />
    <glyph glyph-name="Rho" unicode="&#x3a1;" horiz-adv-x="612" 
d="M349 243h-165v-243h-120v676h291c77.333 0 136.333 -20.167 177 -60.5s61 -93.166 61 -158.499c0 -24.667 -4.16699 -48.834 -12.5 -72.501s-21.333 -46.5 -39 -68.5s-43 -39.667 -76 -53s-71.833 -20 -116.5 -20zM346 577l-161.999 0.000976562v-235h160
c35.333 0 65.666 9.33301 90.999 28s38 47.667 38 87c0 37.333 -11.833 66.666 -35.5 87.999s-54.167 32 -91.5 32z" />
    <glyph glyph-name="Sigma" unicode="&#x3a3;" horiz-adv-x="593" 
d="M35 90l209 270l-206 226v91h511v-101h-362l196 -216l-202 -262h386v-98h-532v90z" />
    <glyph glyph-name="Tau" unicode="&#x3a4;" horiz-adv-x="595" 
d="M359 577v-577h-120v577h-224v99h565v-99h-221z" />
    <glyph glyph-name="Upsilon" unicode="&#x3a5;" horiz-adv-x="606" 
d="M297 361l8 0.000976562c19.333 49.333 46 105.666 80 168.999l78 145h129l-116.5 -208.5l-116.5 -207.5v-259h-121v258l-231 417h132l80 -151c33.333 -62.667 59.333 -117 78 -163z" />
    <glyph glyph-name="Phi" unicode="&#x3a6;" horiz-adv-x="797" 
d="M458 676v-32c53.333 -4 99.333 -15 138 -33s68.667 -41 90 -69s36.833 -58 46.5 -90s14.5 -66.667 14.5 -104c0 -46 -9.33301 -89 -28 -129s-50.5 -75.667 -95.5 -107s-100.167 -50.333 -165.5 -57v-55h-116v54c-100 9.33301 -173.667 40 -221 92s-71 118.333 -71 199
c0 82 25.167 150.333 75.5 205s122.5 86 216.5 94v32h116zM169 346c0 -117.333 57.667 -183.668 173 -199.001v404c-57.333 -5.33301 -100.5 -26.666 -129.5 -63.999s-43.5 -84.333 -43.5 -141zM625 347.998c0 124.667 -55.667 192.667 -167 204v-404
c50.667 6 91.167 26.833 121.5 62.5s45.5 81.5 45.5 137.5z" />
    <glyph glyph-name="Chi" unicode="&#x3a7;" horiz-adv-x="618" 
d="M588 676l-211 -325l112.5 -169.5l119.5 -181.5h-140l-161 270c-14 -21.333 -41 -66.333 -81 -135s-67 -113.667 -81 -135h-139l232 351l-107 164l-105 161h136l145 -249l70 120.5l75 128.5h135z" />
    <glyph glyph-name="Psi" unicode="&#x3a8;" horiz-adv-x="755" 
d="M318 1v162.002c-89.333 7.33301 -157 36.166 -203 86.499s-69 117.166 -69 200.499v227h120v-233c0 -110.667 50.667 -171.667 152 -183v418h121v-418c46 6.66699 82.333 25 109 55s40 73 40 129v232h119v-228c0 -79.333 -23.5 -144.833 -70.5 -196.5
s-112.833 -81.5 -197.5 -89.5v-162h-121z" />
    <glyph glyph-name="Omega" unicode="&#x3a9;" horiz-adv-x="760" 
d="M379 585c-64.667 -0.666992 -113.666 -22.333 -146.999 -65s-50 -101.334 -50 -176.001c0 -135.333 45.333 -216.666 136 -243.999v-100h-284v98h109l3 4c-58.667 46 -88 124.333 -88 235c0 46.667 6.33301 90.5 19 131.5s31.667 77.833 57 110.5s59.5 58.5 102.5 77.5
s92.167 28.5 147.5 28.5c56 0 105.167 -9.5 147.5 -28.5s75.666 -45 99.999 -78s42.333 -69.333 54 -109s17.5 -82.167 17.5 -127.5c0 -44 -7.5 -88.5 -22.5 -133.5s-37.833 -80.5 -68.5 -106.5l2 -4h107v-98h-280v98c91.333 31.333 137 114.333 137 249
c0 74 -17.5 132.167 -52.5 174.5s-83.833 63.5 -146.5 63.5z" />
    <glyph glyph-name="Iotadieresis" unicode="&#x3aa;" horiz-adv-x="280" 
d="M80 0v676h121v-676h-121zM-16 807c0 16.667 5.66699 30.667 17 42s25.333 17 42 17s30.834 -5.66699 42.501 -17s17.5 -25.333 17.5 -42s-5.83301 -30.667 -17.5 -42s-25.834 -17 -42.501 -17s-30.667 5.66699 -42 17s-17 25.333 -17 42zM174 807
c0 16.667 5.66699 30.667 17 42s25.333 17 42 17s30.834 -5.66699 42.501 -17s17.5 -25.333 17.5 -42s-5.83301 -30.667 -17.5 -42s-25.834 -17 -42.501 -17s-30.667 5.66699 -42 17s-17 25.333 -17 42z" />
    <glyph glyph-name="Upsilondieresis" unicode="&#x3ab;" horiz-adv-x="606" 
d="M297 361l8 0.000976562c19.333 49.333 46 105.666 80 168.999l78 145h129l-116.5 -208.5l-116.5 -207.5v-259h-121v258l-231 417h132l80 -151c33.333 -62.667 59.333 -117 78 -163zM147 807.001c0 16.667 5.66699 30.667 17 42s25.333 17 42 17
s30.834 -5.66699 42.501 -17s17.5 -25.333 17.5 -42s-5.83301 -30.667 -17.5 -42s-25.834 -17 -42.501 -17s-30.667 5.66699 -42 17s-17 25.333 -17 42zM337 807.001c0 16.667 5.66699 30.667 17 42s25.333 17 42 17s30.834 -5.66699 42.501 -17s17.5 -25.333 17.5 -42
s-5.83301 -30.667 -17.5 -42s-25.834 -17 -42.501 -17s-30.667 5.66699 -42 17s-17 25.333 -17 42z" />
    <glyph glyph-name="alphatonos" unicode="&#x3ac;" horiz-adv-x="572" 
d="M256 494c68 0 116.999 -23 146.999 -69h4c0.666992 26.667 6.33398 47 17.001 61h89v-486h-94c-10 14.667 -15 36.334 -15 65.001h-5c-30 -48.667 -80.333 -73 -151 -73c-71.333 0 -122.5 21.5 -153.5 64.5s-46.5 104.833 -46.5 185.5
c0 73.333 17.167 133.666 51.5 180.999s86.5 71 156.5 71zM279.999 80c40 0 69.667 14.5 89 43.5s29 62.5 29 100.5v53c0 38 -10.167 69 -30.5 93s-48.5 36 -84.5 36c-78 0 -117 -54 -117 -162c0 -109.333 38 -164 114 -164zM286.999 533l-63 35l95 192l97 -51z" />
    <glyph glyph-name="epsilontonos" unicode="&#x3ad;" horiz-adv-x="489" 
d="M260 -8c-71.333 0 -124.501 12.999 -159.501 38.999s-52.5 61 -52.5 105c0 54 25.333 90.667 76 110v5c-46 16 -69 47.333 -69 94c0 43.333 17 79 51 107s83.333 42 148 42c56 0 102.333 -11.833 139 -35.5s55.334 -58.5 56.001 -104.5c0 -10 -0.333008 -17.667 -1 -23
h-103c-4 47.333 -35.667 71 -95 71c-21.333 0 -39.166 -6.5 -53.499 -19.5s-21.5 -27.167 -21.5 -42.5c0 -32 19.667 -48 59 -48h79v-81h-80c-20.667 0 -37.5 -6.33301 -50.5 -19s-19.5 -27.334 -19.5 -44.001c0 -19.333 7.66699 -35.5 23 -48.5s37.666 -19.5 66.999 -19.5
c30 0 54.833 7.33301 74.5 22s30.167 37.334 31.5 68.001h104c1.33301 -9.33301 2 -16.333 2 -21c0 -51.333 -19.167 -90.166 -57.5 -116.499s-87.5 -39.833 -147.5 -40.5zM249.999 532.999l-63 35l95 192l97 -51z" />
    <glyph glyph-name="etatonos" unicode="&#x3ae;" horiz-adv-x="564" 
d="M328 493c36.667 0 67.333 -5.33398 92 -16.001s43 -26.167 55 -46.5s20.167 -41.333 24.5 -63s6.5 -47.167 6.5 -76.5v-291h-118v283c0 39.333 -7.33301 69.666 -22 90.999s-40 32 -76 32c-38 0 -66.667 -14.167 -86 -42.5s-29 -60.166 -29 -95.499v-268h-118v486h94
c13.333 -18 20 -41.667 20 -71h4c18 26.667 41.5 46.334 70.5 59.001s56.5 19 82.5 19zM264.999 532.999l-63 35l95 192l97 -51z" />
    <glyph glyph-name="iotatonos" unicode="&#x3af;" horiz-adv-x="279" 
d="M146 533l-63 35l95 192l97 -51zM79 0v486h117v-486h-117z" />
    <glyph glyph-name="upsilondieresistonos" unicode="&#x3b0;" horiz-adv-x="553" 
d="M496 189c0 -64.667 -19.668 -113.333 -59.001 -146s-93.666 -49 -162.999 -49c-144.667 0 -217 65 -217 195v297h118v-290c0 -38 9.16699 -66.5 27.5 -85.5s42.5 -28.5 72.5 -28.5c70 0 105 38 105 114v290h116v-297zM275.999 529.001l-68 28l76 200l106 -38z
M81.999 611.001c0 16 5.66699 29.833 17 41.5s25.333 17.5 42 17.5s30.667 -5.83301 42 -17.5s17 -25.5 17 -41.5c0 -16.667 -5.66699 -30.834 -17 -42.501s-25.333 -17.5 -42 -17.5s-30.667 5.83301 -42 17.5s-17 25.834 -17 42.501zM361.999 611.001
c0 16 5.83301 29.833 17.5 41.5s25.834 17.5 42.501 17.5s30.667 -5.83301 42 -17.5s17 -25.5 17 -41.5c0 -16.667 -5.66699 -30.834 -17 -42.501s-25.333 -17.5 -42 -17.5s-30.834 5.83301 -42.501 17.5s-17.5 25.834 -17.5 42.501z" />
    <glyph glyph-name="alpha" unicode="&#x3b1;" horiz-adv-x="572" 
d="M256 494c68 0 116.999 -23 146.999 -69h4c0.666992 26.667 6.33398 47 17.001 61h89v-486h-94c-10 14.667 -15 36.334 -15 65.001h-5c-30 -48.667 -80.333 -73 -151 -73c-71.333 0 -122.5 21.5 -153.5 64.5s-46.5 104.833 -46.5 185.5
c0 73.333 17.167 133.666 51.5 180.999s86.5 71 156.5 71zM279.999 80c40 0 69.667 14.5 89 43.5s29 62.5 29 100.5v53c0 38 -10.167 69 -30.5 93s-48.5 36 -84.5 36c-78 0 -117 -54 -117 -162c0 -109.333 38 -164 114 -164z" />
    <glyph glyph-name="beta" unicode="&#x3b2;" horiz-adv-x="573" 
d="M410 422c0 -0.666992 0.166992 -1.50098 0.5 -2.50098s0.5 -1.83301 0.5 -2.5c78 -24.667 117 -88.667 117 -192c0 -66 -18.167 -121.333 -54.5 -166s-91.5 -67 -165.5 -67c-60 0 -104.333 17.667 -133 53h-5v-199h-113v644c0 66.667 18.5 120.667 55.5 162
s90.167 62 159.5 62c67.333 0 119.5 -15.667 156.5 -47s55.5 -73.666 55.5 -126.999c0 -20 -5.66699 -42.167 -17 -66.5s-30.333 -41.5 -57 -51.5zM275 626.999c-68.667 0 -103 -45.999 -103 -137.999v-278c0 -39.333 10 -71.5 30 -96.5s50 -37.5 90 -37.5
c36 0 64.5 13.333 85.5 40s31.5 63 31.5 109c0 93.333 -41.667 140 -125 140h-47v85h47c25.333 0 45.5 8.66699 60.5 26s22.5 37.666 22.5 60.999c0 26.667 -9.33301 48.167 -28 64.5s-40 24.5 -64 24.5z" />
    <glyph glyph-name="gamma" unicode="&#x3b3;" horiz-adv-x="502" 
d="M258 140h6c8.66699 49.333 23.667 105.333 45 168l61 177h123l-174 -458v-231h-117v204l-138 373c-4.66699 12.667 -10 20.667 -16 24s-17.667 5 -35 5l-7 74c28.667 14 57.667 21 87 21c22.667 0 39.167 -6.66699 49.5 -20s20.5 -34.333 30.5 -63l37 -106
c24 -69.333 40 -125.333 48 -168z" />
    <glyph glyph-name="delta" unicode="&#x3b4;" horiz-adv-x="577" 
d="M167 236c0 -50.667 10.8301 -89.002 32.4971 -115.002s51.834 -39 90.501 -39c36 0 64.833 13.333 86.5 40s32.5 63.334 32.5 110.001c0 66.667 -18.333 123.334 -55 170.001c-15.333 2.66699 -30.666 4 -45.999 4c-51.333 0 -87.666 -14.833 -108.999 -44.5
s-32 -71.5 -32 -125.5zM285.997 -7.00195c-76.667 0 -135.498 20.0039 -176.498 60.0039s-61.5 99 -61.5 177c0 44 6.66699 83.833 20 119.5s37.166 66 71.499 91s77.166 37.5 128.499 37.5h17c-48 43.333 -115.667 90 -203 140v80h408v-90h-194l-2 -6
c30 -22 53.833 -40.333 71.5 -55s38.167 -33.834 61.5 -57.501s41.333 -46.334 54 -68.001s23.5 -47.834 32.5 -78.501s13.5 -63.334 13.5 -98.001c0 -82 -21.5 -144.5 -64.5 -187.5s-101.833 -64.5 -176.5 -64.5z" />
    <glyph glyph-name="epsilon" unicode="&#x3b5;" horiz-adv-x="489" 
d="M260 -8c-71.333 0 -124.501 12.999 -159.501 38.999s-52.5 61 -52.5 105c0 54 25.333 90.667 76 110v5c-46 16 -69 47.333 -69 94c0 43.333 17 79 51 107s83.333 42 148 42c56 0 102.333 -11.833 139 -35.5s55.334 -58.5 56.001 -104.5c0 -10 -0.333008 -17.667 -1 -23
h-103c-4 47.333 -35.667 71 -95 71c-21.333 0 -39.166 -6.5 -53.499 -19.5s-21.5 -27.167 -21.5 -42.5c0 -32 19.667 -48 59 -48h79v-81h-80c-20.667 0 -37.5 -6.33301 -50.5 -19s-19.5 -27.334 -19.5 -44.001c0 -19.333 7.66699 -35.5 23 -48.5s37.666 -19.5 66.999 -19.5
c30 0 54.833 7.33301 74.5 22s30.167 37.334 31.5 68.001h104c1.33301 -9.33301 2 -16.333 2 -21c0 -51.333 -19.167 -90.166 -57.5 -116.499s-87.5 -39.833 -147.5 -40.5z" />
    <glyph glyph-name="zeta" unicode="&#x3b6;" horiz-adv-x="453" 
d="M172 224c0 -27.333 10.4971 -47.832 31.4971 -61.499s67.5 -34.167 139.5 -61.5c9.33301 -3.33301 16.333 -6 21 -8c36 -14 60.833 -28.667 74.5 -44s20.5 -34.333 20.5 -57c0 -16 -9.66699 -40.333 -29 -73s-43.666 -64.667 -72.999 -96l-72 48
c34.667 54 52 87.333 52 100c0 10.667 -24 25 -72 43c-4.66699 2 -8 3.33301 -10 4c-38 13.333 -67.667 25 -89 35s-41.666 22.5 -60.999 37.5s-33 32.5 -41 52.5s-12 44 -12 72c0 50 23.333 110.5 70 181.5s110.667 139.833 192 206.5l-1 5h-238v89h400v-80
c-93.333 -74.667 -167.166 -147.334 -221.499 -218.001s-81.5 -129 -81.5 -175z" />
    <glyph glyph-name="eta" unicode="&#x3b7;" horiz-adv-x="564" 
d="M328 493c36.667 0 67.333 -5.33398 92 -16.001s43 -26.167 55 -46.5s20.167 -41.333 24.5 -63s6.5 -47.167 6.5 -76.5v-291h-118v283c0 39.333 -7.33301 69.666 -22 90.999s-40 32 -76 32c-38 0 -66.667 -14.167 -86 -42.5s-29 -60.166 -29 -95.499v-268h-118v486h94
c13.333 -18 20 -41.667 20 -71h4c18 26.667 41.5 46.334 70.5 59.001s56.5 19 82.5 19z" />
    <glyph glyph-name="theta" unicode="&#x3b8;" horiz-adv-x="577" 
d="M289 713c48.667 0 89.499 -9.83203 122.499 -29.499s57.667 -47.667 74 -84s27.5 -74 33.5 -113s9 -84.5 9 -136.5c0 -38.667 -1.66699 -73.667 -5 -105s-10.166 -63.333 -20.499 -96s-24 -60 -41 -82s-40.167 -40 -69.5 -54s-63.666 -21 -102.999 -21
c-46 0 -85 8.66699 -117 26s-56.833 42.666 -74.5 75.999s-30.334 70.5 -38.001 111.5s-11.5 88.5 -11.5 142.5c0 243.333 80.333 365 241 365zM288.999 80.001c47.333 0 79.666 21 96.999 63s26 105.333 26 190h-247c0 -40.667 1.66699 -75.5 5 -104.5
s9.5 -55.167 18.5 -78.5s21.833 -40.833 38.5 -52.5s37.334 -17.5 62.001 -17.5zM288.999 626.001c-22.667 0 -41.834 -5.33301 -57.501 -16s-28 -26.167 -37 -46.5s-15.667 -42.333 -20 -66s-7.16602 -51.167 -8.49902 -82.5h245c-2 66.667 -12.167 118.5 -30.5 155.5
s-48.833 55.5 -91.5 55.5z" />
    <glyph glyph-name="iota" unicode="&#x3b9;" horiz-adv-x="279" 
d="M81 0v486h117v-486h-117z" />
    <glyph glyph-name="kappa" unicode="&#x3ba;" horiz-adv-x="518" 
d="M173 486v-183h61l145 182h128l-180 -224l187 -261h-136l-144 211h-61v-211h-116v486h116z" />
    <glyph glyph-name="lambda" unicode="&#x3bb;" horiz-adv-x="494" 
d="M301 572l135 -463c4 -15.333 8.66699 -24.666 14 -27.999s16.333 -5 33 -5c0.666992 -14.667 2.33398 -37.334 5.00098 -68.001c-25.333 -10.667 -54.333 -16 -87 -16c-17.333 0 -31.166 5.83301 -41.499 17.5s-20.166 33.5 -29.499 65.5l-47 162
c-18.667 63.333 -30.334 111 -35.001 143h-6c-8 -40 -21 -87 -39 -141l-78 -239h-118l94 272l74 210l33 2l-28 87c-6.66699 20 -14.834 33.167 -24.501 39.5s-25.5 9.5 -47.5 9.5h-31v89h61c53.333 0 90.166 -10.167 110.499 -30.5s37.833 -55.833 52.5 -106.5z" />
    <glyph glyph-name="nu" unicode="&#x3bd;" horiz-adv-x="523" 
d="M259 107h8c15.333 62 38 135.333 68 220l56 158h119l-188 -487h-123l-187 487h121l57 -161c28 -76.667 51 -149 69 -217z" />
    </font>
</defs>
</svg>
