<svg xmlns="http://www.w3.org/2000/svg" width="38" height="38" viewBox="0 0 38 38">
  <g id="Group_3" data-name="Group 3" transform="translate(-575 -2156)">
    <circle id="Эллипс_1_копия_2" data-name="Эллипс 1 копия 2" cx="19" cy="19" r="19" transform="translate(575 2156)" fill="#fc635e"/>
    <path id="Forma_1" data-name="Forma 1" d="M588.353,2188l.308-6.091s-5.408-5.857-4.558-11.1c.427-2.092.155-6.475,7.418-7.63s13.8,2.52,12.159,10.554c0,1.464,2.905,3.739,2.2,4.506a2.933,2.933,0,0,1-1.888.8s.773,1.463.426,1.868-1.312.232-1.312.232.9.645.9,1.146-1.516,1.167-1.516,1.167.279,2.772-2,2.58-2.657-.833-2.657-.833l-.674,2.8Zm7.483-7.679c.015.175.048.522.048.522l.42.419,1.3-.119.419-.417s-.04-.449-.061-.674a2.4,2.4,0,0,0,.3-.2l.506.292.575-.15.653-1.125-.15-.573-.652-.375a2.22,2.22,0,0,0-.044-.367c.171-.148.516-.442.516-.442v-.593l-.849-.987h-.595l-.421.362a2.81,2.81,0,0,0-.484-.181c-.013-.167-.04-.5-.04-.5l-.42-.419-1.3.1-.419.419s.036.44.053.66a2.541,2.541,0,0,0-.358.244l-.548-.249-.575.15-.543,1.18-.019.081.17.493.635.29a2.19,2.19,0,0,0,.066.408l-.485.41v.592l.841.993a5.1,5.1,0,0,0,.516.043l.078-.043.462-.39A2.686,2.686,0,0,0,595.836,2180.32Zm-4.809-6.3c.024.271.074.813.074.813l.656.653,2.02-.184.655-.654s-.064-.7-.1-1.05a3.886,3.886,0,0,0,.473-.312l.789.455.9-.235,1.014-1.752-.235-.894-1.014-.585a3.555,3.555,0,0,0-.071-.573l.8-.687v-.923l-1.322-1.538h-.926l-.658.563a4.328,4.328,0,0,0-.753-.281c-.022-.259-.063-.78-.063-.78l-.655-.654-2.022.163-.656.653s.056.686.085,1.029a4.134,4.134,0,0,0-.56.38l-.854-.39-.9.235-.847,1.84-.031.127.265.769.991.452a3.33,3.33,0,0,0,.1.635l-.757.639v.923l1.312,1.545s.763.09.8.068l.122-.068.719-.608A4.292,4.292,0,0,0,591.027,2174.019Zm4.162,4.011a1.31,1.31,0,1,1,1.31,1.31A1.31,1.31,0,0,1,595.19,2178.03Zm-5.17-7.59a2.04,2.04,0,1,1,2.039,2.041A2.04,2.04,0,0,1,590.02,2170.44Z" fill="#fff"/>
  </g>
</svg>
