<svg xmlns="http://www.w3.org/2000/svg" width="38" height="38" viewBox="0 0 38 38">
  <g id="Group_1" data-name="Group 1" transform="translate(-223 -2254)">
    <circle id="Эллипс_1" data-name="Эллипс 1" cx="19" cy="19" r="19" transform="translate(223 2254)" fill="#fc635e"/>
    <path id="Forma_1" data-name="Forma 1" d="M247.833,2270.375c0,3.125-3.167,6.2-3.167,9.375h-6.333c0-3.076-3.167-6.25-3.167-9.375a6.334,6.334,0,0,1,12.667,0Zm-3.958,12.5h-4.75a.781.781,0,1,0,0,1.563h.145a2.372,2.372,0,0,0,4.459,0h.145a.781.781,0,1,0,0-1.562Zm0-2.344h-4.75a.781.781,0,1,0,0,1.563h4.75a.781.781,0,1,0,0-1.562Zm-11-14.166,1.421.809a7.771,7.771,0,0,1,.8-1.35l-1.426-.813Zm9.415-3.723V2261h-1.583v1.642a3.989,3.989,0,0,1,1.583,0Zm-4.036.626-.82-1.4-1.373.781.824,1.407A7.885,7.885,0,0,1,238.256,2263.267Zm11.867,3.1-.792-1.355-1.426.813a7.771,7.771,0,0,1,.8,1.35Zm-3.188-3.719-1.37-.781-.82,1.4a7.987,7.987,0,0,1,1.367.784Zm-13.352,7.729a7.224,7.224,0,0,1,.08-.781H232v1.562h1.667A6.566,6.566,0,0,1,233.583,2270.375Zm15.753-.781a7.2,7.2,0,0,1,.08.781,6.544,6.544,0,0,1-.083.781H251v-1.562Zm-1.3,5.406,1.3.739.792-1.354-1.438-.818C248.486,2274.052,248.269,2274.528,248.036,2275Zm-15.159-.615.792,1.354,1.285-.731c-.232-.473-.448-.952-.645-1.437Z" fill="#fff"/>
  </g>
</svg>
