<svg xmlns="http://www.w3.org/2000/svg" width="38" height="38" viewBox="0 0 38 38">
  <g id="Group_4" data-name="Group 4" transform="translate(-745 -2250)">
    <circle id="Эллипс_1_копия_3" data-name="Эллипс 1 копия 3" cx="19" cy="19" r="19" transform="translate(745 2250)" fill="#fc635e"/>
    <path id="Forma_1" data-name="Forma 1" d="M762.334,2278a2.269,2.269,0,0,1-1.283-.4c-.187-.128-.474-.355-.666-.477a5.58,5.58,0,0,0-2.738-1.052,2.078,2.078,0,0,1-.76-.221l-1.173-.681a.8.8,0,0,1-.354-.625v-8.271a.639.639,0,0,1,.383-.562l2.722-1.011a6.249,6.249,0,0,0,.742-.339,16.48,16.48,0,0,0,5.046-4.217c1.074-1.564,2.132-3.143,2.863-3.143.442,0,.764.579.9,2.09a5.421,5.421,0,0,1-.668,3.676c-.127.191-.064.333.16.333h5.16a2.374,2.374,0,0,1,2.315,2.012,2.829,2.829,0,0,1-.042.83l-1.726,9.217c-.042.229-.073.6-.12.829a2.711,2.711,0,0,1-2.584,2.013Zm-9.657-2.033a.689.689,0,0,1-.678-.7v-9.657a.689.689,0,0,1,.678-.7h1.489a.689.689,0,0,1,.678.7v9.657a.689.689,0,0,1-.678.7Z" fill="#fff"/>
  </g>
</svg>
