<svg xmlns="http://www.w3.org/2000/svg" width="38" height="38" viewBox="0 0 38 38">
  <g id="Group_2" data-name="Group 2" transform="translate(-489 -2303)">
    <circle id="Эллипс_1_копия" data-name="Эллипс 1 копия" cx="19" cy="19" r="19" transform="translate(489 2303)" fill="#fc635e"/>
    <path id="Forma_1" data-name="Forma 1" d="M502.262,2333l2.645-2.728h5.225l2.646,2.728Zm-4.868-3.4a1.417,1.417,0,0,1-1.4-1.421v-14.75a1.417,1.417,0,0,1,1.4-1.422H517.61a1.416,1.416,0,0,1,1.4,1.422v14.75a1.416,1.416,0,0,1-1.4,1.421Zm.351-2.467h19.512V2314H497.745Zm2.035-3.579a.945.945,0,0,1,.94-.949.929.929,0,0,1,.531.167l4.287-3.384a.956.956,0,0,1-.059-.333.94.94,0,1,1,1.88,0,.959.959,0,0,1-.059.333l2.313,1.995a.933.933,0,0,1,1.1-.055l2.356-2.159a.956.956,0,0,1-.067-.354.94.94,0,1,1,.94.949.925.925,0,0,1-.44-.111l-2.4,2.2a.961.961,0,0,1,.039.273.94.94,0,1,1-1.88,0,.966.966,0,0,1,.016-.175l-2.395-2.067a.932.932,0,0,1-1.005-.053c-.973.761-3.067,2.47-4.257,3.445a.957.957,0,0,1,.042.281.94.94,0,1,1-1.88,0Z" fill="#fff"/>
  </g>
</svg>
