<svg xmlns="http://www.w3.org/2000/svg" width="38" height="38" viewBox="0 0 38 38">
  <g id="Group_5" data-name="Group 5" transform="translate(-873 -2475)">
    <g id="Эллипс_1_копия_4" data-name="Эллипс 1 копия 4" transform="translate(873 2475)" fill="#fff" stroke="#fc635e" stroke-width="3">
      <circle cx="19" cy="19" r="19" stroke="none"/>
      <circle cx="19" cy="19" r="17.5" fill="none"/>
    </g>
    <path id="Forma_1" data-name="Forma 1" d="M884.466,2503.489a9.551,9.551,0,0,1,3.83-4.869c.384-.227.62-.027.464.388a9.413,9.413,0,0,1-3.8,4.91.587.587,0,0,1-.274.081C884.461,2504,884.353,2503.8,884.466,2503.489Zm2.849-.29a7.106,7.106,0,0,1,2.651-3.284c.378-.238.611-.034.441.374a7.024,7.024,0,0,1-2.625,3.322.56.56,0,0,1-.278.09C887.292,2503.7,887.192,2503.5,887.315,2503.2Zm4.883-.7c.029-1.95-.692-6.794-8.6-6.647-.447.007-.717-.317-.543-.724a5.741,5.741,0,0,1,5.687-3.662,1.478,1.478,0,0,0,1.21-.626,13.114,13.114,0,0,1,4.109-4.106,9.824,9.824,0,0,1,3.286-1.325c.439-.086.814-.127.829-.149l.029-.041c.1-.131.226-.21.274-.175l.034.024a.784.784,0,0,0,.292-.055c.144-.045.235.024.2.155a.608.608,0,0,0-.025.257l.028.021c.046.036,0,.172-.1.3-.013.018-.028.035-.041.051a6.641,6.641,0,0,0,.031.843,9.92,9.92,0,0,1-.124,2.052q-.019.115-.038.224c-.011.058-.019.111-.031.168-.052.271-.109.511-.163.713a14.011,14.011,0,0,1-.5,1.447,14.678,14.678,0,0,1-2.409,3.874,1.863,1.863,0,0,0-.354,1.382c.266,1.483.456,4.717-2.418,6.428a.573.573,0,0,1-.289.092C892.34,2503.021,892.194,2502.819,892.2,2502.5Zm.148-11.635a1.367,1.367,0,0,0-.183.248,1.535,1.535,0,0,0,.6,2.115,1.613,1.613,0,0,0,1.978-.292,1.565,1.565,0,0,0,.184-.248,1.536,1.536,0,0,0-.6-2.115,1.638,1.638,0,0,0-.81-.215A1.584,1.584,0,0,0,892.346,2490.864Zm-8.363,9.758a7.1,7.1,0,0,1,2.65-3.283c.378-.237.611-.034.441.375a7.02,7.02,0,0,1-2.625,3.32.557.557,0,0,1-.277.09C883.96,2501.123,883.86,2500.92,883.984,2500.622Z" fill="#fc635e"/>
  </g>
</svg>
