<svg xmlns="http://www.w3.org/2000/svg" width="74.014" height="85.994" viewBox="0 0 74.014 85.994">
  <g id="heading" transform="translate(-592.995 -5960.003)">
    <path id="Фигура_3" data-name="Фигура 3" d="M592.995,5981.5,630,5960l37.007,21.5v43L630,6046l-37.007-21.5Z" fill="#fe8682"/>
    <path id="Фигура_3_копия" data-name="Фигура 3 копия" d="M596.7,5983.725,630,5964.45l33.306,19.275v38.548L630,6041.548,596.7,6022.273Z" fill="#fc635e"/>
    <path id="Forma_1" data-name="Forma 1" d="M631.219,6017v-13.284c0-10.023,2.43-15.706,10.931-15.706v8.094c-3.644,0-3.644.726-3.644,5.075v2.537H647V6017ZM613,6017v-13.284c0-10.023,2.431-15.706,10.934-15.706v8.093c-3.645,0-3.645.726-3.645,5.075v2.538h8.508V6017Z" fill="#fff"/>
  </g>
</svg>
