<svg xmlns="http://www.w3.org/2000/svg" width="36.992" height="37.013" viewBox="0 0 36.992 37.013">
  <path id="Forma_1" data-name="Forma 1" d="M371.5,5760a18.507,18.507,0,1,0,18.5,18.507A18.5,18.5,0,0,0,371.5,5760Zm-4.624,27.471h-4.624v-16.193h4.624Zm-2.169-17.186a2.17,2.17,0,1,1,2.169-2.17A2.167,2.167,0,0,1,364.7,5770.284Zm18.353,17.186h-4.624v-10.012c0-1.173-.334-1.994-1.775-1.994a2.775,2.775,0,0,0-2.849,1.994v10.012h-4.624v-16.193h4.624v1.547a7.737,7.737,0,0,1,4.624-1.545c1.5,0,4.624.9,4.624,6.32Z" transform="translate(-353 -5760)" fill="#565656"/>
</svg>
