<svg xmlns="http://www.w3.org/2000/svg" width="36.999" height="37" viewBox="0 0 36.999 37">
  <path id="Forma_1" data-name="Forma 1" d="M261.5,5760a18.5,18.5,0,1,0,18.5,18.5A18.5,18.5,0,0,0,261.5,5760Zm7.524,15.155c.008.156.01.314.01.472a10.36,10.36,0,0,1-15.951,8.729,7.175,7.175,0,0,0,.869.052,7.305,7.305,0,0,0,4.526-1.561,3.646,3.646,0,0,1-3.4-2.53,3.628,3.628,0,0,0,1.645-.062,3.646,3.646,0,0,1-2.923-3.573c0-.016,0-.031,0-.045a3.639,3.639,0,0,0,1.65.456,3.648,3.648,0,0,1-1.128-4.865,10.345,10.345,0,0,0,7.51,3.807,3.646,3.646,0,0,1,6.208-3.323,7.308,7.308,0,0,0,2.314-.884,3.656,3.656,0,0,1-1.6,2.016,7.291,7.291,0,0,0,2.093-.574A7.392,7.392,0,0,1,269.024,5775.155Z" transform="translate(-243.001 -5760)" fill="#565656"/>
</svg>
